M48
; DRILL file {KiCad (5.1.0)-1} date 22.09.2019 22:34:15
; FORMAT={-:-/ absolute / metric / decimal}
; #@! TF.CreationDate,2019-09-22T22:34:15+02:00
; #@! TF.GenerationSoftware,Kicad,Pcbnew,(5.1.0)-1
FMAT,2
METRIC
T1C0.400
T2C1.000
T3C1.000
%
G90
G05
T1
X129.413Y-86.36
X129.413Y-88.9
X129.413Y-91.44
X129.413Y-93.98
X129.413Y-96.52
X129.413Y-99.06
X129.413Y-101.6
X129.413Y-104.14
X129.413Y-106.68
X129.413Y-109.22
X129.413Y-111.76
X129.413Y-114.3
X129.413Y-116.84
X129.413Y-119.38
X129.413Y-121.92
X129.413Y-124.46
X129.413Y-127.0
X129.413Y-129.54
X129.413Y-132.08
X133.35Y-99.06
X133.35Y-85.217
X133.985Y-96.52
X133.985Y-95.25
X134.185Y-91.44
X136.271Y-119.507
X137.033Y-124.333
X137.16Y-121.285
X138.303Y-106.172
X138.303Y-114.046
X138.557Y-118.11
X140.589Y-128.397
X141.478Y-103.505
X141.986Y-97.536
X141.986Y-96.393
X142.113Y-87.63
X142.113Y-127.508
X142.875Y-95.25
X143.383Y-113.665
X143.51Y-116.459
X143.637Y-114.681
X144.272Y-112.141
X144.653Y-116.84
X144.78Y-129.54
X144.78Y-132.08
X145.161Y-88.392
X145.72Y-126.543
X146.177Y-117.094
X146.685Y-105.41
X147.447Y-88.392
X147.701Y-118.491
X148.209Y-98.716
X148.59Y-104.394
X148.59Y-106.426
X148.59Y-117.602
X149.034Y-97.98
X149.479Y-88.265
X149.86Y-129.54
X149.86Y-132.08
X150.622Y-105.41
X151.511Y-121.412
X152.781Y-90.043
X152.781Y-98.044
X152.781Y-112.141
X152.908Y-94.869
X153.127Y-91.378
X153.416Y-88.392
X153.924Y-130.683
X154.051Y-108.966
X154.178Y-90.297
X154.686Y-85.344
X155.357Y-107.605
X155.448Y-112.141
X155.538Y-86.069
X155.575Y-93.726
X155.575Y-95.631
X155.575Y-87.63
X157.099Y-121.92
X157.348Y-115.194
X158.043Y-110.562
X158.75Y-109.837
X159.131Y-87.63
X159.385Y-113.792
X159.385Y-122.555
X159.475Y-101.6
X159.475Y-105.41
X159.766Y-92.71
X159.766Y-96.012
X160.401Y-117.983
X160.401Y-121.031
X160.528Y-115.189
X160.655Y-98.171
X161.544Y-87.63
X161.874Y-95.788
X162.56Y-97.155
X162.56Y-110.395
X163.216Y-111.15
X167.132Y-86.36
X167.132Y-88.9
X167.132Y-91.44
X167.132Y-93.98
X167.132Y-96.52
X167.132Y-99.06
X167.132Y-101.6
X167.132Y-104.14
X167.132Y-106.68
X167.132Y-109.22
X167.132Y-111.76
X167.132Y-114.3
X167.132Y-116.84
X167.132Y-119.38
X167.132Y-121.92
X167.132Y-124.46
X167.132Y-127.0
X167.132Y-129.54
X167.132Y-132.08
T2
X131.765Y-86.36
X131.765Y-88.9
X131.765Y-91.44
X131.765Y-93.98
X131.765Y-96.52
X131.765Y-99.06
X131.765Y-101.6
X131.765Y-104.14
X131.765Y-106.68
X131.765Y-109.22
X131.765Y-111.76
X131.765Y-114.3
X131.765Y-116.84
X131.765Y-119.38
X131.765Y-121.92
X164.78Y-86.36
X164.78Y-88.9
X164.78Y-91.44
X164.78Y-93.98
X164.78Y-96.52
X164.78Y-99.06
X164.78Y-101.6
X164.78Y-104.14
X164.78Y-106.68
X164.78Y-109.22
X164.78Y-111.76
X164.78Y-114.3
X164.78Y-116.84
X164.78Y-119.38
X164.78Y-121.92
T3
X145.12Y-127.635
X149.52Y-127.635
T0
M30
