G04 #@! TF.GenerationSoftware,KiCad,Pcbnew,(5.1.0)-1*
G04 #@! TF.CreationDate,2019-09-22T22:35:09+02:00*
G04 #@! TF.ProjectId,ESP32Eval,45535033-3245-4766-916c-2e6b69636164,rev?*
G04 #@! TF.SameCoordinates,Original*
G04 #@! TF.FileFunction,Legend,Top*
G04 #@! TF.FilePolarity,Positive*
%FSLAX46Y46*%
G04 Gerber Fmt 4.6, Leading zero omitted, Abs format (unit mm)*
G04 Created by KiCad (PCBNEW (5.1.0)-1) date 2019-09-22 22:35:09*
%MOMM*%
%LPD*%
G04 APERTURE LIST*
%ADD10C,0.150000*%
%ADD11C,0.120000*%
%ADD12C,0.010000*%
G04 APERTURE END LIST*
D10*
X135413904Y-131786380D02*
X136032952Y-131786380D01*
X135699619Y-132167333D01*
X135842476Y-132167333D01*
X135937714Y-132214952D01*
X135985333Y-132262571D01*
X136032952Y-132357809D01*
X136032952Y-132595904D01*
X135985333Y-132691142D01*
X135937714Y-132738761D01*
X135842476Y-132786380D01*
X135556761Y-132786380D01*
X135461523Y-132738761D01*
X135413904Y-132691142D01*
X136318666Y-131786380D02*
X136652000Y-132786380D01*
X136985333Y-131786380D01*
X137223428Y-131786380D02*
X137842476Y-131786380D01*
X137509142Y-132167333D01*
X137652000Y-132167333D01*
X137747238Y-132214952D01*
X137794857Y-132262571D01*
X137842476Y-132357809D01*
X137842476Y-132595904D01*
X137794857Y-132691142D01*
X137747238Y-132738761D01*
X137652000Y-132786380D01*
X137366285Y-132786380D01*
X137271047Y-132738761D01*
X137223428Y-132691142D01*
X158694523Y-131659380D02*
X159265952Y-131659380D01*
X158980238Y-132659380D02*
X158980238Y-131659380D01*
X159504047Y-132659380D02*
X160027857Y-131992714D01*
X159504047Y-131992714D02*
X160027857Y-132659380D01*
X155479761Y-132659380D02*
X155146428Y-132183190D01*
X154908333Y-132659380D02*
X154908333Y-131659380D01*
X155289285Y-131659380D01*
X155384523Y-131707000D01*
X155432142Y-131754619D01*
X155479761Y-131849857D01*
X155479761Y-131992714D01*
X155432142Y-132087952D01*
X155384523Y-132135571D01*
X155289285Y-132183190D01*
X154908333Y-132183190D01*
X155813095Y-132659380D02*
X156336904Y-131992714D01*
X155813095Y-131992714D02*
X156336904Y-132659380D01*
X136977380Y-111220095D02*
X136501190Y-111553428D01*
X136977380Y-111791523D02*
X135977380Y-111791523D01*
X135977380Y-111410571D01*
X136025000Y-111315333D01*
X136072619Y-111267714D01*
X136167857Y-111220095D01*
X136310714Y-111220095D01*
X136405952Y-111267714D01*
X136453571Y-111315333D01*
X136501190Y-111410571D01*
X136501190Y-111791523D01*
X136929761Y-110410571D02*
X136977380Y-110505809D01*
X136977380Y-110696285D01*
X136929761Y-110791523D01*
X136834523Y-110839142D01*
X136453571Y-110839142D01*
X136358333Y-110791523D01*
X136310714Y-110696285D01*
X136310714Y-110505809D01*
X136358333Y-110410571D01*
X136453571Y-110362952D01*
X136548809Y-110362952D01*
X136644047Y-110839142D01*
X136929761Y-109982000D02*
X136977380Y-109886761D01*
X136977380Y-109696285D01*
X136929761Y-109601047D01*
X136834523Y-109553428D01*
X136786904Y-109553428D01*
X136691666Y-109601047D01*
X136644047Y-109696285D01*
X136644047Y-109839142D01*
X136596428Y-109934380D01*
X136501190Y-109982000D01*
X136453571Y-109982000D01*
X136358333Y-109934380D01*
X136310714Y-109839142D01*
X136310714Y-109696285D01*
X136358333Y-109601047D01*
X136929761Y-108743904D02*
X136977380Y-108839142D01*
X136977380Y-109029619D01*
X136929761Y-109124857D01*
X136834523Y-109172476D01*
X136453571Y-109172476D01*
X136358333Y-109124857D01*
X136310714Y-109029619D01*
X136310714Y-108839142D01*
X136358333Y-108743904D01*
X136453571Y-108696285D01*
X136548809Y-108696285D01*
X136644047Y-109172476D01*
X136310714Y-108410571D02*
X136310714Y-108029619D01*
X135977380Y-108267714D02*
X136834523Y-108267714D01*
X136929761Y-108220095D01*
X136977380Y-108124857D01*
X136977380Y-108029619D01*
X160710571Y-111283571D02*
X160710571Y-111616904D01*
X161234380Y-111616904D02*
X160234380Y-111616904D01*
X160234380Y-111140714D01*
X161234380Y-110616904D02*
X161186761Y-110712142D01*
X161091523Y-110759761D01*
X160234380Y-110759761D01*
X161234380Y-109807380D02*
X160710571Y-109807380D01*
X160615333Y-109855000D01*
X160567714Y-109950238D01*
X160567714Y-110140714D01*
X160615333Y-110235952D01*
X161186761Y-109807380D02*
X161234380Y-109902619D01*
X161234380Y-110140714D01*
X161186761Y-110235952D01*
X161091523Y-110283571D01*
X160996285Y-110283571D01*
X160901047Y-110235952D01*
X160853428Y-110140714D01*
X160853428Y-109902619D01*
X160805809Y-109807380D01*
X161186761Y-109378809D02*
X161234380Y-109283571D01*
X161234380Y-109093095D01*
X161186761Y-108997857D01*
X161091523Y-108950238D01*
X161043904Y-108950238D01*
X160948666Y-108997857D01*
X160901047Y-109093095D01*
X160901047Y-109235952D01*
X160853428Y-109331190D01*
X160758190Y-109378809D01*
X160710571Y-109378809D01*
X160615333Y-109331190D01*
X160567714Y-109235952D01*
X160567714Y-109093095D01*
X160615333Y-108997857D01*
X161234380Y-108521666D02*
X160234380Y-108521666D01*
X161234380Y-108093095D02*
X160710571Y-108093095D01*
X160615333Y-108140714D01*
X160567714Y-108235952D01*
X160567714Y-108378809D01*
X160615333Y-108474047D01*
X160662952Y-108521666D01*
X132596380Y-132095476D02*
X131596380Y-132095476D01*
X131596380Y-131857380D01*
X131644000Y-131714523D01*
X131739238Y-131619285D01*
X131834476Y-131571666D01*
X132024952Y-131524047D01*
X132167809Y-131524047D01*
X132358285Y-131571666D01*
X132453523Y-131619285D01*
X132548761Y-131714523D01*
X132596380Y-131857380D01*
X132596380Y-132095476D01*
X132501142Y-131095476D02*
X132548761Y-131047857D01*
X132596380Y-131095476D01*
X132548761Y-131143095D01*
X132501142Y-131095476D01*
X132596380Y-131095476D01*
X131596380Y-129952619D02*
X132596380Y-129714523D01*
X131882095Y-129524047D01*
X132596380Y-129333571D01*
X131596380Y-129095476D01*
X132596380Y-128285952D02*
X132072571Y-128285952D01*
X131977333Y-128333571D01*
X131929714Y-128428809D01*
X131929714Y-128619285D01*
X131977333Y-128714523D01*
X132548761Y-128285952D02*
X132596380Y-128381190D01*
X132596380Y-128619285D01*
X132548761Y-128714523D01*
X132453523Y-128762142D01*
X132358285Y-128762142D01*
X132263047Y-128714523D01*
X132215428Y-128619285D01*
X132215428Y-128381190D01*
X132167809Y-128285952D01*
X132596380Y-127666904D02*
X132548761Y-127762142D01*
X132453523Y-127809761D01*
X131596380Y-127809761D01*
X131929714Y-127428809D02*
X131929714Y-127047857D01*
X131596380Y-127285952D02*
X132453523Y-127285952D01*
X132548761Y-127238333D01*
X132596380Y-127143095D01*
X132596380Y-127047857D01*
X132548761Y-126333571D02*
X132596380Y-126428809D01*
X132596380Y-126619285D01*
X132548761Y-126714523D01*
X132453523Y-126762142D01*
X132072571Y-126762142D01*
X131977333Y-126714523D01*
X131929714Y-126619285D01*
X131929714Y-126428809D01*
X131977333Y-126333571D01*
X132072571Y-126285952D01*
X132167809Y-126285952D01*
X132263047Y-126762142D01*
X132596380Y-125857380D02*
X131929714Y-125857380D01*
X132120190Y-125857380D02*
X132024952Y-125809761D01*
X131977333Y-125762142D01*
X131929714Y-125666904D01*
X131929714Y-125571666D01*
X133579714Y-130333571D02*
X134246380Y-130095476D01*
X133579714Y-129857380D01*
X134246380Y-128952619D02*
X134246380Y-129524047D01*
X134246380Y-129238333D02*
X133246380Y-129238333D01*
X133389238Y-129333571D01*
X133484476Y-129428809D01*
X133532095Y-129524047D01*
X134151142Y-128524047D02*
X134198761Y-128476428D01*
X134246380Y-128524047D01*
X134198761Y-128571666D01*
X134151142Y-128524047D01*
X134246380Y-128524047D01*
X133246380Y-127857380D02*
X133246380Y-127762142D01*
X133294000Y-127666904D01*
X133341619Y-127619285D01*
X133436857Y-127571666D01*
X133627333Y-127524047D01*
X133865428Y-127524047D01*
X134055904Y-127571666D01*
X134151142Y-127619285D01*
X134198761Y-127666904D01*
X134246380Y-127762142D01*
X134246380Y-127857380D01*
X134198761Y-127952619D01*
X134151142Y-128000238D01*
X134055904Y-128047857D01*
X133865428Y-128095476D01*
X133627333Y-128095476D01*
X133436857Y-128047857D01*
X133341619Y-128000238D01*
X133294000Y-127952619D01*
X133246380Y-127857380D01*
D11*
X153164000Y-113736000D02*
X154624000Y-113736000D01*
X153164000Y-116896000D02*
X155324000Y-116896000D01*
X153164000Y-116896000D02*
X153164000Y-115966000D01*
X153164000Y-113736000D02*
X153164000Y-114666000D01*
X140337000Y-113736000D02*
X141797000Y-113736000D01*
X140337000Y-116896000D02*
X142497000Y-116896000D01*
X140337000Y-116896000D02*
X140337000Y-115966000D01*
X140337000Y-113736000D02*
X140337000Y-114666000D01*
D12*
G36*
X135331200Y-102425500D02*
G01*
X135318500Y-102438200D01*
X135305800Y-102425500D01*
X135318500Y-102412800D01*
X135331200Y-102425500D01*
X135331200Y-102425500D01*
G37*
X135331200Y-102425500D02*
X135318500Y-102438200D01*
X135305800Y-102425500D01*
X135318500Y-102412800D01*
X135331200Y-102425500D01*
G36*
X135271933Y-102395866D02*
G01*
X135274973Y-102426010D01*
X135271933Y-102429733D01*
X135256833Y-102426246D01*
X135255000Y-102412800D01*
X135264293Y-102391892D01*
X135271933Y-102395866D01*
X135271933Y-102395866D01*
G37*
X135271933Y-102395866D02*
X135274973Y-102426010D01*
X135271933Y-102429733D01*
X135256833Y-102426246D01*
X135255000Y-102412800D01*
X135264293Y-102391892D01*
X135271933Y-102395866D01*
G36*
X135086745Y-101931104D02*
G01*
X135129028Y-101960376D01*
X135188800Y-102024291D01*
X135204200Y-102087376D01*
X135213656Y-102141269D01*
X135247362Y-102158622D01*
X135253500Y-102158799D01*
X135307148Y-102143408D01*
X135323194Y-102105609D01*
X135306753Y-102071048D01*
X135295597Y-102033213D01*
X135319256Y-102011787D01*
X135358629Y-102020354D01*
X135391609Y-102015065D01*
X135423570Y-101983753D01*
X135466878Y-101945225D01*
X135515120Y-101931195D01*
X135551104Y-101943613D01*
X135559800Y-101968300D01*
X135573515Y-102002101D01*
X135585200Y-102006400D01*
X135608084Y-102026817D01*
X135610600Y-102042383D01*
X135629577Y-102081697D01*
X135642350Y-102089056D01*
X135665229Y-102119403D01*
X135674100Y-102173170D01*
X135688187Y-102230101D01*
X135720637Y-102258195D01*
X135756726Y-102252104D01*
X135780462Y-102211809D01*
X135804411Y-102169385D01*
X135826287Y-102158800D01*
X135872693Y-102154063D01*
X135937625Y-102142925D01*
X135998131Y-102140356D01*
X136016479Y-102157149D01*
X135989811Y-102181671D01*
X135950502Y-102195382D01*
X135906671Y-102211671D01*
X135897616Y-102225682D01*
X135892971Y-102251018D01*
X135866773Y-102291047D01*
X135834342Y-102325522D01*
X135814505Y-102335526D01*
X135785732Y-102325936D01*
X135724391Y-102302076D01*
X135656811Y-102274498D01*
X135579106Y-102245142D01*
X135521475Y-102228825D01*
X135498659Y-102228407D01*
X135479444Y-102221857D01*
X135470772Y-102205727D01*
X135450112Y-102185565D01*
X135401633Y-102176919D01*
X135315180Y-102178299D01*
X135292859Y-102179620D01*
X135204142Y-102184174D01*
X135152607Y-102180667D01*
X135124772Y-102164706D01*
X135107152Y-102131898D01*
X135101527Y-102117278D01*
X135068163Y-102036627D01*
X135039489Y-101974650D01*
X135021315Y-101922434D01*
X135037104Y-101907913D01*
X135086745Y-101931104D01*
X135086745Y-101931104D01*
G37*
X135086745Y-101931104D02*
X135129028Y-101960376D01*
X135188800Y-102024291D01*
X135204200Y-102087376D01*
X135213656Y-102141269D01*
X135247362Y-102158622D01*
X135253500Y-102158799D01*
X135307148Y-102143408D01*
X135323194Y-102105609D01*
X135306753Y-102071048D01*
X135295597Y-102033213D01*
X135319256Y-102011787D01*
X135358629Y-102020354D01*
X135391609Y-102015065D01*
X135423570Y-101983753D01*
X135466878Y-101945225D01*
X135515120Y-101931195D01*
X135551104Y-101943613D01*
X135559800Y-101968300D01*
X135573515Y-102002101D01*
X135585200Y-102006400D01*
X135608084Y-102026817D01*
X135610600Y-102042383D01*
X135629577Y-102081697D01*
X135642350Y-102089056D01*
X135665229Y-102119403D01*
X135674100Y-102173170D01*
X135688187Y-102230101D01*
X135720637Y-102258195D01*
X135756726Y-102252104D01*
X135780462Y-102211809D01*
X135804411Y-102169385D01*
X135826287Y-102158800D01*
X135872693Y-102154063D01*
X135937625Y-102142925D01*
X135998131Y-102140356D01*
X136016479Y-102157149D01*
X135989811Y-102181671D01*
X135950502Y-102195382D01*
X135906671Y-102211671D01*
X135897616Y-102225682D01*
X135892971Y-102251018D01*
X135866773Y-102291047D01*
X135834342Y-102325522D01*
X135814505Y-102335526D01*
X135785732Y-102325936D01*
X135724391Y-102302076D01*
X135656811Y-102274498D01*
X135579106Y-102245142D01*
X135521475Y-102228825D01*
X135498659Y-102228407D01*
X135479444Y-102221857D01*
X135470772Y-102205727D01*
X135450112Y-102185565D01*
X135401633Y-102176919D01*
X135315180Y-102178299D01*
X135292859Y-102179620D01*
X135204142Y-102184174D01*
X135152607Y-102180667D01*
X135124772Y-102164706D01*
X135107152Y-102131898D01*
X135101527Y-102117278D01*
X135068163Y-102036627D01*
X135039489Y-101974650D01*
X135021315Y-101922434D01*
X135037104Y-101907913D01*
X135086745Y-101931104D01*
G36*
X134617693Y-102577541D02*
G01*
X134648028Y-102607387D01*
X134639173Y-102643972D01*
X134626424Y-102655547D01*
X134597390Y-102693955D01*
X134613534Y-102728360D01*
X134669236Y-102754894D01*
X134758875Y-102769684D01*
X134794560Y-102771320D01*
X134874056Y-102773284D01*
X134906332Y-102776288D01*
X134894955Y-102782400D01*
X134843495Y-102793685D01*
X134835900Y-102795257D01*
X134698356Y-102815912D01*
X134585553Y-102817324D01*
X134505455Y-102800038D01*
X134468493Y-102770069D01*
X134443345Y-102687247D01*
X134457186Y-102618624D01*
X134505366Y-102575028D01*
X134556500Y-102565200D01*
X134617693Y-102577541D01*
X134617693Y-102577541D01*
G37*
X134617693Y-102577541D02*
X134648028Y-102607387D01*
X134639173Y-102643972D01*
X134626424Y-102655547D01*
X134597390Y-102693955D01*
X134613534Y-102728360D01*
X134669236Y-102754894D01*
X134758875Y-102769684D01*
X134794560Y-102771320D01*
X134874056Y-102773284D01*
X134906332Y-102776288D01*
X134894955Y-102782400D01*
X134843495Y-102793685D01*
X134835900Y-102795257D01*
X134698356Y-102815912D01*
X134585553Y-102817324D01*
X134505455Y-102800038D01*
X134468493Y-102770069D01*
X134443345Y-102687247D01*
X134457186Y-102618624D01*
X134505366Y-102575028D01*
X134556500Y-102565200D01*
X134617693Y-102577541D01*
G36*
X135895146Y-102659828D02*
G01*
X135901293Y-102665478D01*
X135963725Y-102707020D01*
X136027600Y-102707695D01*
X136028293Y-102707522D01*
X136075793Y-102702096D01*
X136091997Y-102727246D01*
X136093200Y-102752498D01*
X136072358Y-102812129D01*
X136012080Y-102841748D01*
X135976449Y-102844600D01*
X135940602Y-102824629D01*
X135898257Y-102775279D01*
X135889721Y-102762050D01*
X135850888Y-102688474D01*
X135839240Y-102643638D01*
X135854189Y-102632452D01*
X135895146Y-102659828D01*
X135895146Y-102659828D01*
G37*
X135895146Y-102659828D02*
X135901293Y-102665478D01*
X135963725Y-102707020D01*
X136027600Y-102707695D01*
X136028293Y-102707522D01*
X136075793Y-102702096D01*
X136091997Y-102727246D01*
X136093200Y-102752498D01*
X136072358Y-102812129D01*
X136012080Y-102841748D01*
X135976449Y-102844600D01*
X135940602Y-102824629D01*
X135898257Y-102775279D01*
X135889721Y-102762050D01*
X135850888Y-102688474D01*
X135839240Y-102643638D01*
X135854189Y-102632452D01*
X135895146Y-102659828D01*
G36*
X135203908Y-102864251D02*
G01*
X135204200Y-102870000D01*
X135184673Y-102894423D01*
X135177300Y-102895400D01*
X135162131Y-102879839D01*
X135166100Y-102870000D01*
X135188924Y-102845768D01*
X135192999Y-102844600D01*
X135203908Y-102864251D01*
X135203908Y-102864251D01*
G37*
X135203908Y-102864251D02*
X135204200Y-102870000D01*
X135184673Y-102894423D01*
X135177300Y-102895400D01*
X135162131Y-102879839D01*
X135166100Y-102870000D01*
X135188924Y-102845768D01*
X135192999Y-102844600D01*
X135203908Y-102864251D01*
G36*
X135119533Y-102853066D02*
G01*
X135122573Y-102883210D01*
X135119533Y-102886933D01*
X135104433Y-102883446D01*
X135102600Y-102870000D01*
X135111893Y-102849092D01*
X135119533Y-102853066D01*
X135119533Y-102853066D01*
G37*
X135119533Y-102853066D02*
X135122573Y-102883210D01*
X135119533Y-102886933D01*
X135104433Y-102883446D01*
X135102600Y-102870000D01*
X135111893Y-102849092D01*
X135119533Y-102853066D01*
G36*
X135800071Y-102648186D02*
G01*
X135806288Y-102659232D01*
X135852516Y-102743686D01*
X135922876Y-102826876D01*
X135998545Y-102887171D01*
X136010021Y-102893315D01*
X136061920Y-102925996D01*
X136084494Y-102954865D01*
X136084231Y-102958900D01*
X136053208Y-102986841D01*
X135996930Y-102987886D01*
X135932579Y-102963060D01*
X135911487Y-102948574D01*
X135869812Y-102901704D01*
X135828430Y-102833406D01*
X135794068Y-102758746D01*
X135773453Y-102692791D01*
X135773313Y-102650609D01*
X135776487Y-102646206D01*
X135800071Y-102648186D01*
X135800071Y-102648186D01*
G37*
X135800071Y-102648186D02*
X135806288Y-102659232D01*
X135852516Y-102743686D01*
X135922876Y-102826876D01*
X135998545Y-102887171D01*
X136010021Y-102893315D01*
X136061920Y-102925996D01*
X136084494Y-102954865D01*
X136084231Y-102958900D01*
X136053208Y-102986841D01*
X135996930Y-102987886D01*
X135932579Y-102963060D01*
X135911487Y-102948574D01*
X135869812Y-102901704D01*
X135828430Y-102833406D01*
X135794068Y-102758746D01*
X135773453Y-102692791D01*
X135773313Y-102650609D01*
X135776487Y-102646206D01*
X135800071Y-102648186D01*
G36*
X135985195Y-103046587D02*
G01*
X136024962Y-103085114D01*
X136058380Y-103094199D01*
X136107680Y-103076742D01*
X136131245Y-103065641D01*
X136194359Y-103043150D01*
X136218104Y-103052034D01*
X136200530Y-103089309D01*
X136169400Y-103124000D01*
X136104999Y-103162314D01*
X136029056Y-103173313D01*
X135962857Y-103155677D01*
X135941960Y-103138098D01*
X135920797Y-103084606D01*
X135919800Y-103043255D01*
X135928100Y-102985114D01*
X135985195Y-103046587D01*
X135985195Y-103046587D01*
G37*
X135985195Y-103046587D02*
X136024962Y-103085114D01*
X136058380Y-103094199D01*
X136107680Y-103076742D01*
X136131245Y-103065641D01*
X136194359Y-103043150D01*
X136218104Y-103052034D01*
X136200530Y-103089309D01*
X136169400Y-103124000D01*
X136104999Y-103162314D01*
X136029056Y-103173313D01*
X135962857Y-103155677D01*
X135941960Y-103138098D01*
X135920797Y-103084606D01*
X135919800Y-103043255D01*
X135928100Y-102985114D01*
X135985195Y-103046587D01*
G36*
X134749461Y-103132243D02*
G01*
X134805386Y-103169334D01*
X134816951Y-103181150D01*
X134870358Y-103238300D01*
X134734213Y-103240280D01*
X134648593Y-103237020D01*
X134579257Y-103226515D01*
X134554589Y-103217928D01*
X134532041Y-103199151D01*
X134546816Y-103180868D01*
X134593871Y-103158798D01*
X134684088Y-103129245D01*
X134749461Y-103132243D01*
X134749461Y-103132243D01*
G37*
X134749461Y-103132243D02*
X134805386Y-103169334D01*
X134816951Y-103181150D01*
X134870358Y-103238300D01*
X134734213Y-103240280D01*
X134648593Y-103237020D01*
X134579257Y-103226515D01*
X134554589Y-103217928D01*
X134532041Y-103199151D01*
X134546816Y-103180868D01*
X134593871Y-103158798D01*
X134684088Y-103129245D01*
X134749461Y-103132243D01*
G36*
X136789058Y-102332566D02*
G01*
X136845923Y-102359941D01*
X136912035Y-102390303D01*
X136951187Y-102382831D01*
X136951910Y-102382129D01*
X136975856Y-102374889D01*
X137012261Y-102395187D01*
X137066541Y-102447483D01*
X137144112Y-102536237D01*
X137155295Y-102549611D01*
X137205240Y-102594635D01*
X137247318Y-102607139D01*
X137250545Y-102606183D01*
X137282303Y-102605044D01*
X137287000Y-102613834D01*
X137266978Y-102643287D01*
X137218401Y-102651194D01*
X137158502Y-102638013D01*
X137109883Y-102609134D01*
X137076133Y-102581822D01*
X137072728Y-102583990D01*
X137077450Y-102589710D01*
X137109226Y-102644394D01*
X137104475Y-102679795D01*
X137072253Y-102685672D01*
X137022114Y-102652285D01*
X136991556Y-102630945D01*
X136982200Y-102638086D01*
X137000750Y-102674311D01*
X137007600Y-102679499D01*
X137032721Y-102710733D01*
X137020833Y-102734013D01*
X136988550Y-102732952D01*
X136976341Y-102735304D01*
X137001090Y-102760343D01*
X137013950Y-102770453D01*
X137064159Y-102825095D01*
X137081794Y-102878468D01*
X137076616Y-102911206D01*
X137064974Y-102895400D01*
X137013606Y-102831590D01*
X136920292Y-102789324D01*
X136887680Y-102781887D01*
X136817601Y-102754120D01*
X136767030Y-102710934D01*
X136735602Y-102642447D01*
X136731096Y-102576687D01*
X136753580Y-102531036D01*
X136766300Y-102523585D01*
X136801454Y-102493755D01*
X136792958Y-102456373D01*
X136744371Y-102422632D01*
X136732767Y-102418198D01*
X136638780Y-102411456D01*
X136534495Y-102449716D01*
X136461500Y-102500421D01*
X136427071Y-102529979D01*
X136433092Y-102531364D01*
X136466180Y-102515801D01*
X136528116Y-102495579D01*
X136589604Y-102489561D01*
X136634384Y-102497485D01*
X136646337Y-102518688D01*
X136617904Y-102545158D01*
X136559274Y-102574527D01*
X136538939Y-102582133D01*
X136443355Y-102622347D01*
X136390563Y-102664550D01*
X136372757Y-102715287D01*
X136372600Y-102721603D01*
X136379336Y-102754580D01*
X136408766Y-102750348D01*
X136425116Y-102742081D01*
X136452311Y-102729774D01*
X136466586Y-102735808D01*
X136470132Y-102769412D01*
X136465137Y-102839813D01*
X136460263Y-102890246D01*
X136442894Y-103066517D01*
X136536657Y-103170301D01*
X136592297Y-103238800D01*
X136613089Y-103285648D01*
X136607137Y-103315687D01*
X136589874Y-103331846D01*
X136564077Y-103321330D01*
X136522214Y-103278779D01*
X136474920Y-103221595D01*
X136411946Y-103136860D01*
X136357708Y-103052939D01*
X136328220Y-102997052D01*
X136304804Y-102897390D01*
X136302897Y-102819200D01*
X136347200Y-102819200D01*
X136356493Y-102840107D01*
X136364133Y-102836133D01*
X136367173Y-102805989D01*
X136364133Y-102802266D01*
X136349033Y-102805753D01*
X136347200Y-102819200D01*
X136302897Y-102819200D01*
X136301776Y-102773279D01*
X136317543Y-102646070D01*
X136350513Y-102537113D01*
X136364604Y-102509301D01*
X136449401Y-102405603D01*
X136555178Y-102339481D01*
X136671782Y-102314085D01*
X136789058Y-102332566D01*
X136789058Y-102332566D01*
G37*
X136789058Y-102332566D02*
X136845923Y-102359941D01*
X136912035Y-102390303D01*
X136951187Y-102382831D01*
X136951910Y-102382129D01*
X136975856Y-102374889D01*
X137012261Y-102395187D01*
X137066541Y-102447483D01*
X137144112Y-102536237D01*
X137155295Y-102549611D01*
X137205240Y-102594635D01*
X137247318Y-102607139D01*
X137250545Y-102606183D01*
X137282303Y-102605044D01*
X137287000Y-102613834D01*
X137266978Y-102643287D01*
X137218401Y-102651194D01*
X137158502Y-102638013D01*
X137109883Y-102609134D01*
X137076133Y-102581822D01*
X137072728Y-102583990D01*
X137077450Y-102589710D01*
X137109226Y-102644394D01*
X137104475Y-102679795D01*
X137072253Y-102685672D01*
X137022114Y-102652285D01*
X136991556Y-102630945D01*
X136982200Y-102638086D01*
X137000750Y-102674311D01*
X137007600Y-102679499D01*
X137032721Y-102710733D01*
X137020833Y-102734013D01*
X136988550Y-102732952D01*
X136976341Y-102735304D01*
X137001090Y-102760343D01*
X137013950Y-102770453D01*
X137064159Y-102825095D01*
X137081794Y-102878468D01*
X137076616Y-102911206D01*
X137064974Y-102895400D01*
X137013606Y-102831590D01*
X136920292Y-102789324D01*
X136887680Y-102781887D01*
X136817601Y-102754120D01*
X136767030Y-102710934D01*
X136735602Y-102642447D01*
X136731096Y-102576687D01*
X136753580Y-102531036D01*
X136766300Y-102523585D01*
X136801454Y-102493755D01*
X136792958Y-102456373D01*
X136744371Y-102422632D01*
X136732767Y-102418198D01*
X136638780Y-102411456D01*
X136534495Y-102449716D01*
X136461500Y-102500421D01*
X136427071Y-102529979D01*
X136433092Y-102531364D01*
X136466180Y-102515801D01*
X136528116Y-102495579D01*
X136589604Y-102489561D01*
X136634384Y-102497485D01*
X136646337Y-102518688D01*
X136617904Y-102545158D01*
X136559274Y-102574527D01*
X136538939Y-102582133D01*
X136443355Y-102622347D01*
X136390563Y-102664550D01*
X136372757Y-102715287D01*
X136372600Y-102721603D01*
X136379336Y-102754580D01*
X136408766Y-102750348D01*
X136425116Y-102742081D01*
X136452311Y-102729774D01*
X136466586Y-102735808D01*
X136470132Y-102769412D01*
X136465137Y-102839813D01*
X136460263Y-102890246D01*
X136442894Y-103066517D01*
X136536657Y-103170301D01*
X136592297Y-103238800D01*
X136613089Y-103285648D01*
X136607137Y-103315687D01*
X136589874Y-103331846D01*
X136564077Y-103321330D01*
X136522214Y-103278779D01*
X136474920Y-103221595D01*
X136411946Y-103136860D01*
X136357708Y-103052939D01*
X136328220Y-102997052D01*
X136304804Y-102897390D01*
X136302897Y-102819200D01*
X136347200Y-102819200D01*
X136356493Y-102840107D01*
X136364133Y-102836133D01*
X136367173Y-102805989D01*
X136364133Y-102802266D01*
X136349033Y-102805753D01*
X136347200Y-102819200D01*
X136302897Y-102819200D01*
X136301776Y-102773279D01*
X136317543Y-102646070D01*
X136350513Y-102537113D01*
X136364604Y-102509301D01*
X136449401Y-102405603D01*
X136555178Y-102339481D01*
X136671782Y-102314085D01*
X136789058Y-102332566D01*
G36*
X135304954Y-103179306D02*
G01*
X135302343Y-103266074D01*
X135289278Y-103319907D01*
X135259831Y-103358466D01*
X135238874Y-103376156D01*
X135168758Y-103414972D01*
X135098326Y-103429000D01*
X135046555Y-103414776D01*
X135043333Y-103411866D01*
X135027126Y-103375202D01*
X135055641Y-103354131D01*
X135073263Y-103352600D01*
X135133108Y-103330549D01*
X135182402Y-103276973D01*
X135204141Y-103210732D01*
X135204200Y-103207363D01*
X135219992Y-103150309D01*
X135254154Y-103095063D01*
X135304109Y-103035100D01*
X135304954Y-103179306D01*
X135304954Y-103179306D01*
G37*
X135304954Y-103179306D02*
X135302343Y-103266074D01*
X135289278Y-103319907D01*
X135259831Y-103358466D01*
X135238874Y-103376156D01*
X135168758Y-103414972D01*
X135098326Y-103429000D01*
X135046555Y-103414776D01*
X135043333Y-103411866D01*
X135027126Y-103375202D01*
X135055641Y-103354131D01*
X135073263Y-103352600D01*
X135133108Y-103330549D01*
X135182402Y-103276973D01*
X135204141Y-103210732D01*
X135204200Y-103207363D01*
X135219992Y-103150309D01*
X135254154Y-103095063D01*
X135304109Y-103035100D01*
X135304954Y-103179306D01*
G36*
X135573090Y-103045001D02*
G01*
X135602309Y-103101671D01*
X135611202Y-103160829D01*
X135621229Y-103225887D01*
X135646598Y-103315181D01*
X135673910Y-103389376D01*
X135710166Y-103483560D01*
X135724740Y-103535963D01*
X135717747Y-103545351D01*
X135689303Y-103510488D01*
X135665975Y-103474303D01*
X135624906Y-103396701D01*
X135586504Y-103305060D01*
X135554115Y-103210722D01*
X135531086Y-103125029D01*
X135520766Y-103059320D01*
X135526501Y-103024939D01*
X135532599Y-103022400D01*
X135573090Y-103045001D01*
X135573090Y-103045001D01*
G37*
X135573090Y-103045001D02*
X135602309Y-103101671D01*
X135611202Y-103160829D01*
X135621229Y-103225887D01*
X135646598Y-103315181D01*
X135673910Y-103389376D01*
X135710166Y-103483560D01*
X135724740Y-103535963D01*
X135717747Y-103545351D01*
X135689303Y-103510488D01*
X135665975Y-103474303D01*
X135624906Y-103396701D01*
X135586504Y-103305060D01*
X135554115Y-103210722D01*
X135531086Y-103125029D01*
X135520766Y-103059320D01*
X135526501Y-103024939D01*
X135532599Y-103022400D01*
X135573090Y-103045001D01*
G36*
X135720186Y-102671575D02*
G01*
X135737377Y-102700665D01*
X135766021Y-102759634D01*
X135809664Y-102853801D01*
X135851754Y-102958735D01*
X135880461Y-103057149D01*
X135890000Y-103124562D01*
X135896184Y-103186227D01*
X135920834Y-103239055D01*
X135973094Y-103299480D01*
X136004300Y-103329955D01*
X136064597Y-103393461D01*
X136105867Y-103448485D01*
X136118211Y-103478295D01*
X136112625Y-103502425D01*
X136097130Y-103485089D01*
X136058829Y-103463229D01*
X136040369Y-103465641D01*
X136003663Y-103454483D01*
X135956611Y-103407893D01*
X135907600Y-103337660D01*
X135865017Y-103255572D01*
X135839702Y-103183596D01*
X135814581Y-103085900D01*
X135826084Y-103186023D01*
X135849708Y-103271349D01*
X135895843Y-103364718D01*
X135915994Y-103395325D01*
X135963897Y-103471784D01*
X135977720Y-103523320D01*
X135971387Y-103545628D01*
X135952544Y-103565588D01*
X135929557Y-103550570D01*
X135896867Y-103501425D01*
X135834969Y-103371620D01*
X135792205Y-103214423D01*
X135775262Y-103111300D01*
X135754831Y-103012803D01*
X135724126Y-102917073D01*
X135712011Y-102889050D01*
X135688563Y-102830857D01*
X135683997Y-102797162D01*
X135688211Y-102793800D01*
X135719070Y-102816501D01*
X135752209Y-102875474D01*
X135780753Y-102957022D01*
X135790181Y-102997000D01*
X135801868Y-103049179D01*
X135807960Y-103053948D01*
X135810879Y-103018572D01*
X135801919Y-102958355D01*
X135775765Y-102875166D01*
X135751345Y-102816443D01*
X135719734Y-102742456D01*
X135701794Y-102688813D01*
X135700545Y-102669987D01*
X135709543Y-102664102D01*
X135720186Y-102671575D01*
X135720186Y-102671575D01*
G37*
X135720186Y-102671575D02*
X135737377Y-102700665D01*
X135766021Y-102759634D01*
X135809664Y-102853801D01*
X135851754Y-102958735D01*
X135880461Y-103057149D01*
X135890000Y-103124562D01*
X135896184Y-103186227D01*
X135920834Y-103239055D01*
X135973094Y-103299480D01*
X136004300Y-103329955D01*
X136064597Y-103393461D01*
X136105867Y-103448485D01*
X136118211Y-103478295D01*
X136112625Y-103502425D01*
X136097130Y-103485089D01*
X136058829Y-103463229D01*
X136040369Y-103465641D01*
X136003663Y-103454483D01*
X135956611Y-103407893D01*
X135907600Y-103337660D01*
X135865017Y-103255572D01*
X135839702Y-103183596D01*
X135814581Y-103085900D01*
X135826084Y-103186023D01*
X135849708Y-103271349D01*
X135895843Y-103364718D01*
X135915994Y-103395325D01*
X135963897Y-103471784D01*
X135977720Y-103523320D01*
X135971387Y-103545628D01*
X135952544Y-103565588D01*
X135929557Y-103550570D01*
X135896867Y-103501425D01*
X135834969Y-103371620D01*
X135792205Y-103214423D01*
X135775262Y-103111300D01*
X135754831Y-103012803D01*
X135724126Y-102917073D01*
X135712011Y-102889050D01*
X135688563Y-102830857D01*
X135683997Y-102797162D01*
X135688211Y-102793800D01*
X135719070Y-102816501D01*
X135752209Y-102875474D01*
X135780753Y-102957022D01*
X135790181Y-102997000D01*
X135801868Y-103049179D01*
X135807960Y-103053948D01*
X135810879Y-103018572D01*
X135801919Y-102958355D01*
X135775765Y-102875166D01*
X135751345Y-102816443D01*
X135719734Y-102742456D01*
X135701794Y-102688813D01*
X135700545Y-102669987D01*
X135709543Y-102664102D01*
X135720186Y-102671575D01*
G36*
X135722467Y-103001272D02*
G01*
X135741438Y-103077313D01*
X135761440Y-103188154D01*
X135785834Y-103295996D01*
X135819894Y-103399313D01*
X135851853Y-103467554D01*
X135924034Y-103589960D01*
X135968379Y-103672449D01*
X135985195Y-103717394D01*
X135974792Y-103727170D01*
X135937479Y-103704151D01*
X135875942Y-103652800D01*
X135786990Y-103552147D01*
X135715637Y-103428142D01*
X135666409Y-103294210D01*
X135643833Y-103163778D01*
X135652434Y-103050271D01*
X135662505Y-103019730D01*
X135685151Y-102976141D01*
X135704421Y-102968768D01*
X135722467Y-103001272D01*
X135722467Y-103001272D01*
G37*
X135722467Y-103001272D02*
X135741438Y-103077313D01*
X135761440Y-103188154D01*
X135785834Y-103295996D01*
X135819894Y-103399313D01*
X135851853Y-103467554D01*
X135924034Y-103589960D01*
X135968379Y-103672449D01*
X135985195Y-103717394D01*
X135974792Y-103727170D01*
X135937479Y-103704151D01*
X135875942Y-103652800D01*
X135786990Y-103552147D01*
X135715637Y-103428142D01*
X135666409Y-103294210D01*
X135643833Y-103163778D01*
X135652434Y-103050271D01*
X135662505Y-103019730D01*
X135685151Y-102976141D01*
X135704421Y-102968768D01*
X135722467Y-103001272D01*
G36*
X135488809Y-103086484D02*
G01*
X135508870Y-103133684D01*
X135515989Y-103175181D01*
X135551761Y-103305884D01*
X135620385Y-103444770D01*
X135712144Y-103572298D01*
X135715040Y-103575616D01*
X135774484Y-103669647D01*
X135788400Y-103745684D01*
X135782679Y-103816040D01*
X135764371Y-103839225D01*
X135731754Y-103815114D01*
X135683107Y-103743579D01*
X135679570Y-103737657D01*
X135614564Y-103632692D01*
X135558046Y-103549824D01*
X135514621Y-103495062D01*
X135488895Y-103474417D01*
X135483846Y-103482193D01*
X135498908Y-103520537D01*
X135537451Y-103581809D01*
X135573652Y-103630369D01*
X135620459Y-103697896D01*
X135647220Y-103753855D01*
X135649606Y-103778497D01*
X135637272Y-103817300D01*
X135636000Y-103825461D01*
X135621182Y-103815256D01*
X135583438Y-103776420D01*
X135556534Y-103746461D01*
X135507213Y-103680790D01*
X135481330Y-103613758D01*
X135470257Y-103521943D01*
X135469638Y-103510628D01*
X135460586Y-103415720D01*
X135445481Y-103330657D01*
X135434803Y-103293796D01*
X135410080Y-103202841D01*
X135408611Y-103128819D01*
X135429388Y-103082820D01*
X135454855Y-103073200D01*
X135488809Y-103086484D01*
X135488809Y-103086484D01*
G37*
X135488809Y-103086484D02*
X135508870Y-103133684D01*
X135515989Y-103175181D01*
X135551761Y-103305884D01*
X135620385Y-103444770D01*
X135712144Y-103572298D01*
X135715040Y-103575616D01*
X135774484Y-103669647D01*
X135788400Y-103745684D01*
X135782679Y-103816040D01*
X135764371Y-103839225D01*
X135731754Y-103815114D01*
X135683107Y-103743579D01*
X135679570Y-103737657D01*
X135614564Y-103632692D01*
X135558046Y-103549824D01*
X135514621Y-103495062D01*
X135488895Y-103474417D01*
X135483846Y-103482193D01*
X135498908Y-103520537D01*
X135537451Y-103581809D01*
X135573652Y-103630369D01*
X135620459Y-103697896D01*
X135647220Y-103753855D01*
X135649606Y-103778497D01*
X135637272Y-103817300D01*
X135636000Y-103825461D01*
X135621182Y-103815256D01*
X135583438Y-103776420D01*
X135556534Y-103746461D01*
X135507213Y-103680790D01*
X135481330Y-103613758D01*
X135470257Y-103521943D01*
X135469638Y-103510628D01*
X135460586Y-103415720D01*
X135445481Y-103330657D01*
X135434803Y-103293796D01*
X135410080Y-103202841D01*
X135408611Y-103128819D01*
X135429388Y-103082820D01*
X135454855Y-103073200D01*
X135488809Y-103086484D01*
G36*
X135226957Y-102254262D02*
G01*
X135332909Y-102271970D01*
X135409838Y-102286522D01*
X135494557Y-102306724D01*
X135588927Y-102335121D01*
X135680340Y-102367093D01*
X135756193Y-102398021D01*
X135803878Y-102423286D01*
X135813800Y-102434548D01*
X135833492Y-102458138D01*
X135881922Y-102492729D01*
X135892290Y-102499012D01*
X135942809Y-102538208D01*
X135948120Y-102567838D01*
X135946490Y-102569669D01*
X135898385Y-102593816D01*
X135815226Y-102613481D01*
X135712742Y-102625506D01*
X135657475Y-102627687D01*
X135600590Y-102632822D01*
X135575827Y-102644286D01*
X135576424Y-102647750D01*
X135609192Y-102665386D01*
X135623300Y-102666799D01*
X135667346Y-102683360D01*
X135674044Y-102724445D01*
X135647251Y-102770000D01*
X135623639Y-102805601D01*
X135630351Y-102819200D01*
X135663323Y-102839898D01*
X135675822Y-102890212D01*
X135665940Y-102952471D01*
X135648590Y-102988031D01*
X135606168Y-103052776D01*
X135568455Y-102998933D01*
X135530741Y-102945089D01*
X135483126Y-103002794D01*
X135448211Y-103039862D01*
X135417088Y-103045595D01*
X135367539Y-103022557D01*
X135357956Y-103017231D01*
X135306794Y-102995172D01*
X135281197Y-102997085D01*
X135280400Y-103000525D01*
X135265897Y-103037499D01*
X135230877Y-103090036D01*
X135229600Y-103091669D01*
X135193577Y-103150978D01*
X135178800Y-103201811D01*
X135161373Y-103255022D01*
X135121136Y-103303960D01*
X135076157Y-103327101D01*
X135073542Y-103327200D01*
X135069976Y-103310333D01*
X135094199Y-103268878D01*
X135100756Y-103260274D01*
X135143422Y-103199521D01*
X135150419Y-103173561D01*
X135123940Y-103183319D01*
X135066178Y-103229717D01*
X135054139Y-103240639D01*
X134935118Y-103350392D01*
X134848506Y-103431844D01*
X134789161Y-103490908D01*
X134751940Y-103533498D01*
X134731701Y-103565526D01*
X134723302Y-103592905D01*
X134721601Y-103621547D01*
X134721600Y-103623006D01*
X134697454Y-103723762D01*
X134628995Y-103808471D01*
X134568919Y-103848045D01*
X134491331Y-103880007D01*
X134434709Y-103877382D01*
X134381148Y-103838291D01*
X134370427Y-103827212D01*
X134331908Y-103780979D01*
X134315219Y-103750577D01*
X134315200Y-103750072D01*
X134332098Y-103725007D01*
X134377126Y-103674164D01*
X134441783Y-103606962D01*
X134467600Y-103581200D01*
X134536436Y-103514577D01*
X134589096Y-103466209D01*
X134617362Y-103443532D01*
X134620000Y-103443256D01*
X134611125Y-103472810D01*
X134589306Y-103529182D01*
X134584699Y-103540318D01*
X134531863Y-103631426D01*
X134463855Y-103700359D01*
X134393447Y-103734860D01*
X134380260Y-103736546D01*
X134346378Y-103740380D01*
X134361393Y-103748063D01*
X134373598Y-103751349D01*
X134443545Y-103744008D01*
X134515446Y-103687354D01*
X134587914Y-103582766D01*
X134632862Y-103493706D01*
X134690062Y-103381122D01*
X134740832Y-103311959D01*
X134790285Y-103280170D01*
X134816514Y-103276400D01*
X134814076Y-103292354D01*
X134793213Y-103320850D01*
X134760480Y-103368365D01*
X134723187Y-103435054D01*
X134688594Y-103505868D01*
X134663962Y-103565761D01*
X134656549Y-103599684D01*
X134657622Y-103601889D01*
X134673310Y-103586837D01*
X134703582Y-103536930D01*
X134737918Y-103470872D01*
X134790766Y-103377977D01*
X134847919Y-103316412D01*
X134921328Y-103270492D01*
X134989671Y-103229448D01*
X135036475Y-103190405D01*
X135047212Y-103174295D01*
X135047998Y-103154016D01*
X135022134Y-103169870D01*
X135009060Y-103181150D01*
X134967601Y-103212804D01*
X134931831Y-103219843D01*
X134890158Y-103198432D01*
X134830989Y-103144738D01*
X134797800Y-103111300D01*
X134732054Y-103041971D01*
X134704104Y-103006253D01*
X134713950Y-103003812D01*
X134761591Y-103034315D01*
X134797800Y-103060500D01*
X134867945Y-103103490D01*
X134924614Y-103122773D01*
X134958095Y-103116823D01*
X134959385Y-103085900D01*
X134960408Y-103077791D01*
X135010315Y-103077791D01*
X135016564Y-103085182D01*
X135039100Y-103096293D01*
X135085455Y-103117144D01*
X135113412Y-103118191D01*
X135151205Y-103099779D01*
X135155069Y-103097706D01*
X135194491Y-103065089D01*
X135204200Y-103042969D01*
X135189273Y-103034991D01*
X135158813Y-103055600D01*
X135093466Y-103085023D01*
X135050863Y-103084416D01*
X135010315Y-103077791D01*
X134960408Y-103077791D01*
X134963273Y-103055104D01*
X134998282Y-103047800D01*
X135043776Y-103035621D01*
X135045348Y-103006492D01*
X135008549Y-102975320D01*
X134980051Y-102948009D01*
X134995629Y-102914571D01*
X135013402Y-102876601D01*
X135009246Y-102861312D01*
X135011941Y-102845930D01*
X135022166Y-102844599D01*
X135048428Y-102865102D01*
X135051800Y-102882700D01*
X135068932Y-102909444D01*
X135125431Y-102920235D01*
X135151322Y-102920800D01*
X135247518Y-102915259D01*
X135303147Y-102894981D01*
X135327589Y-102854483D01*
X135331200Y-102815666D01*
X135323605Y-102756643D01*
X135304752Y-102685336D01*
X135280536Y-102618854D01*
X135256851Y-102574304D01*
X135244892Y-102565200D01*
X135245487Y-102585771D01*
X135262520Y-102637078D01*
X135270422Y-102656697D01*
X135293631Y-102730945D01*
X135301141Y-102794888D01*
X135300392Y-102802747D01*
X135291044Y-102821086D01*
X135274487Y-102793116D01*
X135254737Y-102734673D01*
X135218121Y-102635754D01*
X135183749Y-102585113D01*
X135152506Y-102583565D01*
X135129864Y-102619450D01*
X135112017Y-102652955D01*
X135104210Y-102647750D01*
X135081444Y-102623647D01*
X135045450Y-102617785D01*
X135005878Y-102620769D01*
X135015077Y-102630707D01*
X135039100Y-102641400D01*
X135073003Y-102657597D01*
X135070200Y-102667490D01*
X135024849Y-102677880D01*
X135004528Y-102681658D01*
X134961421Y-102682235D01*
X134957987Y-102657748D01*
X134958178Y-102657246D01*
X134955045Y-102631850D01*
X134926787Y-102633520D01*
X134885402Y-102624959D01*
X134851050Y-102571099D01*
X134850238Y-102569154D01*
X134842545Y-102539800D01*
X134988300Y-102539800D01*
X134990313Y-102563205D01*
X134999500Y-102565200D01*
X135014836Y-102554267D01*
X135648462Y-102554267D01*
X135657368Y-102559734D01*
X135674100Y-102560136D01*
X135738555Y-102552302D01*
X135788400Y-102539800D01*
X135826737Y-102525332D01*
X135817831Y-102519865D01*
X135801100Y-102519463D01*
X135736644Y-102527297D01*
X135686800Y-102539800D01*
X135648462Y-102554267D01*
X135014836Y-102554267D01*
X135025366Y-102546761D01*
X135026400Y-102539800D01*
X135017733Y-102515060D01*
X135015199Y-102514400D01*
X134993513Y-102532198D01*
X134988300Y-102539800D01*
X134842545Y-102539800D01*
X134833581Y-102505596D01*
X135587836Y-102505596D01*
X135597139Y-102504797D01*
X135628494Y-102486450D01*
X135665963Y-102457531D01*
X135665964Y-102457527D01*
X135723216Y-102457527D01*
X135748183Y-102461594D01*
X135781127Y-102456924D01*
X135781520Y-102448254D01*
X135747525Y-102442190D01*
X135732837Y-102446248D01*
X135723216Y-102457527D01*
X135665964Y-102457527D01*
X135672340Y-102440673D01*
X135648153Y-102447239D01*
X135616345Y-102474300D01*
X135587836Y-102505596D01*
X134833581Y-102505596D01*
X134827014Y-102480540D01*
X134831886Y-102463600D01*
X134874000Y-102463600D01*
X134883293Y-102484507D01*
X134890933Y-102480533D01*
X134893973Y-102450389D01*
X134890933Y-102446666D01*
X134875833Y-102450153D01*
X134874000Y-102463600D01*
X134831886Y-102463600D01*
X134844264Y-102420572D01*
X134903043Y-102385849D01*
X134907613Y-102384574D01*
X134966512Y-102356494D01*
X135181067Y-102356494D01*
X135200960Y-102361611D01*
X135222454Y-102369962D01*
X135205901Y-102398049D01*
X135191431Y-102432213D01*
X135221841Y-102460777D01*
X135271622Y-102478621D01*
X135332251Y-102487385D01*
X135384049Y-102485884D01*
X135407336Y-102472934D01*
X135407400Y-102471950D01*
X135392162Y-102442002D01*
X135365363Y-102408450D01*
X135343158Y-102372540D01*
X135356197Y-102362786D01*
X135394212Y-102382772D01*
X135407445Y-102393750D01*
X135430054Y-102412058D01*
X135419798Y-102394840D01*
X135410309Y-102382128D01*
X135361883Y-102350744D01*
X135297234Y-102350863D01*
X135248778Y-102356420D01*
X135246256Y-102350147D01*
X135267700Y-102338870D01*
X135296899Y-102319885D01*
X135280400Y-102313374D01*
X135226177Y-102325368D01*
X135204200Y-102336600D01*
X135181067Y-102356494D01*
X134966512Y-102356494D01*
X134976379Y-102351790D01*
X135038622Y-102301415D01*
X135070828Y-102271109D01*
X135106138Y-102253422D01*
X135154774Y-102247943D01*
X135226957Y-102254262D01*
X135226957Y-102254262D01*
G37*
X135226957Y-102254262D02*
X135332909Y-102271970D01*
X135409838Y-102286522D01*
X135494557Y-102306724D01*
X135588927Y-102335121D01*
X135680340Y-102367093D01*
X135756193Y-102398021D01*
X135803878Y-102423286D01*
X135813800Y-102434548D01*
X135833492Y-102458138D01*
X135881922Y-102492729D01*
X135892290Y-102499012D01*
X135942809Y-102538208D01*
X135948120Y-102567838D01*
X135946490Y-102569669D01*
X135898385Y-102593816D01*
X135815226Y-102613481D01*
X135712742Y-102625506D01*
X135657475Y-102627687D01*
X135600590Y-102632822D01*
X135575827Y-102644286D01*
X135576424Y-102647750D01*
X135609192Y-102665386D01*
X135623300Y-102666799D01*
X135667346Y-102683360D01*
X135674044Y-102724445D01*
X135647251Y-102770000D01*
X135623639Y-102805601D01*
X135630351Y-102819200D01*
X135663323Y-102839898D01*
X135675822Y-102890212D01*
X135665940Y-102952471D01*
X135648590Y-102988031D01*
X135606168Y-103052776D01*
X135568455Y-102998933D01*
X135530741Y-102945089D01*
X135483126Y-103002794D01*
X135448211Y-103039862D01*
X135417088Y-103045595D01*
X135367539Y-103022557D01*
X135357956Y-103017231D01*
X135306794Y-102995172D01*
X135281197Y-102997085D01*
X135280400Y-103000525D01*
X135265897Y-103037499D01*
X135230877Y-103090036D01*
X135229600Y-103091669D01*
X135193577Y-103150978D01*
X135178800Y-103201811D01*
X135161373Y-103255022D01*
X135121136Y-103303960D01*
X135076157Y-103327101D01*
X135073542Y-103327200D01*
X135069976Y-103310333D01*
X135094199Y-103268878D01*
X135100756Y-103260274D01*
X135143422Y-103199521D01*
X135150419Y-103173561D01*
X135123940Y-103183319D01*
X135066178Y-103229717D01*
X135054139Y-103240639D01*
X134935118Y-103350392D01*
X134848506Y-103431844D01*
X134789161Y-103490908D01*
X134751940Y-103533498D01*
X134731701Y-103565526D01*
X134723302Y-103592905D01*
X134721601Y-103621547D01*
X134721600Y-103623006D01*
X134697454Y-103723762D01*
X134628995Y-103808471D01*
X134568919Y-103848045D01*
X134491331Y-103880007D01*
X134434709Y-103877382D01*
X134381148Y-103838291D01*
X134370427Y-103827212D01*
X134331908Y-103780979D01*
X134315219Y-103750577D01*
X134315200Y-103750072D01*
X134332098Y-103725007D01*
X134377126Y-103674164D01*
X134441783Y-103606962D01*
X134467600Y-103581200D01*
X134536436Y-103514577D01*
X134589096Y-103466209D01*
X134617362Y-103443532D01*
X134620000Y-103443256D01*
X134611125Y-103472810D01*
X134589306Y-103529182D01*
X134584699Y-103540318D01*
X134531863Y-103631426D01*
X134463855Y-103700359D01*
X134393447Y-103734860D01*
X134380260Y-103736546D01*
X134346378Y-103740380D01*
X134361393Y-103748063D01*
X134373598Y-103751349D01*
X134443545Y-103744008D01*
X134515446Y-103687354D01*
X134587914Y-103582766D01*
X134632862Y-103493706D01*
X134690062Y-103381122D01*
X134740832Y-103311959D01*
X134790285Y-103280170D01*
X134816514Y-103276400D01*
X134814076Y-103292354D01*
X134793213Y-103320850D01*
X134760480Y-103368365D01*
X134723187Y-103435054D01*
X134688594Y-103505868D01*
X134663962Y-103565761D01*
X134656549Y-103599684D01*
X134657622Y-103601889D01*
X134673310Y-103586837D01*
X134703582Y-103536930D01*
X134737918Y-103470872D01*
X134790766Y-103377977D01*
X134847919Y-103316412D01*
X134921328Y-103270492D01*
X134989671Y-103229448D01*
X135036475Y-103190405D01*
X135047212Y-103174295D01*
X135047998Y-103154016D01*
X135022134Y-103169870D01*
X135009060Y-103181150D01*
X134967601Y-103212804D01*
X134931831Y-103219843D01*
X134890158Y-103198432D01*
X134830989Y-103144738D01*
X134797800Y-103111300D01*
X134732054Y-103041971D01*
X134704104Y-103006253D01*
X134713950Y-103003812D01*
X134761591Y-103034315D01*
X134797800Y-103060500D01*
X134867945Y-103103490D01*
X134924614Y-103122773D01*
X134958095Y-103116823D01*
X134959385Y-103085900D01*
X134960408Y-103077791D01*
X135010315Y-103077791D01*
X135016564Y-103085182D01*
X135039100Y-103096293D01*
X135085455Y-103117144D01*
X135113412Y-103118191D01*
X135151205Y-103099779D01*
X135155069Y-103097706D01*
X135194491Y-103065089D01*
X135204200Y-103042969D01*
X135189273Y-103034991D01*
X135158813Y-103055600D01*
X135093466Y-103085023D01*
X135050863Y-103084416D01*
X135010315Y-103077791D01*
X134960408Y-103077791D01*
X134963273Y-103055104D01*
X134998282Y-103047800D01*
X135043776Y-103035621D01*
X135045348Y-103006492D01*
X135008549Y-102975320D01*
X134980051Y-102948009D01*
X134995629Y-102914571D01*
X135013402Y-102876601D01*
X135009246Y-102861312D01*
X135011941Y-102845930D01*
X135022166Y-102844599D01*
X135048428Y-102865102D01*
X135051800Y-102882700D01*
X135068932Y-102909444D01*
X135125431Y-102920235D01*
X135151322Y-102920800D01*
X135247518Y-102915259D01*
X135303147Y-102894981D01*
X135327589Y-102854483D01*
X135331200Y-102815666D01*
X135323605Y-102756643D01*
X135304752Y-102685336D01*
X135280536Y-102618854D01*
X135256851Y-102574304D01*
X135244892Y-102565200D01*
X135245487Y-102585771D01*
X135262520Y-102637078D01*
X135270422Y-102656697D01*
X135293631Y-102730945D01*
X135301141Y-102794888D01*
X135300392Y-102802747D01*
X135291044Y-102821086D01*
X135274487Y-102793116D01*
X135254737Y-102734673D01*
X135218121Y-102635754D01*
X135183749Y-102585113D01*
X135152506Y-102583565D01*
X135129864Y-102619450D01*
X135112017Y-102652955D01*
X135104210Y-102647750D01*
X135081444Y-102623647D01*
X135045450Y-102617785D01*
X135005878Y-102620769D01*
X135015077Y-102630707D01*
X135039100Y-102641400D01*
X135073003Y-102657597D01*
X135070200Y-102667490D01*
X135024849Y-102677880D01*
X135004528Y-102681658D01*
X134961421Y-102682235D01*
X134957987Y-102657748D01*
X134958178Y-102657246D01*
X134955045Y-102631850D01*
X134926787Y-102633520D01*
X134885402Y-102624959D01*
X134851050Y-102571099D01*
X134850238Y-102569154D01*
X134842545Y-102539800D01*
X134988300Y-102539800D01*
X134990313Y-102563205D01*
X134999500Y-102565200D01*
X135014836Y-102554267D01*
X135648462Y-102554267D01*
X135657368Y-102559734D01*
X135674100Y-102560136D01*
X135738555Y-102552302D01*
X135788400Y-102539800D01*
X135826737Y-102525332D01*
X135817831Y-102519865D01*
X135801100Y-102519463D01*
X135736644Y-102527297D01*
X135686800Y-102539800D01*
X135648462Y-102554267D01*
X135014836Y-102554267D01*
X135025366Y-102546761D01*
X135026400Y-102539800D01*
X135017733Y-102515060D01*
X135015199Y-102514400D01*
X134993513Y-102532198D01*
X134988300Y-102539800D01*
X134842545Y-102539800D01*
X134833581Y-102505596D01*
X135587836Y-102505596D01*
X135597139Y-102504797D01*
X135628494Y-102486450D01*
X135665963Y-102457531D01*
X135665964Y-102457527D01*
X135723216Y-102457527D01*
X135748183Y-102461594D01*
X135781127Y-102456924D01*
X135781520Y-102448254D01*
X135747525Y-102442190D01*
X135732837Y-102446248D01*
X135723216Y-102457527D01*
X135665964Y-102457527D01*
X135672340Y-102440673D01*
X135648153Y-102447239D01*
X135616345Y-102474300D01*
X135587836Y-102505596D01*
X134833581Y-102505596D01*
X134827014Y-102480540D01*
X134831886Y-102463600D01*
X134874000Y-102463600D01*
X134883293Y-102484507D01*
X134890933Y-102480533D01*
X134893973Y-102450389D01*
X134890933Y-102446666D01*
X134875833Y-102450153D01*
X134874000Y-102463600D01*
X134831886Y-102463600D01*
X134844264Y-102420572D01*
X134903043Y-102385849D01*
X134907613Y-102384574D01*
X134966512Y-102356494D01*
X135181067Y-102356494D01*
X135200960Y-102361611D01*
X135222454Y-102369962D01*
X135205901Y-102398049D01*
X135191431Y-102432213D01*
X135221841Y-102460777D01*
X135271622Y-102478621D01*
X135332251Y-102487385D01*
X135384049Y-102485884D01*
X135407336Y-102472934D01*
X135407400Y-102471950D01*
X135392162Y-102442002D01*
X135365363Y-102408450D01*
X135343158Y-102372540D01*
X135356197Y-102362786D01*
X135394212Y-102382772D01*
X135407445Y-102393750D01*
X135430054Y-102412058D01*
X135419798Y-102394840D01*
X135410309Y-102382128D01*
X135361883Y-102350744D01*
X135297234Y-102350863D01*
X135248778Y-102356420D01*
X135246256Y-102350147D01*
X135267700Y-102338870D01*
X135296899Y-102319885D01*
X135280400Y-102313374D01*
X135226177Y-102325368D01*
X135204200Y-102336600D01*
X135181067Y-102356494D01*
X134966512Y-102356494D01*
X134976379Y-102351790D01*
X135038622Y-102301415D01*
X135070828Y-102271109D01*
X135106138Y-102253422D01*
X135154774Y-102247943D01*
X135226957Y-102254262D01*
G36*
X135226317Y-103464730D02*
G01*
X135232835Y-103524525D01*
X135234965Y-103571739D01*
X135238461Y-103706247D01*
X135236760Y-103800233D01*
X135228644Y-103863821D01*
X135212894Y-103907133D01*
X135190963Y-103937392D01*
X135121331Y-103979484D01*
X135036158Y-103980168D01*
X135010019Y-103971667D01*
X134993134Y-103938848D01*
X135001748Y-103891123D01*
X135017740Y-103828048D01*
X135036910Y-103738208D01*
X135049530Y-103671718D01*
X135072118Y-103568125D01*
X135093561Y-103507126D01*
X135111134Y-103490222D01*
X135122113Y-103518913D01*
X135123770Y-103594700D01*
X135121688Y-103632000D01*
X135112552Y-103726325D01*
X135100468Y-103805940D01*
X135089886Y-103847900D01*
X135079574Y-103881701D01*
X135095378Y-103874620D01*
X135104407Y-103866483D01*
X135125181Y-103822619D01*
X135141352Y-103740658D01*
X135149068Y-103657701D01*
X135160264Y-103549984D01*
X135178685Y-103476927D01*
X135194322Y-103451857D01*
X135214416Y-103443268D01*
X135226317Y-103464730D01*
X135226317Y-103464730D01*
G37*
X135226317Y-103464730D02*
X135232835Y-103524525D01*
X135234965Y-103571739D01*
X135238461Y-103706247D01*
X135236760Y-103800233D01*
X135228644Y-103863821D01*
X135212894Y-103907133D01*
X135190963Y-103937392D01*
X135121331Y-103979484D01*
X135036158Y-103980168D01*
X135010019Y-103971667D01*
X134993134Y-103938848D01*
X135001748Y-103891123D01*
X135017740Y-103828048D01*
X135036910Y-103738208D01*
X135049530Y-103671718D01*
X135072118Y-103568125D01*
X135093561Y-103507126D01*
X135111134Y-103490222D01*
X135122113Y-103518913D01*
X135123770Y-103594700D01*
X135121688Y-103632000D01*
X135112552Y-103726325D01*
X135100468Y-103805940D01*
X135089886Y-103847900D01*
X135079574Y-103881701D01*
X135095378Y-103874620D01*
X135104407Y-103866483D01*
X135125181Y-103822619D01*
X135141352Y-103740658D01*
X135149068Y-103657701D01*
X135160264Y-103549984D01*
X135178685Y-103476927D01*
X135194322Y-103451857D01*
X135214416Y-103443268D01*
X135226317Y-103464730D01*
G36*
X134999172Y-103372602D02*
G01*
X134999395Y-103415297D01*
X134988040Y-103454710D01*
X134979405Y-103464547D01*
X134961955Y-103493703D01*
X134935525Y-103558615D01*
X134905326Y-103646259D01*
X134900063Y-103662896D01*
X134868856Y-103756515D01*
X134839756Y-103832960D01*
X134818447Y-103877459D01*
X134816438Y-103880263D01*
X134801270Y-103915773D01*
X134805007Y-103927074D01*
X134825337Y-103918663D01*
X134854395Y-103872273D01*
X134886867Y-103798741D01*
X134917436Y-103708909D01*
X134924800Y-103682800D01*
X134952232Y-103595285D01*
X134983247Y-103516193D01*
X134992044Y-103497819D01*
X135028582Y-103448477D01*
X135054863Y-103444893D01*
X135060439Y-103482025D01*
X135048267Y-103524949D01*
X135030601Y-103587105D01*
X135012388Y-103677774D01*
X135000419Y-103756530D01*
X134982181Y-103859883D01*
X134954935Y-103930558D01*
X134911514Y-103986644D01*
X134907731Y-103990445D01*
X134845235Y-104035365D01*
X134768068Y-104068342D01*
X134691888Y-104085386D01*
X134632353Y-104082504D01*
X134609019Y-104066582D01*
X134614555Y-104033155D01*
X134650827Y-103987890D01*
X134658488Y-103981008D01*
X134697473Y-103938907D01*
X134721033Y-103885468D01*
X134735130Y-103804354D01*
X134739610Y-103758712D01*
X134752478Y-103660694D01*
X134771348Y-103573823D01*
X134788168Y-103526052D01*
X134825080Y-103474987D01*
X134880403Y-103419731D01*
X134938109Y-103374347D01*
X134982167Y-103352897D01*
X134985871Y-103352600D01*
X134999172Y-103372602D01*
X134999172Y-103372602D01*
G37*
X134999172Y-103372602D02*
X134999395Y-103415297D01*
X134988040Y-103454710D01*
X134979405Y-103464547D01*
X134961955Y-103493703D01*
X134935525Y-103558615D01*
X134905326Y-103646259D01*
X134900063Y-103662896D01*
X134868856Y-103756515D01*
X134839756Y-103832960D01*
X134818447Y-103877459D01*
X134816438Y-103880263D01*
X134801270Y-103915773D01*
X134805007Y-103927074D01*
X134825337Y-103918663D01*
X134854395Y-103872273D01*
X134886867Y-103798741D01*
X134917436Y-103708909D01*
X134924800Y-103682800D01*
X134952232Y-103595285D01*
X134983247Y-103516193D01*
X134992044Y-103497819D01*
X135028582Y-103448477D01*
X135054863Y-103444893D01*
X135060439Y-103482025D01*
X135048267Y-103524949D01*
X135030601Y-103587105D01*
X135012388Y-103677774D01*
X135000419Y-103756530D01*
X134982181Y-103859883D01*
X134954935Y-103930558D01*
X134911514Y-103986644D01*
X134907731Y-103990445D01*
X134845235Y-104035365D01*
X134768068Y-104068342D01*
X134691888Y-104085386D01*
X134632353Y-104082504D01*
X134609019Y-104066582D01*
X134614555Y-104033155D01*
X134650827Y-103987890D01*
X134658488Y-103981008D01*
X134697473Y-103938907D01*
X134721033Y-103885468D01*
X134735130Y-103804354D01*
X134739610Y-103758712D01*
X134752478Y-103660694D01*
X134771348Y-103573823D01*
X134788168Y-103526052D01*
X134825080Y-103474987D01*
X134880403Y-103419731D01*
X134938109Y-103374347D01*
X134982167Y-103352897D01*
X134985871Y-103352600D01*
X134999172Y-103372602D01*
G36*
X135368579Y-103096410D02*
G01*
X135380054Y-103157549D01*
X135390548Y-103243880D01*
X135391399Y-103252827D01*
X135405468Y-103365813D01*
X135427567Y-103501985D01*
X135453384Y-103635252D01*
X135458547Y-103658958D01*
X135487352Y-103795307D01*
X135502818Y-103892736D01*
X135504895Y-103961359D01*
X135493528Y-104011288D01*
X135468666Y-104052636D01*
X135456429Y-104067336D01*
X135403859Y-104127300D01*
X135419318Y-104055438D01*
X135420340Y-103992023D01*
X135406786Y-103897206D01*
X135382599Y-103793387D01*
X135354486Y-103671154D01*
X135339454Y-103548374D01*
X135335393Y-103404269D01*
X135336317Y-103338199D01*
X135340194Y-103229092D01*
X135346054Y-103141800D01*
X135353018Y-103086852D01*
X135358458Y-103073200D01*
X135368579Y-103096410D01*
X135368579Y-103096410D01*
G37*
X135368579Y-103096410D02*
X135380054Y-103157549D01*
X135390548Y-103243880D01*
X135391399Y-103252827D01*
X135405468Y-103365813D01*
X135427567Y-103501985D01*
X135453384Y-103635252D01*
X135458547Y-103658958D01*
X135487352Y-103795307D01*
X135502818Y-103892736D01*
X135504895Y-103961359D01*
X135493528Y-104011288D01*
X135468666Y-104052636D01*
X135456429Y-104067336D01*
X135403859Y-104127300D01*
X135419318Y-104055438D01*
X135420340Y-103992023D01*
X135406786Y-103897206D01*
X135382599Y-103793387D01*
X135354486Y-103671154D01*
X135339454Y-103548374D01*
X135335393Y-103404269D01*
X135336317Y-103338199D01*
X135340194Y-103229092D01*
X135346054Y-103141800D01*
X135353018Y-103086852D01*
X135358458Y-103073200D01*
X135368579Y-103096410D01*
G36*
X134701405Y-103853190D02*
G01*
X134673323Y-103910218D01*
X134621058Y-103965341D01*
X134616720Y-103968640D01*
X134568024Y-104012517D01*
X134544259Y-104049385D01*
X134543800Y-104053159D01*
X134522088Y-104088561D01*
X134469345Y-104109379D01*
X134404155Y-104111927D01*
X134345159Y-104092555D01*
X134332455Y-104069949D01*
X134353684Y-104032183D01*
X134391563Y-103991344D01*
X134447230Y-103942511D01*
X134492701Y-103914227D01*
X134504109Y-103911400D01*
X134544369Y-103897991D01*
X134604988Y-103864536D01*
X134624940Y-103851526D01*
X134713169Y-103791652D01*
X134701405Y-103853190D01*
X134701405Y-103853190D01*
G37*
X134701405Y-103853190D02*
X134673323Y-103910218D01*
X134621058Y-103965341D01*
X134616720Y-103968640D01*
X134568024Y-104012517D01*
X134544259Y-104049385D01*
X134543800Y-104053159D01*
X134522088Y-104088561D01*
X134469345Y-104109379D01*
X134404155Y-104111927D01*
X134345159Y-104092555D01*
X134332455Y-104069949D01*
X134353684Y-104032183D01*
X134391563Y-103991344D01*
X134447230Y-103942511D01*
X134492701Y-103914227D01*
X134504109Y-103911400D01*
X134544369Y-103897991D01*
X134604988Y-103864536D01*
X134624940Y-103851526D01*
X134713169Y-103791652D01*
X134701405Y-103853190D01*
G36*
X135299931Y-103431502D02*
G01*
X135311266Y-103500822D01*
X135317811Y-103559096D01*
X135327394Y-103674061D01*
X135333405Y-103789550D01*
X135334564Y-103873300D01*
X135331010Y-104014253D01*
X135326521Y-104134559D01*
X135321518Y-104226058D01*
X135316418Y-104280591D01*
X135313040Y-104292400D01*
X135291996Y-104276593D01*
X135255000Y-104241600D01*
X135222786Y-104202185D01*
X135208129Y-104157880D01*
X135210527Y-104096116D01*
X135229476Y-104004325D01*
X135243327Y-103949653D01*
X135269951Y-103782621D01*
X135265747Y-103629885D01*
X135260378Y-103531259D01*
X135264250Y-103453178D01*
X135273789Y-103416115D01*
X135287965Y-103404979D01*
X135299931Y-103431502D01*
X135299931Y-103431502D01*
G37*
X135299931Y-103431502D02*
X135311266Y-103500822D01*
X135317811Y-103559096D01*
X135327394Y-103674061D01*
X135333405Y-103789550D01*
X135334564Y-103873300D01*
X135331010Y-104014253D01*
X135326521Y-104134559D01*
X135321518Y-104226058D01*
X135316418Y-104280591D01*
X135313040Y-104292400D01*
X135291996Y-104276593D01*
X135255000Y-104241600D01*
X135222786Y-104202185D01*
X135208129Y-104157880D01*
X135210527Y-104096116D01*
X135229476Y-104004325D01*
X135243327Y-103949653D01*
X135269951Y-103782621D01*
X135265747Y-103629885D01*
X135260378Y-103531259D01*
X135264250Y-103453178D01*
X135273789Y-103416115D01*
X135287965Y-103404979D01*
X135299931Y-103431502D01*
G36*
X134917687Y-104358634D02*
G01*
X134900117Y-104394000D01*
X134868599Y-104451499D01*
X134853263Y-104467793D01*
X134848697Y-104447657D01*
X134848600Y-104439443D01*
X134866754Y-104392297D01*
X134890858Y-104365360D01*
X134918373Y-104345205D01*
X134917687Y-104358634D01*
X134917687Y-104358634D01*
G37*
X134917687Y-104358634D02*
X134900117Y-104394000D01*
X134868599Y-104451499D01*
X134853263Y-104467793D01*
X134848697Y-104447657D01*
X134848600Y-104439443D01*
X134866754Y-104392297D01*
X134890858Y-104365360D01*
X134918373Y-104345205D01*
X134917687Y-104358634D01*
G36*
X133474971Y-105129250D02*
G01*
X133477000Y-105144799D01*
X133462798Y-105177627D01*
X133451600Y-105181400D01*
X133431162Y-105160062D01*
X133426200Y-105129100D01*
X133435977Y-105093979D01*
X133451600Y-105092500D01*
X133474971Y-105129250D01*
X133474971Y-105129250D01*
G37*
X133474971Y-105129250D02*
X133477000Y-105144799D01*
X133462798Y-105177627D01*
X133451600Y-105181400D01*
X133431162Y-105160062D01*
X133426200Y-105129100D01*
X133435977Y-105093979D01*
X133451600Y-105092500D01*
X133474971Y-105129250D01*
G36*
X136062984Y-105449967D02*
G01*
X136064307Y-105482154D01*
X136037342Y-105492158D01*
X135994969Y-105475537D01*
X135955440Y-105450727D01*
X135958632Y-105435416D01*
X135980166Y-105425728D01*
X136030409Y-105423686D01*
X136062984Y-105449967D01*
X136062984Y-105449967D01*
G37*
X136062984Y-105449967D02*
X136064307Y-105482154D01*
X136037342Y-105492158D01*
X135994969Y-105475537D01*
X135955440Y-105450727D01*
X135958632Y-105435416D01*
X135980166Y-105425728D01*
X136030409Y-105423686D01*
X136062984Y-105449967D01*
G36*
X135058752Y-105529323D02*
G01*
X135065136Y-105538029D01*
X135072791Y-105580968D01*
X135063462Y-105635561D01*
X135043163Y-105678590D01*
X135025916Y-105689400D01*
X135008287Y-105667360D01*
X135001000Y-105614699D01*
X135009990Y-105553243D01*
X135031815Y-105521708D01*
X135058752Y-105529323D01*
X135058752Y-105529323D01*
G37*
X135058752Y-105529323D02*
X135065136Y-105538029D01*
X135072791Y-105580968D01*
X135063462Y-105635561D01*
X135043163Y-105678590D01*
X135025916Y-105689400D01*
X135008287Y-105667360D01*
X135001000Y-105614699D01*
X135009990Y-105553243D01*
X135031815Y-105521708D01*
X135058752Y-105529323D01*
G36*
X135125373Y-104889513D02*
G01*
X135182809Y-104902275D01*
X135196665Y-104915571D01*
X135173555Y-104937748D01*
X135167274Y-104942382D01*
X135109220Y-104971168D01*
X135072345Y-104978200D01*
X135032320Y-104989965D01*
X135035264Y-105020776D01*
X135080367Y-105063903D01*
X135082851Y-105065659D01*
X135155027Y-105100313D01*
X135223134Y-105092906D01*
X135300894Y-105041929D01*
X135301167Y-105041700D01*
X135352508Y-105001052D01*
X135385854Y-104979329D01*
X135389638Y-104978200D01*
X135395268Y-104998001D01*
X135385991Y-105043617D01*
X135367359Y-105094361D01*
X135350744Y-105123137D01*
X135339482Y-105167846D01*
X135367951Y-105200643D01*
X135397910Y-105206800D01*
X135419497Y-105213844D01*
X135423174Y-105241199D01*
X135408018Y-105298195D01*
X135381523Y-105371900D01*
X135332292Y-105448417D01*
X135258981Y-105502292D01*
X135177030Y-105525799D01*
X135102529Y-105511562D01*
X135049740Y-105483310D01*
X135104883Y-105438658D01*
X135151799Y-105371071D01*
X135179370Y-105268653D01*
X135188774Y-105194802D01*
X135191402Y-105144815D01*
X135189355Y-105133314D01*
X135179942Y-105135370D01*
X135168039Y-105166241D01*
X135151041Y-105234060D01*
X135137350Y-105295700D01*
X135103894Y-105382299D01*
X135060306Y-105421444D01*
X135011123Y-105470211D01*
X134982603Y-105562022D01*
X134975600Y-105661523D01*
X134957489Y-105755456D01*
X134902583Y-105814767D01*
X134810023Y-105840237D01*
X134777309Y-105841411D01*
X134698292Y-105836651D01*
X134637811Y-105825093D01*
X134622993Y-105818787D01*
X134605921Y-105804217D01*
X134613712Y-105791952D01*
X134654267Y-105778104D01*
X134735481Y-105758784D01*
X134752616Y-105754960D01*
X134815279Y-105723990D01*
X134851469Y-105684038D01*
X134864896Y-105638678D01*
X134875173Y-105566946D01*
X134881824Y-105482151D01*
X134884376Y-105397603D01*
X134882352Y-105326613D01*
X134875277Y-105282492D01*
X134866058Y-105275221D01*
X134856549Y-105305211D01*
X134851636Y-105371398D01*
X134852321Y-105457110D01*
X134852414Y-105576040D01*
X134840216Y-105650411D01*
X134814511Y-105685243D01*
X134796085Y-105689400D01*
X134788727Y-105671833D01*
X134803144Y-105639481D01*
X134818631Y-105599741D01*
X134815613Y-105547766D01*
X134792820Y-105467611D01*
X134788421Y-105454534D01*
X134742524Y-105319506D01*
X134809107Y-105194279D01*
X134851478Y-105120764D01*
X134889210Y-105065667D01*
X134906595Y-105047092D01*
X134920970Y-105032008D01*
X134899400Y-105035248D01*
X134864875Y-105063136D01*
X134826307Y-105119917D01*
X134816881Y-105138290D01*
X134757653Y-105218090D01*
X134681566Y-105253223D01*
X134595859Y-105240976D01*
X134572996Y-105229755D01*
X134522801Y-105193036D01*
X134497792Y-105159156D01*
X134502223Y-105138695D01*
X134537439Y-105141281D01*
X134619609Y-105142363D01*
X134702797Y-105100208D01*
X134775436Y-105020794D01*
X134777890Y-105017034D01*
X134858581Y-104936255D01*
X134968151Y-104890883D01*
X135095492Y-104884996D01*
X135125373Y-104889513D01*
X135125373Y-104889513D01*
G37*
X135125373Y-104889513D02*
X135182809Y-104902275D01*
X135196665Y-104915571D01*
X135173555Y-104937748D01*
X135167274Y-104942382D01*
X135109220Y-104971168D01*
X135072345Y-104978200D01*
X135032320Y-104989965D01*
X135035264Y-105020776D01*
X135080367Y-105063903D01*
X135082851Y-105065659D01*
X135155027Y-105100313D01*
X135223134Y-105092906D01*
X135300894Y-105041929D01*
X135301167Y-105041700D01*
X135352508Y-105001052D01*
X135385854Y-104979329D01*
X135389638Y-104978200D01*
X135395268Y-104998001D01*
X135385991Y-105043617D01*
X135367359Y-105094361D01*
X135350744Y-105123137D01*
X135339482Y-105167846D01*
X135367951Y-105200643D01*
X135397910Y-105206800D01*
X135419497Y-105213844D01*
X135423174Y-105241199D01*
X135408018Y-105298195D01*
X135381523Y-105371900D01*
X135332292Y-105448417D01*
X135258981Y-105502292D01*
X135177030Y-105525799D01*
X135102529Y-105511562D01*
X135049740Y-105483310D01*
X135104883Y-105438658D01*
X135151799Y-105371071D01*
X135179370Y-105268653D01*
X135188774Y-105194802D01*
X135191402Y-105144815D01*
X135189355Y-105133314D01*
X135179942Y-105135370D01*
X135168039Y-105166241D01*
X135151041Y-105234060D01*
X135137350Y-105295700D01*
X135103894Y-105382299D01*
X135060306Y-105421444D01*
X135011123Y-105470211D01*
X134982603Y-105562022D01*
X134975600Y-105661523D01*
X134957489Y-105755456D01*
X134902583Y-105814767D01*
X134810023Y-105840237D01*
X134777309Y-105841411D01*
X134698292Y-105836651D01*
X134637811Y-105825093D01*
X134622993Y-105818787D01*
X134605921Y-105804217D01*
X134613712Y-105791952D01*
X134654267Y-105778104D01*
X134735481Y-105758784D01*
X134752616Y-105754960D01*
X134815279Y-105723990D01*
X134851469Y-105684038D01*
X134864896Y-105638678D01*
X134875173Y-105566946D01*
X134881824Y-105482151D01*
X134884376Y-105397603D01*
X134882352Y-105326613D01*
X134875277Y-105282492D01*
X134866058Y-105275221D01*
X134856549Y-105305211D01*
X134851636Y-105371398D01*
X134852321Y-105457110D01*
X134852414Y-105576040D01*
X134840216Y-105650411D01*
X134814511Y-105685243D01*
X134796085Y-105689400D01*
X134788727Y-105671833D01*
X134803144Y-105639481D01*
X134818631Y-105599741D01*
X134815613Y-105547766D01*
X134792820Y-105467611D01*
X134788421Y-105454534D01*
X134742524Y-105319506D01*
X134809107Y-105194279D01*
X134851478Y-105120764D01*
X134889210Y-105065667D01*
X134906595Y-105047092D01*
X134920970Y-105032008D01*
X134899400Y-105035248D01*
X134864875Y-105063136D01*
X134826307Y-105119917D01*
X134816881Y-105138290D01*
X134757653Y-105218090D01*
X134681566Y-105253223D01*
X134595859Y-105240976D01*
X134572996Y-105229755D01*
X134522801Y-105193036D01*
X134497792Y-105159156D01*
X134502223Y-105138695D01*
X134537439Y-105141281D01*
X134619609Y-105142363D01*
X134702797Y-105100208D01*
X134775436Y-105020794D01*
X134777890Y-105017034D01*
X134858581Y-104936255D01*
X134968151Y-104890883D01*
X135095492Y-104884996D01*
X135125373Y-104889513D01*
G36*
X134365315Y-106165973D02*
G01*
X134366000Y-106172000D01*
X134345325Y-106194291D01*
X134326400Y-106197400D01*
X134300110Y-106185086D01*
X134302500Y-106172000D01*
X134334972Y-106147568D01*
X134342099Y-106146600D01*
X134365315Y-106165973D01*
X134365315Y-106165973D01*
G37*
X134365315Y-106165973D02*
X134366000Y-106172000D01*
X134345325Y-106194291D01*
X134326400Y-106197400D01*
X134300110Y-106185086D01*
X134302500Y-106172000D01*
X134334972Y-106147568D01*
X134342099Y-106146600D01*
X134365315Y-106165973D01*
G36*
X136448696Y-106198043D02*
G01*
X136436157Y-106247674D01*
X136397708Y-106297648D01*
X136342566Y-106335743D01*
X136283700Y-106349800D01*
X136235965Y-106341105D01*
X136220200Y-106324400D01*
X136234308Y-106303599D01*
X136239250Y-106304032D01*
X136297817Y-106297295D01*
X136355311Y-106260041D01*
X136387950Y-106208582D01*
X136407025Y-106167410D01*
X136426109Y-106160974D01*
X136448696Y-106198043D01*
X136448696Y-106198043D01*
G37*
X136448696Y-106198043D02*
X136436157Y-106247674D01*
X136397708Y-106297648D01*
X136342566Y-106335743D01*
X136283700Y-106349800D01*
X136235965Y-106341105D01*
X136220200Y-106324400D01*
X136234308Y-106303599D01*
X136239250Y-106304032D01*
X136297817Y-106297295D01*
X136355311Y-106260041D01*
X136387950Y-106208582D01*
X136407025Y-106167410D01*
X136426109Y-106160974D01*
X136448696Y-106198043D01*
G36*
X136136788Y-104669475D02*
G01*
X136258101Y-104689203D01*
X136374473Y-104722468D01*
X136448385Y-104751659D01*
X136487521Y-104780814D01*
X136499570Y-104813968D01*
X136499600Y-104816011D01*
X136487268Y-104842193D01*
X136442726Y-104842454D01*
X136427322Y-104839361D01*
X136357100Y-104836631D01*
X136255327Y-104847815D01*
X136138270Y-104869675D01*
X136022192Y-104898972D01*
X135923360Y-104932465D01*
X135893655Y-104945645D01*
X135813810Y-105006552D01*
X135749983Y-105094315D01*
X135715807Y-105188699D01*
X135713420Y-105213150D01*
X135731272Y-105265615D01*
X135775167Y-105319364D01*
X135826881Y-105354628D01*
X135848047Y-105359200D01*
X135877504Y-105337749D01*
X135912599Y-105283480D01*
X135927735Y-105251250D01*
X135973176Y-105143300D01*
X135999437Y-105254760D01*
X136013187Y-105326802D01*
X136008788Y-105368246D01*
X135983682Y-105396840D01*
X135978394Y-105400810D01*
X135895758Y-105432515D01*
X135806560Y-105422329D01*
X135752300Y-105391491D01*
X135737940Y-105383276D01*
X135754835Y-105406982D01*
X135788400Y-105445320D01*
X135857302Y-105510392D01*
X135929447Y-105562682D01*
X135957710Y-105577575D01*
X136026752Y-105632373D01*
X136062050Y-105714597D01*
X136057340Y-105808947D01*
X136055281Y-105815829D01*
X136019560Y-105856177D01*
X135958943Y-105866270D01*
X135891355Y-105843183D01*
X135890580Y-105842696D01*
X135842484Y-105837222D01*
X135807874Y-105859862D01*
X135771275Y-105887314D01*
X135756494Y-105890327D01*
X135682743Y-105753480D01*
X135641023Y-105643665D01*
X135633949Y-105613565D01*
X135616441Y-105524300D01*
X135613520Y-105608167D01*
X135624651Y-105684088D01*
X135655950Y-105769066D01*
X135667088Y-105790186D01*
X135723577Y-105888338D01*
X135655313Y-106036519D01*
X135618127Y-106122433D01*
X135590384Y-106196153D01*
X135579426Y-106235500D01*
X135563365Y-106276659D01*
X135539745Y-106273977D01*
X135516329Y-106232045D01*
X135505993Y-106192049D01*
X135494905Y-106144860D01*
X135487628Y-106135237D01*
X135486943Y-106138864D01*
X135463751Y-106170441D01*
X135413981Y-106202595D01*
X135351709Y-106250480D01*
X135309481Y-106308739D01*
X135278192Y-106352082D01*
X135252105Y-106348111D01*
X135234894Y-106300286D01*
X135229988Y-106233827D01*
X135237660Y-106179954D01*
X135269315Y-106139130D01*
X135334054Y-106097247D01*
X135403256Y-106063113D01*
X135442548Y-106057689D01*
X135458095Y-106070230D01*
X135473279Y-106070846D01*
X135486104Y-106026066D01*
X135489229Y-106003610D01*
X135502288Y-105925865D01*
X135519278Y-105863248D01*
X135521905Y-105856683D01*
X135530809Y-105823008D01*
X135514300Y-105825824D01*
X135490037Y-105861282D01*
X135470736Y-105922740D01*
X135470115Y-105925949D01*
X135449704Y-105983569D01*
X135405358Y-106029306D01*
X135335881Y-106071108D01*
X135260577Y-106119785D01*
X135215444Y-106167268D01*
X135208368Y-106184700D01*
X135182239Y-106239239D01*
X135147153Y-106276699D01*
X135112256Y-106324798D01*
X135115882Y-106370981D01*
X135154389Y-106398482D01*
X135174066Y-106400600D01*
X135230143Y-106420743D01*
X135280827Y-106467952D01*
X135305547Y-106522394D01*
X135305800Y-106527600D01*
X135290440Y-106571424D01*
X135261350Y-106614062D01*
X135232033Y-106649658D01*
X135235922Y-106651170D01*
X135261350Y-106632002D01*
X135295336Y-106610916D01*
X135305477Y-106626444D01*
X135305800Y-106637290D01*
X135297508Y-106674491D01*
X135265150Y-106688851D01*
X135197500Y-106684272D01*
X135178800Y-106681435D01*
X135112529Y-106661548D01*
X135076058Y-106618374D01*
X135075343Y-106616500D01*
X135102600Y-106616500D01*
X135115300Y-106629200D01*
X135128000Y-106616500D01*
X135115300Y-106603800D01*
X135102600Y-106616500D01*
X135075343Y-106616500D01*
X135063211Y-106584731D01*
X135032814Y-106510805D01*
X135001976Y-106467539D01*
X134976878Y-106461744D01*
X134967198Y-106478902D01*
X134939621Y-106573823D01*
X134917287Y-106630389D01*
X134892091Y-106659257D01*
X134855932Y-106671088D01*
X134818048Y-106675084D01*
X134735045Y-106668012D01*
X134692843Y-106631965D01*
X134692878Y-106626028D01*
X134880599Y-106626028D01*
X134899206Y-106613855D01*
X134902551Y-106610573D01*
X134922614Y-106577270D01*
X134919894Y-106565027D01*
X134901000Y-106572650D01*
X134888333Y-106596354D01*
X134880599Y-106626028D01*
X134692878Y-106626028D01*
X134693208Y-106570478D01*
X134729848Y-106498567D01*
X134787775Y-106413300D01*
X134647052Y-106484388D01*
X134539161Y-106529812D01*
X134461395Y-106542709D01*
X134446736Y-106540520D01*
X134405558Y-106536045D01*
X134405664Y-106555521D01*
X134406138Y-106556298D01*
X134408685Y-106576165D01*
X134380789Y-106570016D01*
X134338354Y-106555636D01*
X134325822Y-106553000D01*
X134316477Y-106532172D01*
X134315200Y-106513400D01*
X134305204Y-106485476D01*
X134294937Y-106486325D01*
X134258297Y-106485931D01*
X134240308Y-106477608D01*
X134229939Y-106456581D01*
X134256785Y-106423399D01*
X134269913Y-106413300D01*
X134289800Y-106413300D01*
X134302500Y-106426000D01*
X134315200Y-106413300D01*
X134302500Y-106400600D01*
X134289800Y-106413300D01*
X134269913Y-106413300D01*
X134307959Y-106384034D01*
X134362054Y-106342248D01*
X134508859Y-106342248D01*
X134543800Y-106345789D01*
X134579858Y-106341797D01*
X134575550Y-106332978D01*
X134523547Y-106329623D01*
X134512050Y-106332978D01*
X134508859Y-106342248D01*
X134362054Y-106342248D01*
X134369141Y-106336774D01*
X134387034Y-106311700D01*
X134442200Y-106311700D01*
X134454900Y-106324400D01*
X134467600Y-106311700D01*
X134454900Y-106299000D01*
X134442200Y-106311700D01*
X134387034Y-106311700D01*
X134396880Y-106297903D01*
X134400964Y-106249135D01*
X134397405Y-106216912D01*
X134400402Y-106139544D01*
X134432398Y-106102335D01*
X134489499Y-106108031D01*
X134524946Y-106126983D01*
X134583853Y-106157508D01*
X134665359Y-106191219D01*
X134699611Y-106203433D01*
X134777365Y-106225979D01*
X134828857Y-106228261D01*
X134874126Y-106210917D01*
X134877411Y-106209080D01*
X134945609Y-106172835D01*
X135013700Y-106139357D01*
X135079994Y-106099196D01*
X135128000Y-106055963D01*
X135144970Y-106031109D01*
X135129248Y-106037725D01*
X135092824Y-106064728D01*
X135031508Y-106100051D01*
X134968557Y-106118970D01*
X134919383Y-106118905D01*
X134899400Y-106097279D01*
X134899400Y-106097092D01*
X134919889Y-106063993D01*
X134971159Y-106020174D01*
X135037912Y-105976303D01*
X135104851Y-105943048D01*
X135133647Y-105933727D01*
X135225131Y-105887647D01*
X135291191Y-105805089D01*
X135315853Y-105734383D01*
X135322212Y-105679286D01*
X135318772Y-105643989D01*
X135308560Y-105639454D01*
X135297164Y-105666714D01*
X135266679Y-105766540D01*
X135238528Y-105829120D01*
X135205423Y-105867089D01*
X135168980Y-105888956D01*
X135098303Y-105910084D01*
X135036221Y-105895910D01*
X134990154Y-105864487D01*
X134976311Y-105833991D01*
X134998997Y-105817052D01*
X135009108Y-105816400D01*
X135034482Y-105793952D01*
X135062255Y-105736314D01*
X135076484Y-105692026D01*
X135099790Y-105617481D01*
X135125862Y-105578124D01*
X135168143Y-105559481D01*
X135206237Y-105552320D01*
X135304582Y-105513929D01*
X135328552Y-105488374D01*
X135716699Y-105488374D01*
X135719246Y-105499227D01*
X135745307Y-105537000D01*
X135786599Y-105603613D01*
X135828653Y-105683813D01*
X135833909Y-105695035D01*
X135862386Y-105745883D01*
X135881742Y-105758995D01*
X135885562Y-105751927D01*
X135878331Y-105707358D01*
X135850031Y-105644226D01*
X135840805Y-105628497D01*
X135794805Y-105563174D01*
X135750239Y-105513465D01*
X135743941Y-105508105D01*
X135716699Y-105488374D01*
X135328552Y-105488374D01*
X135381070Y-105432385D01*
X135435215Y-105313781D01*
X135471692Y-105238574D01*
X135519987Y-105178495D01*
X135525561Y-105173824D01*
X135568366Y-105131496D01*
X135585200Y-105098567D01*
X135570939Y-105094389D01*
X135536321Y-105122730D01*
X135533410Y-105125810D01*
X135481877Y-105165555D01*
X135431892Y-105181593D01*
X135397166Y-105172846D01*
X135391412Y-105138235D01*
X135391782Y-105136950D01*
X135407225Y-105079728D01*
X135422804Y-105016300D01*
X135443949Y-104956207D01*
X135468460Y-104921438D01*
X135480137Y-104904637D01*
X135470818Y-104902388D01*
X135437874Y-104915949D01*
X135378400Y-104951521D01*
X135320297Y-104990900D01*
X135235334Y-105047643D01*
X135178255Y-105073831D01*
X135138367Y-105071958D01*
X135104976Y-105044520D01*
X135102600Y-105041700D01*
X135084303Y-105011484D01*
X135105403Y-105003612D01*
X135107437Y-105003600D01*
X135147284Y-104986447D01*
X135200479Y-104943901D01*
X135213834Y-104930599D01*
X135283772Y-104857599D01*
X135221563Y-104869491D01*
X135161676Y-104874521D01*
X135143448Y-104861569D01*
X135163201Y-104835572D01*
X135217255Y-104801462D01*
X135299360Y-104765148D01*
X135441878Y-104722964D01*
X135612267Y-104691085D01*
X135795139Y-104670732D01*
X135975109Y-104663122D01*
X136136788Y-104669475D01*
X136136788Y-104669475D01*
G37*
X136136788Y-104669475D02*
X136258101Y-104689203D01*
X136374473Y-104722468D01*
X136448385Y-104751659D01*
X136487521Y-104780814D01*
X136499570Y-104813968D01*
X136499600Y-104816011D01*
X136487268Y-104842193D01*
X136442726Y-104842454D01*
X136427322Y-104839361D01*
X136357100Y-104836631D01*
X136255327Y-104847815D01*
X136138270Y-104869675D01*
X136022192Y-104898972D01*
X135923360Y-104932465D01*
X135893655Y-104945645D01*
X135813810Y-105006552D01*
X135749983Y-105094315D01*
X135715807Y-105188699D01*
X135713420Y-105213150D01*
X135731272Y-105265615D01*
X135775167Y-105319364D01*
X135826881Y-105354628D01*
X135848047Y-105359200D01*
X135877504Y-105337749D01*
X135912599Y-105283480D01*
X135927735Y-105251250D01*
X135973176Y-105143300D01*
X135999437Y-105254760D01*
X136013187Y-105326802D01*
X136008788Y-105368246D01*
X135983682Y-105396840D01*
X135978394Y-105400810D01*
X135895758Y-105432515D01*
X135806560Y-105422329D01*
X135752300Y-105391491D01*
X135737940Y-105383276D01*
X135754835Y-105406982D01*
X135788400Y-105445320D01*
X135857302Y-105510392D01*
X135929447Y-105562682D01*
X135957710Y-105577575D01*
X136026752Y-105632373D01*
X136062050Y-105714597D01*
X136057340Y-105808947D01*
X136055281Y-105815829D01*
X136019560Y-105856177D01*
X135958943Y-105866270D01*
X135891355Y-105843183D01*
X135890580Y-105842696D01*
X135842484Y-105837222D01*
X135807874Y-105859862D01*
X135771275Y-105887314D01*
X135756494Y-105890327D01*
X135682743Y-105753480D01*
X135641023Y-105643665D01*
X135633949Y-105613565D01*
X135616441Y-105524300D01*
X135613520Y-105608167D01*
X135624651Y-105684088D01*
X135655950Y-105769066D01*
X135667088Y-105790186D01*
X135723577Y-105888338D01*
X135655313Y-106036519D01*
X135618127Y-106122433D01*
X135590384Y-106196153D01*
X135579426Y-106235500D01*
X135563365Y-106276659D01*
X135539745Y-106273977D01*
X135516329Y-106232045D01*
X135505993Y-106192049D01*
X135494905Y-106144860D01*
X135487628Y-106135237D01*
X135486943Y-106138864D01*
X135463751Y-106170441D01*
X135413981Y-106202595D01*
X135351709Y-106250480D01*
X135309481Y-106308739D01*
X135278192Y-106352082D01*
X135252105Y-106348111D01*
X135234894Y-106300286D01*
X135229988Y-106233827D01*
X135237660Y-106179954D01*
X135269315Y-106139130D01*
X135334054Y-106097247D01*
X135403256Y-106063113D01*
X135442548Y-106057689D01*
X135458095Y-106070230D01*
X135473279Y-106070846D01*
X135486104Y-106026066D01*
X135489229Y-106003610D01*
X135502288Y-105925865D01*
X135519278Y-105863248D01*
X135521905Y-105856683D01*
X135530809Y-105823008D01*
X135514300Y-105825824D01*
X135490037Y-105861282D01*
X135470736Y-105922740D01*
X135470115Y-105925949D01*
X135449704Y-105983569D01*
X135405358Y-106029306D01*
X135335881Y-106071108D01*
X135260577Y-106119785D01*
X135215444Y-106167268D01*
X135208368Y-106184700D01*
X135182239Y-106239239D01*
X135147153Y-106276699D01*
X135112256Y-106324798D01*
X135115882Y-106370981D01*
X135154389Y-106398482D01*
X135174066Y-106400600D01*
X135230143Y-106420743D01*
X135280827Y-106467952D01*
X135305547Y-106522394D01*
X135305800Y-106527600D01*
X135290440Y-106571424D01*
X135261350Y-106614062D01*
X135232033Y-106649658D01*
X135235922Y-106651170D01*
X135261350Y-106632002D01*
X135295336Y-106610916D01*
X135305477Y-106626444D01*
X135305800Y-106637290D01*
X135297508Y-106674491D01*
X135265150Y-106688851D01*
X135197500Y-106684272D01*
X135178800Y-106681435D01*
X135112529Y-106661548D01*
X135076058Y-106618374D01*
X135075343Y-106616500D01*
X135102600Y-106616500D01*
X135115300Y-106629200D01*
X135128000Y-106616500D01*
X135115300Y-106603800D01*
X135102600Y-106616500D01*
X135075343Y-106616500D01*
X135063211Y-106584731D01*
X135032814Y-106510805D01*
X135001976Y-106467539D01*
X134976878Y-106461744D01*
X134967198Y-106478902D01*
X134939621Y-106573823D01*
X134917287Y-106630389D01*
X134892091Y-106659257D01*
X134855932Y-106671088D01*
X134818048Y-106675084D01*
X134735045Y-106668012D01*
X134692843Y-106631965D01*
X134692878Y-106626028D01*
X134880599Y-106626028D01*
X134899206Y-106613855D01*
X134902551Y-106610573D01*
X134922614Y-106577270D01*
X134919894Y-106565027D01*
X134901000Y-106572650D01*
X134888333Y-106596354D01*
X134880599Y-106626028D01*
X134692878Y-106626028D01*
X134693208Y-106570478D01*
X134729848Y-106498567D01*
X134787775Y-106413300D01*
X134647052Y-106484388D01*
X134539161Y-106529812D01*
X134461395Y-106542709D01*
X134446736Y-106540520D01*
X134405558Y-106536045D01*
X134405664Y-106555521D01*
X134406138Y-106556298D01*
X134408685Y-106576165D01*
X134380789Y-106570016D01*
X134338354Y-106555636D01*
X134325822Y-106553000D01*
X134316477Y-106532172D01*
X134315200Y-106513400D01*
X134305204Y-106485476D01*
X134294937Y-106486325D01*
X134258297Y-106485931D01*
X134240308Y-106477608D01*
X134229939Y-106456581D01*
X134256785Y-106423399D01*
X134269913Y-106413300D01*
X134289800Y-106413300D01*
X134302500Y-106426000D01*
X134315200Y-106413300D01*
X134302500Y-106400600D01*
X134289800Y-106413300D01*
X134269913Y-106413300D01*
X134307959Y-106384034D01*
X134362054Y-106342248D01*
X134508859Y-106342248D01*
X134543800Y-106345789D01*
X134579858Y-106341797D01*
X134575550Y-106332978D01*
X134523547Y-106329623D01*
X134512050Y-106332978D01*
X134508859Y-106342248D01*
X134362054Y-106342248D01*
X134369141Y-106336774D01*
X134387034Y-106311700D01*
X134442200Y-106311700D01*
X134454900Y-106324400D01*
X134467600Y-106311700D01*
X134454900Y-106299000D01*
X134442200Y-106311700D01*
X134387034Y-106311700D01*
X134396880Y-106297903D01*
X134400964Y-106249135D01*
X134397405Y-106216912D01*
X134400402Y-106139544D01*
X134432398Y-106102335D01*
X134489499Y-106108031D01*
X134524946Y-106126983D01*
X134583853Y-106157508D01*
X134665359Y-106191219D01*
X134699611Y-106203433D01*
X134777365Y-106225979D01*
X134828857Y-106228261D01*
X134874126Y-106210917D01*
X134877411Y-106209080D01*
X134945609Y-106172835D01*
X135013700Y-106139357D01*
X135079994Y-106099196D01*
X135128000Y-106055963D01*
X135144970Y-106031109D01*
X135129248Y-106037725D01*
X135092824Y-106064728D01*
X135031508Y-106100051D01*
X134968557Y-106118970D01*
X134919383Y-106118905D01*
X134899400Y-106097279D01*
X134899400Y-106097092D01*
X134919889Y-106063993D01*
X134971159Y-106020174D01*
X135037912Y-105976303D01*
X135104851Y-105943048D01*
X135133647Y-105933727D01*
X135225131Y-105887647D01*
X135291191Y-105805089D01*
X135315853Y-105734383D01*
X135322212Y-105679286D01*
X135318772Y-105643989D01*
X135308560Y-105639454D01*
X135297164Y-105666714D01*
X135266679Y-105766540D01*
X135238528Y-105829120D01*
X135205423Y-105867089D01*
X135168980Y-105888956D01*
X135098303Y-105910084D01*
X135036221Y-105895910D01*
X134990154Y-105864487D01*
X134976311Y-105833991D01*
X134998997Y-105817052D01*
X135009108Y-105816400D01*
X135034482Y-105793952D01*
X135062255Y-105736314D01*
X135076484Y-105692026D01*
X135099790Y-105617481D01*
X135125862Y-105578124D01*
X135168143Y-105559481D01*
X135206237Y-105552320D01*
X135304582Y-105513929D01*
X135328552Y-105488374D01*
X135716699Y-105488374D01*
X135719246Y-105499227D01*
X135745307Y-105537000D01*
X135786599Y-105603613D01*
X135828653Y-105683813D01*
X135833909Y-105695035D01*
X135862386Y-105745883D01*
X135881742Y-105758995D01*
X135885562Y-105751927D01*
X135878331Y-105707358D01*
X135850031Y-105644226D01*
X135840805Y-105628497D01*
X135794805Y-105563174D01*
X135750239Y-105513465D01*
X135743941Y-105508105D01*
X135716699Y-105488374D01*
X135328552Y-105488374D01*
X135381070Y-105432385D01*
X135435215Y-105313781D01*
X135471692Y-105238574D01*
X135519987Y-105178495D01*
X135525561Y-105173824D01*
X135568366Y-105131496D01*
X135585200Y-105098567D01*
X135570939Y-105094389D01*
X135536321Y-105122730D01*
X135533410Y-105125810D01*
X135481877Y-105165555D01*
X135431892Y-105181593D01*
X135397166Y-105172846D01*
X135391412Y-105138235D01*
X135391782Y-105136950D01*
X135407225Y-105079728D01*
X135422804Y-105016300D01*
X135443949Y-104956207D01*
X135468460Y-104921438D01*
X135480137Y-104904637D01*
X135470818Y-104902388D01*
X135437874Y-104915949D01*
X135378400Y-104951521D01*
X135320297Y-104990900D01*
X135235334Y-105047643D01*
X135178255Y-105073831D01*
X135138367Y-105071958D01*
X135104976Y-105044520D01*
X135102600Y-105041700D01*
X135084303Y-105011484D01*
X135105403Y-105003612D01*
X135107437Y-105003600D01*
X135147284Y-104986447D01*
X135200479Y-104943901D01*
X135213834Y-104930599D01*
X135283772Y-104857599D01*
X135221563Y-104869491D01*
X135161676Y-104874521D01*
X135143448Y-104861569D01*
X135163201Y-104835572D01*
X135217255Y-104801462D01*
X135299360Y-104765148D01*
X135441878Y-104722964D01*
X135612267Y-104691085D01*
X135795139Y-104670732D01*
X135975109Y-104663122D01*
X136136788Y-104669475D01*
G36*
X134818353Y-106718661D02*
G01*
X134823200Y-106730800D01*
X134804969Y-106755472D01*
X134799299Y-106756200D01*
X134764898Y-106737736D01*
X134759700Y-106730800D01*
X134765458Y-106709055D01*
X134783600Y-106705400D01*
X134818353Y-106718661D01*
X134818353Y-106718661D01*
G37*
X134818353Y-106718661D02*
X134823200Y-106730800D01*
X134804969Y-106755472D01*
X134799299Y-106756200D01*
X134764898Y-106737736D01*
X134759700Y-106730800D01*
X134765458Y-106709055D01*
X134783600Y-106705400D01*
X134818353Y-106718661D01*
G36*
X133575890Y-101923601D02*
G01*
X133589180Y-101946535D01*
X133609558Y-101974429D01*
X133620637Y-101972829D01*
X133655136Y-101966848D01*
X133694772Y-101996577D01*
X133727279Y-102050001D01*
X133738184Y-102087980D01*
X133754650Y-102156677D01*
X133779593Y-102231555D01*
X133807316Y-102298758D01*
X133832123Y-102344431D01*
X133847988Y-102355078D01*
X133854659Y-102325414D01*
X133860786Y-102258612D01*
X133865169Y-102168326D01*
X133865550Y-102155482D01*
X133869236Y-102059603D01*
X133876024Y-102004154D01*
X133889374Y-101978769D01*
X133912745Y-101973080D01*
X133926104Y-101974041D01*
X133973570Y-101964354D01*
X133989604Y-101943423D01*
X134002771Y-101923428D01*
X134034439Y-101936017D01*
X134060141Y-101954483D01*
X134122582Y-102001901D01*
X134055158Y-102137500D01*
X134014091Y-102231074D01*
X133981864Y-102324036D01*
X133970445Y-102370455D01*
X133963827Y-102427174D01*
X133972994Y-102471259D01*
X134005042Y-102518774D01*
X134064328Y-102582942D01*
X134146480Y-102661178D01*
X134246256Y-102746759D01*
X134323533Y-102807182D01*
X134414075Y-102879530D01*
X134501550Y-102958616D01*
X134558887Y-103018305D01*
X134607771Y-103078054D01*
X134625692Y-103111185D01*
X134616247Y-103128312D01*
X134598582Y-103135435D01*
X134534401Y-103139435D01*
X134502997Y-103132148D01*
X134472315Y-103122447D01*
X134470486Y-103134527D01*
X134497223Y-103178122D01*
X134501448Y-103184575D01*
X134530576Y-103234295D01*
X134540050Y-103261609D01*
X134539479Y-103262552D01*
X134513564Y-103278130D01*
X134461496Y-103306621D01*
X134454900Y-103310131D01*
X134414865Y-103336542D01*
X134412040Y-103350830D01*
X134417498Y-103351583D01*
X134468416Y-103338723D01*
X134506398Y-103318304D01*
X134564548Y-103291732D01*
X134642808Y-103270713D01*
X134656618Y-103268311D01*
X134756736Y-103252613D01*
X134581099Y-103429606D01*
X134502921Y-103505235D01*
X134435452Y-103564743D01*
X134388031Y-103600187D01*
X134373031Y-103606600D01*
X134343104Y-103626297D01*
X134340600Y-103638590D01*
X134317440Y-103679802D01*
X134254628Y-103724975D01*
X134162166Y-103767342D01*
X134137400Y-103776097D01*
X134091351Y-103795116D01*
X134083836Y-103806596D01*
X134091296Y-103807847D01*
X134146669Y-103800511D01*
X134201531Y-103784159D01*
X134249489Y-103772593D01*
X134289328Y-103787018D01*
X134340016Y-103834581D01*
X134342539Y-103837275D01*
X134388749Y-103894816D01*
X134399936Y-103936779D01*
X134391081Y-103962795D01*
X134349523Y-104008599D01*
X134321349Y-104023748D01*
X134276559Y-104056896D01*
X134251472Y-104095291D01*
X134212600Y-104144453D01*
X134149518Y-104191245D01*
X134137400Y-104197800D01*
X134089885Y-104224114D01*
X134088245Y-104231917D01*
X134112000Y-104227433D01*
X134180914Y-104200685D01*
X134239527Y-104166801D01*
X134330657Y-104132480D01*
X134385265Y-104133681D01*
X134456919Y-104136709D01*
X134511738Y-104127287D01*
X134561421Y-104116184D01*
X134640930Y-104107420D01*
X134699446Y-104104174D01*
X134842392Y-104099449D01*
X134811579Y-104188451D01*
X134781030Y-104247099D01*
X134735576Y-104304595D01*
X134687067Y-104349172D01*
X134647354Y-104369065D01*
X134633550Y-104365216D01*
X134631171Y-104334694D01*
X134642440Y-104277463D01*
X134644061Y-104271667D01*
X134654604Y-104212996D01*
X134643979Y-104190806D01*
X134643626Y-104190800D01*
X134625323Y-104212383D01*
X134620000Y-104249220D01*
X134607829Y-104308504D01*
X134590352Y-104337287D01*
X134577305Y-104365226D01*
X134607035Y-104384713D01*
X134676234Y-104386150D01*
X134745361Y-104342634D01*
X134807802Y-104259588D01*
X134838606Y-104194802D01*
X134879944Y-104099304D01*
X134917610Y-104042187D01*
X134963571Y-104013502D01*
X135029796Y-104003298D01*
X135070416Y-104002069D01*
X135191631Y-104000300D01*
X135182679Y-104094168D01*
X135185900Y-104172670D01*
X135220763Y-104233910D01*
X135238609Y-104252918D01*
X135298630Y-104301351D01*
X135345180Y-104318521D01*
X135369652Y-104303902D01*
X135364816Y-104260650D01*
X135348359Y-104182175D01*
X135346899Y-104095229D01*
X135359350Y-104020189D01*
X135379741Y-103981283D01*
X135401389Y-103966334D01*
X135400517Y-103989990D01*
X135394069Y-104013000D01*
X135374929Y-104073864D01*
X135363096Y-104108250D01*
X135367023Y-104135340D01*
X135399676Y-104137629D01*
X135446916Y-104117573D01*
X135485896Y-104086903D01*
X135519366Y-104040913D01*
X135531998Y-103980928D01*
X135530346Y-103909087D01*
X135530360Y-103833712D01*
X135540340Y-103790822D01*
X135556545Y-103786240D01*
X135575233Y-103825787D01*
X135577840Y-103835200D01*
X135601447Y-103879664D01*
X135631653Y-103875690D01*
X135659674Y-103828850D01*
X135677791Y-103790884D01*
X135691637Y-103798123D01*
X135699673Y-103816150D01*
X135707892Y-103873801D01*
X135703014Y-103898700D01*
X135698823Y-103932309D01*
X135719805Y-103931923D01*
X135756738Y-103900927D01*
X135782329Y-103869579D01*
X135831296Y-103802358D01*
X135981298Y-103912369D01*
X136084161Y-103990301D01*
X136195871Y-104078682D01*
X136271000Y-104140579D01*
X136358681Y-104211066D01*
X136448175Y-104277144D01*
X136512300Y-104319602D01*
X136606403Y-104382748D01*
X136692140Y-104452264D01*
X136759588Y-104518850D01*
X136798825Y-104573202D01*
X136804788Y-104593805D01*
X136819010Y-104651087D01*
X136830960Y-104673400D01*
X136846023Y-104687763D01*
X136843968Y-104658260D01*
X136839131Y-104636127D01*
X136821520Y-104560754D01*
X136931832Y-104655177D01*
X137020517Y-104719675D01*
X137096855Y-104747343D01*
X137126955Y-104749600D01*
X137183572Y-104745779D01*
X137201994Y-104726847D01*
X137196140Y-104687336D01*
X137188804Y-104644801D01*
X137206145Y-104638934D01*
X137245152Y-104655578D01*
X137304691Y-104701997D01*
X137322568Y-104758758D01*
X137295624Y-104813546D01*
X137271784Y-104842745D01*
X137286746Y-104851051D01*
X137293949Y-104851200D01*
X137337213Y-104833736D01*
X137374356Y-104802105D01*
X137405182Y-104735176D01*
X137395517Y-104658094D01*
X137351912Y-104579873D01*
X137280921Y-104509527D01*
X137189099Y-104456069D01*
X137104904Y-104431495D01*
X137019493Y-104410776D01*
X136954585Y-104383291D01*
X136920700Y-104354649D01*
X136923094Y-104334571D01*
X136965382Y-104320147D01*
X137033809Y-104319649D01*
X137105991Y-104331966D01*
X137142619Y-104345456D01*
X137183766Y-104363667D01*
X137188070Y-104359684D01*
X137161987Y-104337883D01*
X137111973Y-104302638D01*
X137044484Y-104258326D01*
X136965975Y-104209320D01*
X136882901Y-104159998D01*
X136803978Y-104115943D01*
X136657034Y-104033921D01*
X136542662Y-103963403D01*
X136464516Y-103906957D01*
X136426255Y-103867154D01*
X136425631Y-103850062D01*
X136463965Y-103843841D01*
X136526441Y-103864166D01*
X136599036Y-103904053D01*
X136667728Y-103956520D01*
X136695496Y-103984458D01*
X136742113Y-104031653D01*
X136772103Y-104051694D01*
X136778046Y-104047467D01*
X136758765Y-104013572D01*
X136743542Y-104004828D01*
X136715834Y-103974488D01*
X136683808Y-103911796D01*
X136666286Y-103865375D01*
X136614990Y-103757599D01*
X136540562Y-103654827D01*
X136523943Y-103636958D01*
X136451539Y-103547671D01*
X136423657Y-103473912D01*
X136423400Y-103467224D01*
X136413355Y-103395749D01*
X136397106Y-103350930D01*
X136383784Y-103310611D01*
X136397426Y-103301800D01*
X136421306Y-103323179D01*
X136455460Y-103378461D01*
X136483113Y-103435150D01*
X136521804Y-103513877D01*
X136558762Y-103575130D01*
X136578043Y-103598160D01*
X136598339Y-103608050D01*
X136607394Y-103587953D01*
X136607401Y-103559217D01*
X136677250Y-103559217D01*
X136687641Y-103638648D01*
X136707564Y-103726633D01*
X136728824Y-103792939D01*
X136800098Y-103927877D01*
X136906624Y-104046795D01*
X136969628Y-104103498D01*
X137014909Y-104141707D01*
X137032977Y-104153425D01*
X137033000Y-104153257D01*
X137024971Y-104124813D01*
X137008312Y-104078374D01*
X136995316Y-104012156D01*
X137005171Y-103959247D01*
X137034552Y-103936822D01*
X137035717Y-103936800D01*
X137053313Y-103958382D01*
X137058400Y-103995011D01*
X137078090Y-104049684D01*
X137132442Y-104122803D01*
X137173919Y-104166461D01*
X137253041Y-104252884D01*
X137335202Y-104356265D01*
X137383469Y-104425300D01*
X137477500Y-104570901D01*
X137485860Y-104476100D01*
X137483789Y-104386467D01*
X137467736Y-104291380D01*
X137464539Y-104279700D01*
X137407534Y-104143878D01*
X137397131Y-104127300D01*
X137464800Y-104127300D01*
X137477500Y-104140000D01*
X137490200Y-104127300D01*
X137477500Y-104114600D01*
X137464800Y-104127300D01*
X137397131Y-104127300D01*
X137318744Y-104002397D01*
X137210606Y-103874601D01*
X137193094Y-103857434D01*
X137138920Y-103809715D01*
X137062995Y-103747805D01*
X136975021Y-103679010D01*
X136884700Y-103610637D01*
X136801734Y-103549995D01*
X136735825Y-103504390D01*
X136696674Y-103481131D01*
X136691451Y-103479600D01*
X136677988Y-103501736D01*
X136677250Y-103559217D01*
X136607401Y-103559217D01*
X136607409Y-103529362D01*
X136605344Y-103492724D01*
X136603350Y-103410247D01*
X136615880Y-103353389D01*
X136651145Y-103299107D01*
X136690395Y-103254017D01*
X136771824Y-103178484D01*
X136858285Y-103133686D01*
X136962739Y-103115933D01*
X137098147Y-103121535D01*
X137139213Y-103126260D01*
X137236358Y-103135804D01*
X137317946Y-103139068D01*
X137367129Y-103135413D01*
X137368636Y-103134974D01*
X137406425Y-103133558D01*
X137410527Y-103155529D01*
X137382510Y-103187701D01*
X137360719Y-103201527D01*
X137307439Y-103230042D01*
X137360719Y-103267361D01*
X137401443Y-103308458D01*
X137414000Y-103339900D01*
X137433042Y-103379715D01*
X137469617Y-103414075D01*
X137504229Y-103448435D01*
X137506499Y-103471767D01*
X137473745Y-103474218D01*
X137444531Y-103459590D01*
X137383391Y-103422851D01*
X137321732Y-103395964D01*
X137277273Y-103386006D01*
X137267588Y-103388944D01*
X137278907Y-103410773D01*
X137319750Y-103458381D01*
X137382379Y-103523023D01*
X137410811Y-103550745D01*
X137482431Y-103625061D01*
X137536384Y-103691612D01*
X137563914Y-103739213D01*
X137565712Y-103748640D01*
X137559285Y-103770991D01*
X137536379Y-103761406D01*
X137489975Y-103716324D01*
X137479063Y-103704679D01*
X137419928Y-103648741D01*
X137381349Y-103632311D01*
X137365450Y-103639909D01*
X137344141Y-103648096D01*
X137337800Y-103610498D01*
X137312902Y-103551034D01*
X137258818Y-103510168D01*
X137161929Y-103451317D01*
X137105126Y-103400116D01*
X137080351Y-103348006D01*
X137077450Y-103317479D01*
X137058738Y-103254506D01*
X137010134Y-103220525D01*
X136942929Y-103214792D01*
X136868417Y-103236561D01*
X136797891Y-103285087D01*
X136754283Y-103338794D01*
X136721044Y-103398089D01*
X136703857Y-103439543D01*
X136703188Y-103444498D01*
X136713909Y-103446535D01*
X136727386Y-103429246D01*
X136748849Y-103410041D01*
X136779614Y-103421915D01*
X136822247Y-103459023D01*
X136873666Y-103503999D01*
X136952654Y-103568706D01*
X137046066Y-103642492D01*
X137096500Y-103681309D01*
X137226087Y-103787239D01*
X137329423Y-103886331D01*
X137401333Y-103972871D01*
X137436644Y-104041143D01*
X137439400Y-104060052D01*
X137449141Y-104077135D01*
X137482208Y-104056987D01*
X137502900Y-104038400D01*
X137566400Y-103978744D01*
X137566011Y-104053022D01*
X137558928Y-104118517D01*
X137544806Y-104160110D01*
X137539106Y-104202150D01*
X137546622Y-104271613D01*
X137563265Y-104348159D01*
X137584943Y-104411451D01*
X137600378Y-104436445D01*
X137609511Y-104434663D01*
X137603878Y-104414239D01*
X137609384Y-104363726D01*
X137642752Y-104317647D01*
X137689490Y-104278833D01*
X137709093Y-104282618D01*
X137701425Y-104328570D01*
X137670831Y-104406215D01*
X137634899Y-104515535D01*
X137631776Y-104618688D01*
X137633578Y-104633405D01*
X137639195Y-104706786D01*
X137626597Y-104750288D01*
X137593495Y-104781113D01*
X137560145Y-104807027D01*
X137563362Y-104821253D01*
X137609056Y-104832870D01*
X137629735Y-104836793D01*
X137705186Y-104844205D01*
X137766629Y-104839307D01*
X137770710Y-104838147D01*
X137810314Y-104835561D01*
X137820400Y-104847470D01*
X137798367Y-104869247D01*
X137744642Y-104888830D01*
X137737850Y-104890381D01*
X137658791Y-104914428D01*
X137572817Y-104950110D01*
X137561335Y-104955759D01*
X137485458Y-104985803D01*
X137425203Y-104985657D01*
X137400932Y-104978060D01*
X137336556Y-104956415D01*
X137317202Y-104957672D01*
X137342520Y-104981877D01*
X137347473Y-104985545D01*
X137378859Y-105028552D01*
X137374929Y-105087324D01*
X137357602Y-105156358D01*
X137258801Y-105054550D01*
X137204407Y-104994530D01*
X137168522Y-104947323D01*
X137160000Y-104928869D01*
X137141822Y-104893970D01*
X137139068Y-104892061D01*
X137123520Y-104902477D01*
X137120018Y-104934220D01*
X137103502Y-104983815D01*
X137077450Y-104998319D01*
X137040857Y-104989524D01*
X137033000Y-104956505D01*
X137017339Y-104914867D01*
X136979853Y-104867573D01*
X136975647Y-104863900D01*
X137210800Y-104863900D01*
X137223500Y-104876600D01*
X137236200Y-104863900D01*
X137223500Y-104851200D01*
X137210800Y-104863900D01*
X136975647Y-104863900D01*
X136934787Y-104828218D01*
X136896388Y-104810395D01*
X136883798Y-104814134D01*
X136874355Y-104848151D01*
X136868262Y-104918155D01*
X136865509Y-105009445D01*
X136866086Y-105107320D01*
X136869981Y-105197080D01*
X136877184Y-105264021D01*
X136884145Y-105289350D01*
X136922343Y-105327029D01*
X136965502Y-105329073D01*
X136990849Y-105302050D01*
X137007909Y-105284958D01*
X137028716Y-105306096D01*
X137042548Y-105362854D01*
X137010471Y-105415866D01*
X136981051Y-105436014D01*
X136916619Y-105449349D01*
X136858750Y-105415017D01*
X136805040Y-105331517D01*
X136801343Y-105323725D01*
X136773088Y-105265632D01*
X136761672Y-105251524D01*
X136763816Y-105278742D01*
X136766822Y-105295700D01*
X136805295Y-105387468D01*
X136874564Y-105450961D01*
X136962411Y-105476745D01*
X136998534Y-105474627D01*
X137078024Y-105453243D01*
X137144772Y-105422020D01*
X137202357Y-105397219D01*
X137264712Y-105406729D01*
X137277221Y-105411298D01*
X137350500Y-105439346D01*
X137290536Y-105488173D01*
X137254199Y-105521776D01*
X137247556Y-105536929D01*
X137248429Y-105537000D01*
X137278889Y-105522744D01*
X137328312Y-105488196D01*
X137331326Y-105485840D01*
X137386351Y-105453406D01*
X137450429Y-105444610D01*
X137513132Y-105450109D01*
X137590132Y-105455747D01*
X137646736Y-105442539D01*
X137707926Y-105403168D01*
X137728642Y-105386968D01*
X137787142Y-105341764D01*
X137827145Y-105313360D01*
X137836592Y-105308400D01*
X137846110Y-105325162D01*
X137820074Y-105373407D01*
X137760175Y-105450066D01*
X137755500Y-105455550D01*
X137699132Y-105516892D01*
X137654675Y-105546858D01*
X137603441Y-105554623D01*
X137558650Y-105552194D01*
X137506779Y-105549115D01*
X137495249Y-105551282D01*
X137507391Y-105554379D01*
X137572930Y-105583383D01*
X137614747Y-105645547D01*
X137630611Y-105695892D01*
X137631852Y-105746848D01*
X137609239Y-105763580D01*
X137574928Y-105747696D01*
X137541075Y-105700805D01*
X137533594Y-105683050D01*
X137495238Y-105647554D01*
X137446547Y-105642405D01*
X137375900Y-105646211D01*
X137446891Y-105656902D01*
X137496456Y-105671560D01*
X137506070Y-105701434D01*
X137501934Y-105717840D01*
X137505744Y-105778194D01*
X137542288Y-105855182D01*
X137604392Y-105934013D01*
X137609158Y-105938864D01*
X137640227Y-105984559D01*
X137624100Y-106011563D01*
X137568243Y-106019600D01*
X137496843Y-105997667D01*
X137432128Y-105943284D01*
X137391883Y-105873571D01*
X137386594Y-105844724D01*
X137379794Y-105823236D01*
X137372247Y-105834041D01*
X137375625Y-105886764D01*
X137414021Y-105955310D01*
X137480156Y-106027372D01*
X137493422Y-106038909D01*
X137553066Y-106112534D01*
X137566400Y-106174257D01*
X137556351Y-106233346D01*
X137530070Y-106248996D01*
X137493359Y-106223541D01*
X137452015Y-106159317D01*
X137434605Y-106121200D01*
X137402017Y-106050796D01*
X137374284Y-106004679D01*
X137362106Y-105994200D01*
X137361266Y-106014640D01*
X137379590Y-106067468D01*
X137403593Y-106121075D01*
X137448159Y-106226939D01*
X137462322Y-106301496D01*
X137446880Y-106353530D01*
X137426700Y-106375200D01*
X137386825Y-106393678D01*
X137347751Y-106372918D01*
X137311667Y-106353564D01*
X137281137Y-106374849D01*
X137271551Y-106387363D01*
X137239664Y-106444223D01*
X137245713Y-106473579D01*
X137260745Y-106476800D01*
X137292589Y-106492709D01*
X137345352Y-106533049D01*
X137374307Y-106558497D01*
X137463325Y-106640195D01*
X137408835Y-106698197D01*
X137346631Y-106744923D01*
X137291557Y-106752076D01*
X137254055Y-106719036D01*
X137249628Y-106707693D01*
X137211364Y-106637557D01*
X137163667Y-106611419D01*
X137118841Y-106627362D01*
X137089193Y-106683470D01*
X137083800Y-106733517D01*
X137080614Y-106797510D01*
X137063330Y-106825517D01*
X137020353Y-106832293D01*
X137006100Y-106832400D01*
X136956806Y-106838879D01*
X136942275Y-106854619D01*
X136943015Y-106856044D01*
X136940227Y-106888870D01*
X136933569Y-106894559D01*
X136900568Y-106891622D01*
X136893556Y-106883614D01*
X136889479Y-106840745D01*
X136893300Y-106832400D01*
X136891286Y-106808994D01*
X136882099Y-106807000D01*
X136869078Y-106794300D01*
X137033000Y-106794300D01*
X137045700Y-106807000D01*
X137058400Y-106794300D01*
X137045700Y-106781600D01*
X137033000Y-106794300D01*
X136869078Y-106794300D01*
X136861146Y-106786565D01*
X136856224Y-106739778D01*
X136867096Y-106688410D01*
X136883675Y-106661684D01*
X136889087Y-106645038D01*
X136853952Y-106642226D01*
X136807718Y-106647216D01*
X136709272Y-106647319D01*
X136660187Y-106626161D01*
X136629490Y-106604761D01*
X136628599Y-106620915D01*
X136634253Y-106636869D01*
X136638777Y-106668162D01*
X136626309Y-106667120D01*
X136604044Y-106630982D01*
X136600811Y-106608650D01*
X136594375Y-106583050D01*
X136581090Y-106596109D01*
X136546296Y-106612453D01*
X136527425Y-106605299D01*
X136506556Y-106572199D01*
X136510800Y-106555425D01*
X136539641Y-106536958D01*
X136549493Y-106539739D01*
X136574565Y-106531511D01*
X136586281Y-106511523D01*
X136603723Y-106489109D01*
X136641495Y-106479433D01*
X136711617Y-106480633D01*
X136760392Y-106484534D01*
X136842422Y-106491511D01*
X136877122Y-106492788D01*
X136867723Y-106487605D01*
X136817454Y-106475203D01*
X136808727Y-106473169D01*
X136728381Y-106445599D01*
X136682429Y-106403315D01*
X136669027Y-106377448D01*
X136636595Y-106329045D01*
X136604375Y-106319018D01*
X136579702Y-106313768D01*
X136581610Y-106295825D01*
X136605834Y-106271519D01*
X136656966Y-106272531D01*
X136740995Y-106299755D01*
X136812458Y-106330288D01*
X136902483Y-106363081D01*
X136965244Y-106361778D01*
X137010163Y-106321389D01*
X137046667Y-106236924D01*
X137051020Y-106222800D01*
X137293918Y-106222800D01*
X137295899Y-106277736D01*
X137300965Y-106292817D01*
X137304925Y-106279950D01*
X137309127Y-106205934D01*
X137304925Y-106165650D01*
X137298644Y-106153613D01*
X137294658Y-106185525D01*
X137293918Y-106222800D01*
X137051020Y-106222800D01*
X137057959Y-106200286D01*
X137095796Y-106103267D01*
X137142603Y-106047535D01*
X137160000Y-106037097D01*
X137216010Y-105985231D01*
X137233359Y-105912112D01*
X137211425Y-105830151D01*
X137173100Y-105774975D01*
X137107234Y-105702100D01*
X137158922Y-105791000D01*
X137200001Y-105882882D01*
X137207527Y-105954801D01*
X137181072Y-105998958D01*
X137170622Y-106004182D01*
X137133776Y-106017495D01*
X137126172Y-106019582D01*
X137121780Y-105997627D01*
X137117895Y-105950595D01*
X137095320Y-105882439D01*
X137046114Y-105828483D01*
X136985739Y-105802357D01*
X136952735Y-105804990D01*
X136899992Y-105801797D01*
X136823431Y-105773245D01*
X136790573Y-105756229D01*
X136729833Y-105724955D01*
X136694795Y-105712256D01*
X136691221Y-105716614D01*
X136721803Y-105742650D01*
X136779892Y-105778078D01*
X136801472Y-105789506D01*
X136891747Y-105844873D01*
X136941245Y-105896538D01*
X136945927Y-105940154D01*
X136944261Y-105943138D01*
X136918695Y-105946103D01*
X136877776Y-105907472D01*
X136876731Y-105906151D01*
X136828940Y-105861495D01*
X136784167Y-105843392D01*
X136783506Y-105843410D01*
X136762650Y-105848974D01*
X136789015Y-105864343D01*
X136796389Y-105867377D01*
X136863734Y-105919878D01*
X136900749Y-106002926D01*
X136904983Y-106049680D01*
X136902734Y-106088052D01*
X136892580Y-106085199D01*
X136867470Y-106041318D01*
X136817435Y-105986946D01*
X136729178Y-105929289D01*
X136676003Y-105902592D01*
X136569029Y-105847530D01*
X136545633Y-105829100D01*
X136702800Y-105829100D01*
X136715500Y-105841800D01*
X136728200Y-105829100D01*
X136715500Y-105816400D01*
X136702800Y-105829100D01*
X136545633Y-105829100D01*
X136508255Y-105799656D01*
X136490706Y-105753419D01*
X136513405Y-105703264D01*
X136548908Y-105665392D01*
X136597457Y-105612258D01*
X136624059Y-105567971D01*
X136625827Y-105558559D01*
X136616083Y-105547997D01*
X136596679Y-105573192D01*
X136556632Y-105625400D01*
X136506216Y-105675489D01*
X136459968Y-105735743D01*
X136445180Y-105791697D01*
X136450924Y-105866999D01*
X136463899Y-105958230D01*
X136480799Y-106047163D01*
X136498316Y-106115573D01*
X136508445Y-106140362D01*
X136509128Y-106167570D01*
X136490128Y-106172000D01*
X136443380Y-106149211D01*
X136395996Y-106089765D01*
X136356104Y-106007045D01*
X136331834Y-105914431D01*
X136331274Y-105910499D01*
X136325624Y-105832178D01*
X136339116Y-105781242D01*
X136369563Y-105743236D01*
X136408286Y-105695663D01*
X136423400Y-105660574D01*
X136410340Y-105658225D01*
X136378175Y-105689530D01*
X136370756Y-105698674D01*
X136312869Y-105749459D01*
X136253459Y-105766198D01*
X136212413Y-105749346D01*
X136217304Y-105722024D01*
X136247764Y-105670268D01*
X136273917Y-105634916D01*
X136317267Y-105570797D01*
X136359608Y-105492926D01*
X136395896Y-105413294D01*
X136418530Y-105350934D01*
X136617928Y-105350934D01*
X136642683Y-105392410D01*
X136644464Y-105394812D01*
X136683193Y-105439232D01*
X136698982Y-105443888D01*
X136686589Y-105410197D01*
X136673050Y-105387073D01*
X136640212Y-105346263D01*
X136619304Y-105333800D01*
X136617928Y-105350934D01*
X136418530Y-105350934D01*
X136421087Y-105343890D01*
X136427959Y-105308054D01*
X136496456Y-105308054D01*
X136498496Y-105308400D01*
X136527290Y-105290615D01*
X136572261Y-105246242D01*
X136587286Y-105229010D01*
X136603171Y-105206800D01*
X136680529Y-105206800D01*
X136683351Y-105265386D01*
X136693248Y-105324958D01*
X136706358Y-105367992D01*
X136718211Y-105377654D01*
X136719146Y-105349692D01*
X136711145Y-105289381D01*
X136705068Y-105255997D01*
X136691774Y-105200827D01*
X136682941Y-105189733D01*
X136680529Y-105206800D01*
X136603171Y-105206800D01*
X136625046Y-105176216D01*
X136639039Y-105139763D01*
X136636866Y-105133760D01*
X136615288Y-105138598D01*
X136606670Y-105154556D01*
X136580268Y-105197692D01*
X136535102Y-105249806D01*
X136501579Y-105289012D01*
X136496456Y-105308054D01*
X136427959Y-105308054D01*
X136430137Y-105296703D01*
X136421975Y-105283000D01*
X136421042Y-105264662D01*
X136444500Y-105218259D01*
X136462265Y-105190555D01*
X136493423Y-105138393D01*
X136512267Y-105084840D01*
X136521760Y-105014963D01*
X136524869Y-104913827D01*
X136525000Y-104874554D01*
X136522135Y-104768267D01*
X136514372Y-104686367D01*
X136502957Y-104640166D01*
X136498581Y-104634670D01*
X136482876Y-104640414D01*
X136488248Y-104682430D01*
X136504333Y-104746518D01*
X136374694Y-104697259D01*
X136292005Y-104669264D01*
X136221974Y-104651419D01*
X136194527Y-104648000D01*
X136152651Y-104635767D01*
X136151643Y-104631502D01*
X136401867Y-104631502D01*
X136416682Y-104647935D01*
X136418565Y-104648000D01*
X136447915Y-104627648D01*
X136458799Y-104607777D01*
X136459488Y-104578001D01*
X136444054Y-104577615D01*
X136413592Y-104600882D01*
X136401867Y-104631502D01*
X136151643Y-104631502D01*
X136146658Y-104610416D01*
X136147394Y-104609900D01*
X136347200Y-104609900D01*
X136359900Y-104622600D01*
X136372600Y-104609900D01*
X136359900Y-104597200D01*
X136347200Y-104609900D01*
X136147394Y-104609900D01*
X136173530Y-104591589D01*
X136196318Y-104568123D01*
X136211494Y-104529611D01*
X136211458Y-104499825D01*
X136204224Y-104495599D01*
X136178023Y-104509084D01*
X136129506Y-104541957D01*
X136123921Y-104546022D01*
X136087798Y-104568729D01*
X136047259Y-104582213D01*
X135990530Y-104587686D01*
X135905839Y-104586363D01*
X135792670Y-104580158D01*
X135668426Y-104571003D01*
X135581332Y-104559652D01*
X135517746Y-104542846D01*
X135464030Y-104517323D01*
X135424370Y-104492098D01*
X135354405Y-104450069D01*
X135295678Y-104423995D01*
X135275816Y-104419862D01*
X135237852Y-104397646D01*
X135222125Y-104362250D01*
X135215900Y-104353827D01*
X135210599Y-104388598D01*
X135207659Y-104450256D01*
X135201754Y-104539432D01*
X135186636Y-104591520D01*
X135158176Y-104619977D01*
X135155069Y-104621706D01*
X135112751Y-104642571D01*
X135097919Y-104647801D01*
X135092540Y-104624798D01*
X135087484Y-104566097D01*
X135085154Y-104518172D01*
X135078662Y-104426967D01*
X135064940Y-104379607D01*
X135039928Y-104369239D01*
X135006131Y-104384781D01*
X134972206Y-104434699D01*
X134951788Y-104533336D01*
X134950200Y-104548983D01*
X134937500Y-104686100D01*
X134893050Y-104623298D01*
X134858282Y-104566975D01*
X134853888Y-104523782D01*
X134880659Y-104471768D01*
X134899487Y-104444676D01*
X134930175Y-104385976D01*
X134936844Y-104338585D01*
X134935856Y-104335375D01*
X134937319Y-104293336D01*
X134948468Y-104280770D01*
X134974191Y-104248941D01*
X134975600Y-104240668D01*
X134960270Y-104245348D01*
X134920201Y-104280399D01*
X134867650Y-104334433D01*
X134803318Y-104411122D01*
X134769850Y-104473325D01*
X134758472Y-104538328D01*
X134758113Y-104550289D01*
X134748315Y-104623842D01*
X134713704Y-104680671D01*
X134669213Y-104722246D01*
X134614966Y-104764075D01*
X134578650Y-104785296D01*
X134571776Y-104785682D01*
X134578923Y-104761183D01*
X134608458Y-104709778D01*
X134630961Y-104675908D01*
X134678178Y-104588929D01*
X134689517Y-104519841D01*
X134688994Y-104516698D01*
X134680629Y-104478365D01*
X134676549Y-104487619D01*
X134674259Y-104524239D01*
X134657796Y-104587005D01*
X134632699Y-104622600D01*
X134607189Y-104636759D01*
X134596470Y-104615685D01*
X134594600Y-104567290D01*
X134603017Y-104499045D01*
X134623442Y-104451641D01*
X134625080Y-104449880D01*
X134639768Y-104424019D01*
X134629079Y-104419400D01*
X134602170Y-104440036D01*
X134566586Y-104491733D01*
X134554149Y-104514650D01*
X134522363Y-104576435D01*
X134501179Y-104616317D01*
X134497968Y-104621864D01*
X134480658Y-104614654D01*
X134467608Y-104597213D01*
X134464498Y-104544194D01*
X134494389Y-104480651D01*
X134526733Y-104422419D01*
X134542645Y-104382151D01*
X134543007Y-104378301D01*
X134533496Y-104372882D01*
X134511045Y-104402181D01*
X134481923Y-104453890D01*
X134452401Y-104515699D01*
X134428747Y-104575300D01*
X134417230Y-104620383D01*
X134416930Y-104625839D01*
X134403160Y-104688374D01*
X134378843Y-104724080D01*
X134345689Y-104739381D01*
X134311353Y-104718475D01*
X134290788Y-104695441D01*
X134253072Y-104641559D01*
X134245762Y-104595909D01*
X134271756Y-104545382D01*
X134333955Y-104476868D01*
X134340600Y-104470199D01*
X134402322Y-104404886D01*
X134434877Y-104363576D01*
X134437479Y-104350085D01*
X134409342Y-104368228D01*
X134350782Y-104420767D01*
X134283126Y-104499655D01*
X134221048Y-104594575D01*
X134202946Y-104629643D01*
X134169353Y-104699082D01*
X134147130Y-104729026D01*
X134126578Y-104726209D01*
X134100853Y-104700517D01*
X134067710Y-104634370D01*
X134083815Y-104566823D01*
X134147841Y-104501248D01*
X134189733Y-104474522D01*
X134248202Y-104437717D01*
X134279881Y-104410392D01*
X134281705Y-104402838D01*
X134250177Y-104403214D01*
X134198309Y-104431303D01*
X134139224Y-104476597D01*
X134086047Y-104528590D01*
X134051901Y-104576773D01*
X134046858Y-104590865D01*
X134031672Y-104655133D01*
X134020856Y-104694845D01*
X134031150Y-104732150D01*
X134069892Y-104783695D01*
X134086533Y-104800337D01*
X134137443Y-104857780D01*
X134154339Y-104912687D01*
X134151869Y-104956692D01*
X134143704Y-105025297D01*
X134139175Y-105074057D01*
X134139114Y-105075179D01*
X134122967Y-105087799D01*
X134075627Y-105064786D01*
X134054849Y-105050771D01*
X134006489Y-105018703D01*
X133994064Y-105016829D01*
X134010400Y-105040472D01*
X134034917Y-105074657D01*
X134025806Y-105080351D01*
X134010400Y-105076067D01*
X133977498Y-105048101D01*
X133934801Y-104989584D01*
X133908800Y-104945010D01*
X133857296Y-104862918D01*
X133816059Y-104829948D01*
X133784127Y-104845679D01*
X133767555Y-104882950D01*
X133737571Y-104936480D01*
X133685323Y-104997701D01*
X133670593Y-105011689D01*
X133630365Y-105050703D01*
X133619465Y-105067368D01*
X133626345Y-105065304D01*
X133651547Y-105063024D01*
X133649786Y-105082614D01*
X133615639Y-105118089D01*
X133556844Y-105122990D01*
X133488396Y-105098504D01*
X133444700Y-105066344D01*
X133398955Y-105015152D01*
X133394185Y-104976633D01*
X133433150Y-104940188D01*
X133484960Y-104911720D01*
X133541823Y-104875981D01*
X133609578Y-104823643D01*
X133675929Y-104765616D01*
X133728580Y-104712806D01*
X133755236Y-104676120D01*
X133756400Y-104670920D01*
X133734895Y-104665706D01*
X133681289Y-104674268D01*
X133661150Y-104679373D01*
X133580201Y-104695100D01*
X133477506Y-104706817D01*
X133417314Y-104710393D01*
X133327590Y-104710104D01*
X133274441Y-104699530D01*
X133244135Y-104675471D01*
X133239754Y-104668994D01*
X133230489Y-104660700D01*
X133273800Y-104660700D01*
X133286500Y-104673400D01*
X133299200Y-104660700D01*
X133286500Y-104648000D01*
X133273800Y-104660700D01*
X133230489Y-104660700D01*
X133197396Y-104631076D01*
X133166887Y-104622599D01*
X133135420Y-104608223D01*
X133137614Y-104584499D01*
X133167942Y-104550772D01*
X133184655Y-104546399D01*
X133216545Y-104525145D01*
X133230359Y-104495600D01*
X133261911Y-104454460D01*
X133317573Y-104449838D01*
X133385206Y-104482658D01*
X133386604Y-104483707D01*
X133448031Y-104510173D01*
X133513604Y-104518053D01*
X133555909Y-104513769D01*
X133549154Y-104506419D01*
X133540500Y-104504364D01*
X133473127Y-104490024D01*
X133429812Y-104480740D01*
X133386063Y-104460293D01*
X133380084Y-104415812D01*
X133381840Y-104405529D01*
X133380620Y-104355319D01*
X133357678Y-104343200D01*
X133332816Y-104331928D01*
X133334729Y-104321958D01*
X133366021Y-104308085D01*
X133429135Y-104298364D01*
X133458453Y-104296534D01*
X133538802Y-104300449D01*
X133596561Y-104326809D01*
X133642076Y-104368575D01*
X133698033Y-104416807D01*
X133747545Y-104443144D01*
X133758019Y-104444800D01*
X133789819Y-104426948D01*
X133848116Y-104377876D01*
X133925623Y-104304301D01*
X134015059Y-104212945D01*
X134051717Y-104173821D01*
X134302500Y-103902843D01*
X134206276Y-103918382D01*
X134120175Y-103946359D01*
X134039218Y-103993725D01*
X134032877Y-103998861D01*
X133975416Y-104034281D01*
X133909265Y-104057762D01*
X133849864Y-104066226D01*
X133812656Y-104056590D01*
X133807200Y-104043876D01*
X133828028Y-104017278D01*
X133879977Y-103980613D01*
X133947239Y-103943274D01*
X134014008Y-103914651D01*
X134035800Y-103908055D01*
X134099300Y-103892010D01*
X134032875Y-103889005D01*
X133966686Y-103902475D01*
X133898897Y-103939152D01*
X133897261Y-103940424D01*
X133847301Y-103974909D01*
X133807219Y-103979951D01*
X133750892Y-103958032D01*
X133744394Y-103954946D01*
X133669811Y-103911253D01*
X133590891Y-103853505D01*
X133579231Y-103843666D01*
X133739466Y-103843666D01*
X133742953Y-103858766D01*
X133756400Y-103860600D01*
X133777307Y-103851306D01*
X133773333Y-103843666D01*
X133743189Y-103840626D01*
X133739466Y-103843666D01*
X133579231Y-103843666D01*
X133575208Y-103840272D01*
X133497772Y-103778336D01*
X133416221Y-103721273D01*
X133415624Y-103720900D01*
X133565900Y-103720900D01*
X133614286Y-103778050D01*
X133657100Y-103819248D01*
X133688370Y-103835200D01*
X133705437Y-103830483D01*
X133703483Y-103828579D01*
X133678165Y-103809684D01*
X133631514Y-103773111D01*
X133629400Y-103771429D01*
X133565900Y-103720900D01*
X133415624Y-103720900D01*
X133402226Y-103712543D01*
X133349768Y-103675884D01*
X133340335Y-103653466D01*
X133353395Y-103644755D01*
X133403966Y-103642526D01*
X133463442Y-103657073D01*
X133517486Y-103672749D01*
X133546813Y-103672253D01*
X133573466Y-103677045D01*
X133626368Y-103703237D01*
X133651240Y-103718093D01*
X133784157Y-103788596D01*
X133892687Y-103817781D01*
X133978800Y-103807328D01*
X134046899Y-103781437D01*
X133920699Y-103707151D01*
X133845427Y-103666346D01*
X133783930Y-103639180D01*
X133757669Y-103632433D01*
X133734994Y-103624365D01*
X133750195Y-103602644D01*
X133781030Y-103590136D01*
X133835825Y-103598404D01*
X133922635Y-103628044D01*
X134025075Y-103664116D01*
X134098978Y-103679364D01*
X134161611Y-103674930D01*
X134230241Y-103651959D01*
X134237616Y-103648889D01*
X134318266Y-103614979D01*
X134196083Y-103574256D01*
X134073900Y-103533534D01*
X134165724Y-103531967D01*
X134250262Y-103515886D01*
X134322130Y-103479600D01*
X134380803Y-103443630D01*
X134430508Y-103428800D01*
X134472871Y-103417504D01*
X134532841Y-103390041D01*
X134592869Y-103356044D01*
X134635412Y-103325148D01*
X134645399Y-103310803D01*
X134625811Y-103314524D01*
X134576216Y-103338010D01*
X134546166Y-103354322D01*
X134461954Y-103391246D01*
X134392053Y-103394720D01*
X134374716Y-103390915D01*
X134333387Y-103374655D01*
X134331115Y-103361225D01*
X134332692Y-103360570D01*
X134341884Y-103336440D01*
X134309062Y-103287502D01*
X134259758Y-103238262D01*
X134229146Y-103232058D01*
X134208722Y-103269016D01*
X134203169Y-103289099D01*
X134184257Y-103336628D01*
X134166608Y-103352600D01*
X134137016Y-103329230D01*
X134107893Y-103266899D01*
X134083888Y-103177271D01*
X134074749Y-103122079D01*
X134061616Y-103049968D01*
X134042168Y-103016034D01*
X134008575Y-103007678D01*
X134003708Y-103007779D01*
X133970763Y-103003764D01*
X133954207Y-102980430D01*
X133948591Y-102925284D01*
X133948184Y-102880471D01*
X133947352Y-102805839D01*
X133941660Y-102774458D01*
X133926733Y-102778778D01*
X133904029Y-102804271D01*
X133876294Y-102834619D01*
X133863359Y-102832180D01*
X133859352Y-102789814D01*
X133858845Y-102749350D01*
X133853654Y-102683402D01*
X133841602Y-102645212D01*
X133835710Y-102641400D01*
X133795116Y-102663103D01*
X133771848Y-102714298D01*
X133773160Y-102763507D01*
X133769463Y-102830760D01*
X133729646Y-102880139D01*
X133677887Y-102895399D01*
X133643918Y-102908784D01*
X133645614Y-102933499D01*
X133645767Y-102966187D01*
X133634835Y-102971599D01*
X133604945Y-102951235D01*
X133594017Y-102931422D01*
X133582126Y-102875795D01*
X133578804Y-102806556D01*
X133583301Y-102741740D01*
X133594862Y-102699386D01*
X133604000Y-102692200D01*
X133627563Y-102672121D01*
X133629399Y-102660209D01*
X133648871Y-102623371D01*
X133682673Y-102594949D01*
X133717330Y-102564677D01*
X133720353Y-102546086D01*
X133686945Y-102537514D01*
X133621170Y-102533878D01*
X133541183Y-102534782D01*
X133465136Y-102539826D01*
X133411182Y-102548612D01*
X133399792Y-102553122D01*
X133367772Y-102546705D01*
X133314048Y-102512688D01*
X133274674Y-102480111D01*
X133175863Y-102390842D01*
X133236638Y-102351021D01*
X133314916Y-102317274D01*
X133400725Y-102319360D01*
X133505679Y-102358193D01*
X133538060Y-102374700D01*
X133638610Y-102421700D01*
X133703128Y-102436932D01*
X133730202Y-102420116D01*
X133731000Y-102412800D01*
X133714363Y-102388112D01*
X133709256Y-102387400D01*
X133682337Y-102367955D01*
X133638128Y-102318223D01*
X133586085Y-102251111D01*
X133535660Y-102179521D01*
X133496307Y-102116360D01*
X133477479Y-102074531D01*
X133476999Y-102070352D01*
X133493601Y-102027102D01*
X133503433Y-102018461D01*
X133518474Y-101984218D01*
X133514421Y-101953462D01*
X133516496Y-101914865D01*
X133543244Y-101904332D01*
X133575890Y-101923601D01*
X133575890Y-101923601D01*
G37*
X133575890Y-101923601D02*
X133589180Y-101946535D01*
X133609558Y-101974429D01*
X133620637Y-101972829D01*
X133655136Y-101966848D01*
X133694772Y-101996577D01*
X133727279Y-102050001D01*
X133738184Y-102087980D01*
X133754650Y-102156677D01*
X133779593Y-102231555D01*
X133807316Y-102298758D01*
X133832123Y-102344431D01*
X133847988Y-102355078D01*
X133854659Y-102325414D01*
X133860786Y-102258612D01*
X133865169Y-102168326D01*
X133865550Y-102155482D01*
X133869236Y-102059603D01*
X133876024Y-102004154D01*
X133889374Y-101978769D01*
X133912745Y-101973080D01*
X133926104Y-101974041D01*
X133973570Y-101964354D01*
X133989604Y-101943423D01*
X134002771Y-101923428D01*
X134034439Y-101936017D01*
X134060141Y-101954483D01*
X134122582Y-102001901D01*
X134055158Y-102137500D01*
X134014091Y-102231074D01*
X133981864Y-102324036D01*
X133970445Y-102370455D01*
X133963827Y-102427174D01*
X133972994Y-102471259D01*
X134005042Y-102518774D01*
X134064328Y-102582942D01*
X134146480Y-102661178D01*
X134246256Y-102746759D01*
X134323533Y-102807182D01*
X134414075Y-102879530D01*
X134501550Y-102958616D01*
X134558887Y-103018305D01*
X134607771Y-103078054D01*
X134625692Y-103111185D01*
X134616247Y-103128312D01*
X134598582Y-103135435D01*
X134534401Y-103139435D01*
X134502997Y-103132148D01*
X134472315Y-103122447D01*
X134470486Y-103134527D01*
X134497223Y-103178122D01*
X134501448Y-103184575D01*
X134530576Y-103234295D01*
X134540050Y-103261609D01*
X134539479Y-103262552D01*
X134513564Y-103278130D01*
X134461496Y-103306621D01*
X134454900Y-103310131D01*
X134414865Y-103336542D01*
X134412040Y-103350830D01*
X134417498Y-103351583D01*
X134468416Y-103338723D01*
X134506398Y-103318304D01*
X134564548Y-103291732D01*
X134642808Y-103270713D01*
X134656618Y-103268311D01*
X134756736Y-103252613D01*
X134581099Y-103429606D01*
X134502921Y-103505235D01*
X134435452Y-103564743D01*
X134388031Y-103600187D01*
X134373031Y-103606600D01*
X134343104Y-103626297D01*
X134340600Y-103638590D01*
X134317440Y-103679802D01*
X134254628Y-103724975D01*
X134162166Y-103767342D01*
X134137400Y-103776097D01*
X134091351Y-103795116D01*
X134083836Y-103806596D01*
X134091296Y-103807847D01*
X134146669Y-103800511D01*
X134201531Y-103784159D01*
X134249489Y-103772593D01*
X134289328Y-103787018D01*
X134340016Y-103834581D01*
X134342539Y-103837275D01*
X134388749Y-103894816D01*
X134399936Y-103936779D01*
X134391081Y-103962795D01*
X134349523Y-104008599D01*
X134321349Y-104023748D01*
X134276559Y-104056896D01*
X134251472Y-104095291D01*
X134212600Y-104144453D01*
X134149518Y-104191245D01*
X134137400Y-104197800D01*
X134089885Y-104224114D01*
X134088245Y-104231917D01*
X134112000Y-104227433D01*
X134180914Y-104200685D01*
X134239527Y-104166801D01*
X134330657Y-104132480D01*
X134385265Y-104133681D01*
X134456919Y-104136709D01*
X134511738Y-104127287D01*
X134561421Y-104116184D01*
X134640930Y-104107420D01*
X134699446Y-104104174D01*
X134842392Y-104099449D01*
X134811579Y-104188451D01*
X134781030Y-104247099D01*
X134735576Y-104304595D01*
X134687067Y-104349172D01*
X134647354Y-104369065D01*
X134633550Y-104365216D01*
X134631171Y-104334694D01*
X134642440Y-104277463D01*
X134644061Y-104271667D01*
X134654604Y-104212996D01*
X134643979Y-104190806D01*
X134643626Y-104190800D01*
X134625323Y-104212383D01*
X134620000Y-104249220D01*
X134607829Y-104308504D01*
X134590352Y-104337287D01*
X134577305Y-104365226D01*
X134607035Y-104384713D01*
X134676234Y-104386150D01*
X134745361Y-104342634D01*
X134807802Y-104259588D01*
X134838606Y-104194802D01*
X134879944Y-104099304D01*
X134917610Y-104042187D01*
X134963571Y-104013502D01*
X135029796Y-104003298D01*
X135070416Y-104002069D01*
X135191631Y-104000300D01*
X135182679Y-104094168D01*
X135185900Y-104172670D01*
X135220763Y-104233910D01*
X135238609Y-104252918D01*
X135298630Y-104301351D01*
X135345180Y-104318521D01*
X135369652Y-104303902D01*
X135364816Y-104260650D01*
X135348359Y-104182175D01*
X135346899Y-104095229D01*
X135359350Y-104020189D01*
X135379741Y-103981283D01*
X135401389Y-103966334D01*
X135400517Y-103989990D01*
X135394069Y-104013000D01*
X135374929Y-104073864D01*
X135363096Y-104108250D01*
X135367023Y-104135340D01*
X135399676Y-104137629D01*
X135446916Y-104117573D01*
X135485896Y-104086903D01*
X135519366Y-104040913D01*
X135531998Y-103980928D01*
X135530346Y-103909087D01*
X135530360Y-103833712D01*
X135540340Y-103790822D01*
X135556545Y-103786240D01*
X135575233Y-103825787D01*
X135577840Y-103835200D01*
X135601447Y-103879664D01*
X135631653Y-103875690D01*
X135659674Y-103828850D01*
X135677791Y-103790884D01*
X135691637Y-103798123D01*
X135699673Y-103816150D01*
X135707892Y-103873801D01*
X135703014Y-103898700D01*
X135698823Y-103932309D01*
X135719805Y-103931923D01*
X135756738Y-103900927D01*
X135782329Y-103869579D01*
X135831296Y-103802358D01*
X135981298Y-103912369D01*
X136084161Y-103990301D01*
X136195871Y-104078682D01*
X136271000Y-104140579D01*
X136358681Y-104211066D01*
X136448175Y-104277144D01*
X136512300Y-104319602D01*
X136606403Y-104382748D01*
X136692140Y-104452264D01*
X136759588Y-104518850D01*
X136798825Y-104573202D01*
X136804788Y-104593805D01*
X136819010Y-104651087D01*
X136830960Y-104673400D01*
X136846023Y-104687763D01*
X136843968Y-104658260D01*
X136839131Y-104636127D01*
X136821520Y-104560754D01*
X136931832Y-104655177D01*
X137020517Y-104719675D01*
X137096855Y-104747343D01*
X137126955Y-104749600D01*
X137183572Y-104745779D01*
X137201994Y-104726847D01*
X137196140Y-104687336D01*
X137188804Y-104644801D01*
X137206145Y-104638934D01*
X137245152Y-104655578D01*
X137304691Y-104701997D01*
X137322568Y-104758758D01*
X137295624Y-104813546D01*
X137271784Y-104842745D01*
X137286746Y-104851051D01*
X137293949Y-104851200D01*
X137337213Y-104833736D01*
X137374356Y-104802105D01*
X137405182Y-104735176D01*
X137395517Y-104658094D01*
X137351912Y-104579873D01*
X137280921Y-104509527D01*
X137189099Y-104456069D01*
X137104904Y-104431495D01*
X137019493Y-104410776D01*
X136954585Y-104383291D01*
X136920700Y-104354649D01*
X136923094Y-104334571D01*
X136965382Y-104320147D01*
X137033809Y-104319649D01*
X137105991Y-104331966D01*
X137142619Y-104345456D01*
X137183766Y-104363667D01*
X137188070Y-104359684D01*
X137161987Y-104337883D01*
X137111973Y-104302638D01*
X137044484Y-104258326D01*
X136965975Y-104209320D01*
X136882901Y-104159998D01*
X136803978Y-104115943D01*
X136657034Y-104033921D01*
X136542662Y-103963403D01*
X136464516Y-103906957D01*
X136426255Y-103867154D01*
X136425631Y-103850062D01*
X136463965Y-103843841D01*
X136526441Y-103864166D01*
X136599036Y-103904053D01*
X136667728Y-103956520D01*
X136695496Y-103984458D01*
X136742113Y-104031653D01*
X136772103Y-104051694D01*
X136778046Y-104047467D01*
X136758765Y-104013572D01*
X136743542Y-104004828D01*
X136715834Y-103974488D01*
X136683808Y-103911796D01*
X136666286Y-103865375D01*
X136614990Y-103757599D01*
X136540562Y-103654827D01*
X136523943Y-103636958D01*
X136451539Y-103547671D01*
X136423657Y-103473912D01*
X136423400Y-103467224D01*
X136413355Y-103395749D01*
X136397106Y-103350930D01*
X136383784Y-103310611D01*
X136397426Y-103301800D01*
X136421306Y-103323179D01*
X136455460Y-103378461D01*
X136483113Y-103435150D01*
X136521804Y-103513877D01*
X136558762Y-103575130D01*
X136578043Y-103598160D01*
X136598339Y-103608050D01*
X136607394Y-103587953D01*
X136607401Y-103559217D01*
X136677250Y-103559217D01*
X136687641Y-103638648D01*
X136707564Y-103726633D01*
X136728824Y-103792939D01*
X136800098Y-103927877D01*
X136906624Y-104046795D01*
X136969628Y-104103498D01*
X137014909Y-104141707D01*
X137032977Y-104153425D01*
X137033000Y-104153257D01*
X137024971Y-104124813D01*
X137008312Y-104078374D01*
X136995316Y-104012156D01*
X137005171Y-103959247D01*
X137034552Y-103936822D01*
X137035717Y-103936800D01*
X137053313Y-103958382D01*
X137058400Y-103995011D01*
X137078090Y-104049684D01*
X137132442Y-104122803D01*
X137173919Y-104166461D01*
X137253041Y-104252884D01*
X137335202Y-104356265D01*
X137383469Y-104425300D01*
X137477500Y-104570901D01*
X137485860Y-104476100D01*
X137483789Y-104386467D01*
X137467736Y-104291380D01*
X137464539Y-104279700D01*
X137407534Y-104143878D01*
X137397131Y-104127300D01*
X137464800Y-104127300D01*
X137477500Y-104140000D01*
X137490200Y-104127300D01*
X137477500Y-104114600D01*
X137464800Y-104127300D01*
X137397131Y-104127300D01*
X137318744Y-104002397D01*
X137210606Y-103874601D01*
X137193094Y-103857434D01*
X137138920Y-103809715D01*
X137062995Y-103747805D01*
X136975021Y-103679010D01*
X136884700Y-103610637D01*
X136801734Y-103549995D01*
X136735825Y-103504390D01*
X136696674Y-103481131D01*
X136691451Y-103479600D01*
X136677988Y-103501736D01*
X136677250Y-103559217D01*
X136607401Y-103559217D01*
X136607409Y-103529362D01*
X136605344Y-103492724D01*
X136603350Y-103410247D01*
X136615880Y-103353389D01*
X136651145Y-103299107D01*
X136690395Y-103254017D01*
X136771824Y-103178484D01*
X136858285Y-103133686D01*
X136962739Y-103115933D01*
X137098147Y-103121535D01*
X137139213Y-103126260D01*
X137236358Y-103135804D01*
X137317946Y-103139068D01*
X137367129Y-103135413D01*
X137368636Y-103134974D01*
X137406425Y-103133558D01*
X137410527Y-103155529D01*
X137382510Y-103187701D01*
X137360719Y-103201527D01*
X137307439Y-103230042D01*
X137360719Y-103267361D01*
X137401443Y-103308458D01*
X137414000Y-103339900D01*
X137433042Y-103379715D01*
X137469617Y-103414075D01*
X137504229Y-103448435D01*
X137506499Y-103471767D01*
X137473745Y-103474218D01*
X137444531Y-103459590D01*
X137383391Y-103422851D01*
X137321732Y-103395964D01*
X137277273Y-103386006D01*
X137267588Y-103388944D01*
X137278907Y-103410773D01*
X137319750Y-103458381D01*
X137382379Y-103523023D01*
X137410811Y-103550745D01*
X137482431Y-103625061D01*
X137536384Y-103691612D01*
X137563914Y-103739213D01*
X137565712Y-103748640D01*
X137559285Y-103770991D01*
X137536379Y-103761406D01*
X137489975Y-103716324D01*
X137479063Y-103704679D01*
X137419928Y-103648741D01*
X137381349Y-103632311D01*
X137365450Y-103639909D01*
X137344141Y-103648096D01*
X137337800Y-103610498D01*
X137312902Y-103551034D01*
X137258818Y-103510168D01*
X137161929Y-103451317D01*
X137105126Y-103400116D01*
X137080351Y-103348006D01*
X137077450Y-103317479D01*
X137058738Y-103254506D01*
X137010134Y-103220525D01*
X136942929Y-103214792D01*
X136868417Y-103236561D01*
X136797891Y-103285087D01*
X136754283Y-103338794D01*
X136721044Y-103398089D01*
X136703857Y-103439543D01*
X136703188Y-103444498D01*
X136713909Y-103446535D01*
X136727386Y-103429246D01*
X136748849Y-103410041D01*
X136779614Y-103421915D01*
X136822247Y-103459023D01*
X136873666Y-103503999D01*
X136952654Y-103568706D01*
X137046066Y-103642492D01*
X137096500Y-103681309D01*
X137226087Y-103787239D01*
X137329423Y-103886331D01*
X137401333Y-103972871D01*
X137436644Y-104041143D01*
X137439400Y-104060052D01*
X137449141Y-104077135D01*
X137482208Y-104056987D01*
X137502900Y-104038400D01*
X137566400Y-103978744D01*
X137566011Y-104053022D01*
X137558928Y-104118517D01*
X137544806Y-104160110D01*
X137539106Y-104202150D01*
X137546622Y-104271613D01*
X137563265Y-104348159D01*
X137584943Y-104411451D01*
X137600378Y-104436445D01*
X137609511Y-104434663D01*
X137603878Y-104414239D01*
X137609384Y-104363726D01*
X137642752Y-104317647D01*
X137689490Y-104278833D01*
X137709093Y-104282618D01*
X137701425Y-104328570D01*
X137670831Y-104406215D01*
X137634899Y-104515535D01*
X137631776Y-104618688D01*
X137633578Y-104633405D01*
X137639195Y-104706786D01*
X137626597Y-104750288D01*
X137593495Y-104781113D01*
X137560145Y-104807027D01*
X137563362Y-104821253D01*
X137609056Y-104832870D01*
X137629735Y-104836793D01*
X137705186Y-104844205D01*
X137766629Y-104839307D01*
X137770710Y-104838147D01*
X137810314Y-104835561D01*
X137820400Y-104847470D01*
X137798367Y-104869247D01*
X137744642Y-104888830D01*
X137737850Y-104890381D01*
X137658791Y-104914428D01*
X137572817Y-104950110D01*
X137561335Y-104955759D01*
X137485458Y-104985803D01*
X137425203Y-104985657D01*
X137400932Y-104978060D01*
X137336556Y-104956415D01*
X137317202Y-104957672D01*
X137342520Y-104981877D01*
X137347473Y-104985545D01*
X137378859Y-105028552D01*
X137374929Y-105087324D01*
X137357602Y-105156358D01*
X137258801Y-105054550D01*
X137204407Y-104994530D01*
X137168522Y-104947323D01*
X137160000Y-104928869D01*
X137141822Y-104893970D01*
X137139068Y-104892061D01*
X137123520Y-104902477D01*
X137120018Y-104934220D01*
X137103502Y-104983815D01*
X137077450Y-104998319D01*
X137040857Y-104989524D01*
X137033000Y-104956505D01*
X137017339Y-104914867D01*
X136979853Y-104867573D01*
X136975647Y-104863900D01*
X137210800Y-104863900D01*
X137223500Y-104876600D01*
X137236200Y-104863900D01*
X137223500Y-104851200D01*
X137210800Y-104863900D01*
X136975647Y-104863900D01*
X136934787Y-104828218D01*
X136896388Y-104810395D01*
X136883798Y-104814134D01*
X136874355Y-104848151D01*
X136868262Y-104918155D01*
X136865509Y-105009445D01*
X136866086Y-105107320D01*
X136869981Y-105197080D01*
X136877184Y-105264021D01*
X136884145Y-105289350D01*
X136922343Y-105327029D01*
X136965502Y-105329073D01*
X136990849Y-105302050D01*
X137007909Y-105284958D01*
X137028716Y-105306096D01*
X137042548Y-105362854D01*
X137010471Y-105415866D01*
X136981051Y-105436014D01*
X136916619Y-105449349D01*
X136858750Y-105415017D01*
X136805040Y-105331517D01*
X136801343Y-105323725D01*
X136773088Y-105265632D01*
X136761672Y-105251524D01*
X136763816Y-105278742D01*
X136766822Y-105295700D01*
X136805295Y-105387468D01*
X136874564Y-105450961D01*
X136962411Y-105476745D01*
X136998534Y-105474627D01*
X137078024Y-105453243D01*
X137144772Y-105422020D01*
X137202357Y-105397219D01*
X137264712Y-105406729D01*
X137277221Y-105411298D01*
X137350500Y-105439346D01*
X137290536Y-105488173D01*
X137254199Y-105521776D01*
X137247556Y-105536929D01*
X137248429Y-105537000D01*
X137278889Y-105522744D01*
X137328312Y-105488196D01*
X137331326Y-105485840D01*
X137386351Y-105453406D01*
X137450429Y-105444610D01*
X137513132Y-105450109D01*
X137590132Y-105455747D01*
X137646736Y-105442539D01*
X137707926Y-105403168D01*
X137728642Y-105386968D01*
X137787142Y-105341764D01*
X137827145Y-105313360D01*
X137836592Y-105308400D01*
X137846110Y-105325162D01*
X137820074Y-105373407D01*
X137760175Y-105450066D01*
X137755500Y-105455550D01*
X137699132Y-105516892D01*
X137654675Y-105546858D01*
X137603441Y-105554623D01*
X137558650Y-105552194D01*
X137506779Y-105549115D01*
X137495249Y-105551282D01*
X137507391Y-105554379D01*
X137572930Y-105583383D01*
X137614747Y-105645547D01*
X137630611Y-105695892D01*
X137631852Y-105746848D01*
X137609239Y-105763580D01*
X137574928Y-105747696D01*
X137541075Y-105700805D01*
X137533594Y-105683050D01*
X137495238Y-105647554D01*
X137446547Y-105642405D01*
X137375900Y-105646211D01*
X137446891Y-105656902D01*
X137496456Y-105671560D01*
X137506070Y-105701434D01*
X137501934Y-105717840D01*
X137505744Y-105778194D01*
X137542288Y-105855182D01*
X137604392Y-105934013D01*
X137609158Y-105938864D01*
X137640227Y-105984559D01*
X137624100Y-106011563D01*
X137568243Y-106019600D01*
X137496843Y-105997667D01*
X137432128Y-105943284D01*
X137391883Y-105873571D01*
X137386594Y-105844724D01*
X137379794Y-105823236D01*
X137372247Y-105834041D01*
X137375625Y-105886764D01*
X137414021Y-105955310D01*
X137480156Y-106027372D01*
X137493422Y-106038909D01*
X137553066Y-106112534D01*
X137566400Y-106174257D01*
X137556351Y-106233346D01*
X137530070Y-106248996D01*
X137493359Y-106223541D01*
X137452015Y-106159317D01*
X137434605Y-106121200D01*
X137402017Y-106050796D01*
X137374284Y-106004679D01*
X137362106Y-105994200D01*
X137361266Y-106014640D01*
X137379590Y-106067468D01*
X137403593Y-106121075D01*
X137448159Y-106226939D01*
X137462322Y-106301496D01*
X137446880Y-106353530D01*
X137426700Y-106375200D01*
X137386825Y-106393678D01*
X137347751Y-106372918D01*
X137311667Y-106353564D01*
X137281137Y-106374849D01*
X137271551Y-106387363D01*
X137239664Y-106444223D01*
X137245713Y-106473579D01*
X137260745Y-106476800D01*
X137292589Y-106492709D01*
X137345352Y-106533049D01*
X137374307Y-106558497D01*
X137463325Y-106640195D01*
X137408835Y-106698197D01*
X137346631Y-106744923D01*
X137291557Y-106752076D01*
X137254055Y-106719036D01*
X137249628Y-106707693D01*
X137211364Y-106637557D01*
X137163667Y-106611419D01*
X137118841Y-106627362D01*
X137089193Y-106683470D01*
X137083800Y-106733517D01*
X137080614Y-106797510D01*
X137063330Y-106825517D01*
X137020353Y-106832293D01*
X137006100Y-106832400D01*
X136956806Y-106838879D01*
X136942275Y-106854619D01*
X136943015Y-106856044D01*
X136940227Y-106888870D01*
X136933569Y-106894559D01*
X136900568Y-106891622D01*
X136893556Y-106883614D01*
X136889479Y-106840745D01*
X136893300Y-106832400D01*
X136891286Y-106808994D01*
X136882099Y-106807000D01*
X136869078Y-106794300D01*
X137033000Y-106794300D01*
X137045700Y-106807000D01*
X137058400Y-106794300D01*
X137045700Y-106781600D01*
X137033000Y-106794300D01*
X136869078Y-106794300D01*
X136861146Y-106786565D01*
X136856224Y-106739778D01*
X136867096Y-106688410D01*
X136883675Y-106661684D01*
X136889087Y-106645038D01*
X136853952Y-106642226D01*
X136807718Y-106647216D01*
X136709272Y-106647319D01*
X136660187Y-106626161D01*
X136629490Y-106604761D01*
X136628599Y-106620915D01*
X136634253Y-106636869D01*
X136638777Y-106668162D01*
X136626309Y-106667120D01*
X136604044Y-106630982D01*
X136600811Y-106608650D01*
X136594375Y-106583050D01*
X136581090Y-106596109D01*
X136546296Y-106612453D01*
X136527425Y-106605299D01*
X136506556Y-106572199D01*
X136510800Y-106555425D01*
X136539641Y-106536958D01*
X136549493Y-106539739D01*
X136574565Y-106531511D01*
X136586281Y-106511523D01*
X136603723Y-106489109D01*
X136641495Y-106479433D01*
X136711617Y-106480633D01*
X136760392Y-106484534D01*
X136842422Y-106491511D01*
X136877122Y-106492788D01*
X136867723Y-106487605D01*
X136817454Y-106475203D01*
X136808727Y-106473169D01*
X136728381Y-106445599D01*
X136682429Y-106403315D01*
X136669027Y-106377448D01*
X136636595Y-106329045D01*
X136604375Y-106319018D01*
X136579702Y-106313768D01*
X136581610Y-106295825D01*
X136605834Y-106271519D01*
X136656966Y-106272531D01*
X136740995Y-106299755D01*
X136812458Y-106330288D01*
X136902483Y-106363081D01*
X136965244Y-106361778D01*
X137010163Y-106321389D01*
X137046667Y-106236924D01*
X137051020Y-106222800D01*
X137293918Y-106222800D01*
X137295899Y-106277736D01*
X137300965Y-106292817D01*
X137304925Y-106279950D01*
X137309127Y-106205934D01*
X137304925Y-106165650D01*
X137298644Y-106153613D01*
X137294658Y-106185525D01*
X137293918Y-106222800D01*
X137051020Y-106222800D01*
X137057959Y-106200286D01*
X137095796Y-106103267D01*
X137142603Y-106047535D01*
X137160000Y-106037097D01*
X137216010Y-105985231D01*
X137233359Y-105912112D01*
X137211425Y-105830151D01*
X137173100Y-105774975D01*
X137107234Y-105702100D01*
X137158922Y-105791000D01*
X137200001Y-105882882D01*
X137207527Y-105954801D01*
X137181072Y-105998958D01*
X137170622Y-106004182D01*
X137133776Y-106017495D01*
X137126172Y-106019582D01*
X137121780Y-105997627D01*
X137117895Y-105950595D01*
X137095320Y-105882439D01*
X137046114Y-105828483D01*
X136985739Y-105802357D01*
X136952735Y-105804990D01*
X136899992Y-105801797D01*
X136823431Y-105773245D01*
X136790573Y-105756229D01*
X136729833Y-105724955D01*
X136694795Y-105712256D01*
X136691221Y-105716614D01*
X136721803Y-105742650D01*
X136779892Y-105778078D01*
X136801472Y-105789506D01*
X136891747Y-105844873D01*
X136941245Y-105896538D01*
X136945927Y-105940154D01*
X136944261Y-105943138D01*
X136918695Y-105946103D01*
X136877776Y-105907472D01*
X136876731Y-105906151D01*
X136828940Y-105861495D01*
X136784167Y-105843392D01*
X136783506Y-105843410D01*
X136762650Y-105848974D01*
X136789015Y-105864343D01*
X136796389Y-105867377D01*
X136863734Y-105919878D01*
X136900749Y-106002926D01*
X136904983Y-106049680D01*
X136902734Y-106088052D01*
X136892580Y-106085199D01*
X136867470Y-106041318D01*
X136817435Y-105986946D01*
X136729178Y-105929289D01*
X136676003Y-105902592D01*
X136569029Y-105847530D01*
X136545633Y-105829100D01*
X136702800Y-105829100D01*
X136715500Y-105841800D01*
X136728200Y-105829100D01*
X136715500Y-105816400D01*
X136702800Y-105829100D01*
X136545633Y-105829100D01*
X136508255Y-105799656D01*
X136490706Y-105753419D01*
X136513405Y-105703264D01*
X136548908Y-105665392D01*
X136597457Y-105612258D01*
X136624059Y-105567971D01*
X136625827Y-105558559D01*
X136616083Y-105547997D01*
X136596679Y-105573192D01*
X136556632Y-105625400D01*
X136506216Y-105675489D01*
X136459968Y-105735743D01*
X136445180Y-105791697D01*
X136450924Y-105866999D01*
X136463899Y-105958230D01*
X136480799Y-106047163D01*
X136498316Y-106115573D01*
X136508445Y-106140362D01*
X136509128Y-106167570D01*
X136490128Y-106172000D01*
X136443380Y-106149211D01*
X136395996Y-106089765D01*
X136356104Y-106007045D01*
X136331834Y-105914431D01*
X136331274Y-105910499D01*
X136325624Y-105832178D01*
X136339116Y-105781242D01*
X136369563Y-105743236D01*
X136408286Y-105695663D01*
X136423400Y-105660574D01*
X136410340Y-105658225D01*
X136378175Y-105689530D01*
X136370756Y-105698674D01*
X136312869Y-105749459D01*
X136253459Y-105766198D01*
X136212413Y-105749346D01*
X136217304Y-105722024D01*
X136247764Y-105670268D01*
X136273917Y-105634916D01*
X136317267Y-105570797D01*
X136359608Y-105492926D01*
X136395896Y-105413294D01*
X136418530Y-105350934D01*
X136617928Y-105350934D01*
X136642683Y-105392410D01*
X136644464Y-105394812D01*
X136683193Y-105439232D01*
X136698982Y-105443888D01*
X136686589Y-105410197D01*
X136673050Y-105387073D01*
X136640212Y-105346263D01*
X136619304Y-105333800D01*
X136617928Y-105350934D01*
X136418530Y-105350934D01*
X136421087Y-105343890D01*
X136427959Y-105308054D01*
X136496456Y-105308054D01*
X136498496Y-105308400D01*
X136527290Y-105290615D01*
X136572261Y-105246242D01*
X136587286Y-105229010D01*
X136603171Y-105206800D01*
X136680529Y-105206800D01*
X136683351Y-105265386D01*
X136693248Y-105324958D01*
X136706358Y-105367992D01*
X136718211Y-105377654D01*
X136719146Y-105349692D01*
X136711145Y-105289381D01*
X136705068Y-105255997D01*
X136691774Y-105200827D01*
X136682941Y-105189733D01*
X136680529Y-105206800D01*
X136603171Y-105206800D01*
X136625046Y-105176216D01*
X136639039Y-105139763D01*
X136636866Y-105133760D01*
X136615288Y-105138598D01*
X136606670Y-105154556D01*
X136580268Y-105197692D01*
X136535102Y-105249806D01*
X136501579Y-105289012D01*
X136496456Y-105308054D01*
X136427959Y-105308054D01*
X136430137Y-105296703D01*
X136421975Y-105283000D01*
X136421042Y-105264662D01*
X136444500Y-105218259D01*
X136462265Y-105190555D01*
X136493423Y-105138393D01*
X136512267Y-105084840D01*
X136521760Y-105014963D01*
X136524869Y-104913827D01*
X136525000Y-104874554D01*
X136522135Y-104768267D01*
X136514372Y-104686367D01*
X136502957Y-104640166D01*
X136498581Y-104634670D01*
X136482876Y-104640414D01*
X136488248Y-104682430D01*
X136504333Y-104746518D01*
X136374694Y-104697259D01*
X136292005Y-104669264D01*
X136221974Y-104651419D01*
X136194527Y-104648000D01*
X136152651Y-104635767D01*
X136151643Y-104631502D01*
X136401867Y-104631502D01*
X136416682Y-104647935D01*
X136418565Y-104648000D01*
X136447915Y-104627648D01*
X136458799Y-104607777D01*
X136459488Y-104578001D01*
X136444054Y-104577615D01*
X136413592Y-104600882D01*
X136401867Y-104631502D01*
X136151643Y-104631502D01*
X136146658Y-104610416D01*
X136147394Y-104609900D01*
X136347200Y-104609900D01*
X136359900Y-104622600D01*
X136372600Y-104609900D01*
X136359900Y-104597200D01*
X136347200Y-104609900D01*
X136147394Y-104609900D01*
X136173530Y-104591589D01*
X136196318Y-104568123D01*
X136211494Y-104529611D01*
X136211458Y-104499825D01*
X136204224Y-104495599D01*
X136178023Y-104509084D01*
X136129506Y-104541957D01*
X136123921Y-104546022D01*
X136087798Y-104568729D01*
X136047259Y-104582213D01*
X135990530Y-104587686D01*
X135905839Y-104586363D01*
X135792670Y-104580158D01*
X135668426Y-104571003D01*
X135581332Y-104559652D01*
X135517746Y-104542846D01*
X135464030Y-104517323D01*
X135424370Y-104492098D01*
X135354405Y-104450069D01*
X135295678Y-104423995D01*
X135275816Y-104419862D01*
X135237852Y-104397646D01*
X135222125Y-104362250D01*
X135215900Y-104353827D01*
X135210599Y-104388598D01*
X135207659Y-104450256D01*
X135201754Y-104539432D01*
X135186636Y-104591520D01*
X135158176Y-104619977D01*
X135155069Y-104621706D01*
X135112751Y-104642571D01*
X135097919Y-104647801D01*
X135092540Y-104624798D01*
X135087484Y-104566097D01*
X135085154Y-104518172D01*
X135078662Y-104426967D01*
X135064940Y-104379607D01*
X135039928Y-104369239D01*
X135006131Y-104384781D01*
X134972206Y-104434699D01*
X134951788Y-104533336D01*
X134950200Y-104548983D01*
X134937500Y-104686100D01*
X134893050Y-104623298D01*
X134858282Y-104566975D01*
X134853888Y-104523782D01*
X134880659Y-104471768D01*
X134899487Y-104444676D01*
X134930175Y-104385976D01*
X134936844Y-104338585D01*
X134935856Y-104335375D01*
X134937319Y-104293336D01*
X134948468Y-104280770D01*
X134974191Y-104248941D01*
X134975600Y-104240668D01*
X134960270Y-104245348D01*
X134920201Y-104280399D01*
X134867650Y-104334433D01*
X134803318Y-104411122D01*
X134769850Y-104473325D01*
X134758472Y-104538328D01*
X134758113Y-104550289D01*
X134748315Y-104623842D01*
X134713704Y-104680671D01*
X134669213Y-104722246D01*
X134614966Y-104764075D01*
X134578650Y-104785296D01*
X134571776Y-104785682D01*
X134578923Y-104761183D01*
X134608458Y-104709778D01*
X134630961Y-104675908D01*
X134678178Y-104588929D01*
X134689517Y-104519841D01*
X134688994Y-104516698D01*
X134680629Y-104478365D01*
X134676549Y-104487619D01*
X134674259Y-104524239D01*
X134657796Y-104587005D01*
X134632699Y-104622600D01*
X134607189Y-104636759D01*
X134596470Y-104615685D01*
X134594600Y-104567290D01*
X134603017Y-104499045D01*
X134623442Y-104451641D01*
X134625080Y-104449880D01*
X134639768Y-104424019D01*
X134629079Y-104419400D01*
X134602170Y-104440036D01*
X134566586Y-104491733D01*
X134554149Y-104514650D01*
X134522363Y-104576435D01*
X134501179Y-104616317D01*
X134497968Y-104621864D01*
X134480658Y-104614654D01*
X134467608Y-104597213D01*
X134464498Y-104544194D01*
X134494389Y-104480651D01*
X134526733Y-104422419D01*
X134542645Y-104382151D01*
X134543007Y-104378301D01*
X134533496Y-104372882D01*
X134511045Y-104402181D01*
X134481923Y-104453890D01*
X134452401Y-104515699D01*
X134428747Y-104575300D01*
X134417230Y-104620383D01*
X134416930Y-104625839D01*
X134403160Y-104688374D01*
X134378843Y-104724080D01*
X134345689Y-104739381D01*
X134311353Y-104718475D01*
X134290788Y-104695441D01*
X134253072Y-104641559D01*
X134245762Y-104595909D01*
X134271756Y-104545382D01*
X134333955Y-104476868D01*
X134340600Y-104470199D01*
X134402322Y-104404886D01*
X134434877Y-104363576D01*
X134437479Y-104350085D01*
X134409342Y-104368228D01*
X134350782Y-104420767D01*
X134283126Y-104499655D01*
X134221048Y-104594575D01*
X134202946Y-104629643D01*
X134169353Y-104699082D01*
X134147130Y-104729026D01*
X134126578Y-104726209D01*
X134100853Y-104700517D01*
X134067710Y-104634370D01*
X134083815Y-104566823D01*
X134147841Y-104501248D01*
X134189733Y-104474522D01*
X134248202Y-104437717D01*
X134279881Y-104410392D01*
X134281705Y-104402838D01*
X134250177Y-104403214D01*
X134198309Y-104431303D01*
X134139224Y-104476597D01*
X134086047Y-104528590D01*
X134051901Y-104576773D01*
X134046858Y-104590865D01*
X134031672Y-104655133D01*
X134020856Y-104694845D01*
X134031150Y-104732150D01*
X134069892Y-104783695D01*
X134086533Y-104800337D01*
X134137443Y-104857780D01*
X134154339Y-104912687D01*
X134151869Y-104956692D01*
X134143704Y-105025297D01*
X134139175Y-105074057D01*
X134139114Y-105075179D01*
X134122967Y-105087799D01*
X134075627Y-105064786D01*
X134054849Y-105050771D01*
X134006489Y-105018703D01*
X133994064Y-105016829D01*
X134010400Y-105040472D01*
X134034917Y-105074657D01*
X134025806Y-105080351D01*
X134010400Y-105076067D01*
X133977498Y-105048101D01*
X133934801Y-104989584D01*
X133908800Y-104945010D01*
X133857296Y-104862918D01*
X133816059Y-104829948D01*
X133784127Y-104845679D01*
X133767555Y-104882950D01*
X133737571Y-104936480D01*
X133685323Y-104997701D01*
X133670593Y-105011689D01*
X133630365Y-105050703D01*
X133619465Y-105067368D01*
X133626345Y-105065304D01*
X133651547Y-105063024D01*
X133649786Y-105082614D01*
X133615639Y-105118089D01*
X133556844Y-105122990D01*
X133488396Y-105098504D01*
X133444700Y-105066344D01*
X133398955Y-105015152D01*
X133394185Y-104976633D01*
X133433150Y-104940188D01*
X133484960Y-104911720D01*
X133541823Y-104875981D01*
X133609578Y-104823643D01*
X133675929Y-104765616D01*
X133728580Y-104712806D01*
X133755236Y-104676120D01*
X133756400Y-104670920D01*
X133734895Y-104665706D01*
X133681289Y-104674268D01*
X133661150Y-104679373D01*
X133580201Y-104695100D01*
X133477506Y-104706817D01*
X133417314Y-104710393D01*
X133327590Y-104710104D01*
X133274441Y-104699530D01*
X133244135Y-104675471D01*
X133239754Y-104668994D01*
X133230489Y-104660700D01*
X133273800Y-104660700D01*
X133286500Y-104673400D01*
X133299200Y-104660700D01*
X133286500Y-104648000D01*
X133273800Y-104660700D01*
X133230489Y-104660700D01*
X133197396Y-104631076D01*
X133166887Y-104622599D01*
X133135420Y-104608223D01*
X133137614Y-104584499D01*
X133167942Y-104550772D01*
X133184655Y-104546399D01*
X133216545Y-104525145D01*
X133230359Y-104495600D01*
X133261911Y-104454460D01*
X133317573Y-104449838D01*
X133385206Y-104482658D01*
X133386604Y-104483707D01*
X133448031Y-104510173D01*
X133513604Y-104518053D01*
X133555909Y-104513769D01*
X133549154Y-104506419D01*
X133540500Y-104504364D01*
X133473127Y-104490024D01*
X133429812Y-104480740D01*
X133386063Y-104460293D01*
X133380084Y-104415812D01*
X133381840Y-104405529D01*
X133380620Y-104355319D01*
X133357678Y-104343200D01*
X133332816Y-104331928D01*
X133334729Y-104321958D01*
X133366021Y-104308085D01*
X133429135Y-104298364D01*
X133458453Y-104296534D01*
X133538802Y-104300449D01*
X133596561Y-104326809D01*
X133642076Y-104368575D01*
X133698033Y-104416807D01*
X133747545Y-104443144D01*
X133758019Y-104444800D01*
X133789819Y-104426948D01*
X133848116Y-104377876D01*
X133925623Y-104304301D01*
X134015059Y-104212945D01*
X134051717Y-104173821D01*
X134302500Y-103902843D01*
X134206276Y-103918382D01*
X134120175Y-103946359D01*
X134039218Y-103993725D01*
X134032877Y-103998861D01*
X133975416Y-104034281D01*
X133909265Y-104057762D01*
X133849864Y-104066226D01*
X133812656Y-104056590D01*
X133807200Y-104043876D01*
X133828028Y-104017278D01*
X133879977Y-103980613D01*
X133947239Y-103943274D01*
X134014008Y-103914651D01*
X134035800Y-103908055D01*
X134099300Y-103892010D01*
X134032875Y-103889005D01*
X133966686Y-103902475D01*
X133898897Y-103939152D01*
X133897261Y-103940424D01*
X133847301Y-103974909D01*
X133807219Y-103979951D01*
X133750892Y-103958032D01*
X133744394Y-103954946D01*
X133669811Y-103911253D01*
X133590891Y-103853505D01*
X133579231Y-103843666D01*
X133739466Y-103843666D01*
X133742953Y-103858766D01*
X133756400Y-103860600D01*
X133777307Y-103851306D01*
X133773333Y-103843666D01*
X133743189Y-103840626D01*
X133739466Y-103843666D01*
X133579231Y-103843666D01*
X133575208Y-103840272D01*
X133497772Y-103778336D01*
X133416221Y-103721273D01*
X133415624Y-103720900D01*
X133565900Y-103720900D01*
X133614286Y-103778050D01*
X133657100Y-103819248D01*
X133688370Y-103835200D01*
X133705437Y-103830483D01*
X133703483Y-103828579D01*
X133678165Y-103809684D01*
X133631514Y-103773111D01*
X133629400Y-103771429D01*
X133565900Y-103720900D01*
X133415624Y-103720900D01*
X133402226Y-103712543D01*
X133349768Y-103675884D01*
X133340335Y-103653466D01*
X133353395Y-103644755D01*
X133403966Y-103642526D01*
X133463442Y-103657073D01*
X133517486Y-103672749D01*
X133546813Y-103672253D01*
X133573466Y-103677045D01*
X133626368Y-103703237D01*
X133651240Y-103718093D01*
X133784157Y-103788596D01*
X133892687Y-103817781D01*
X133978800Y-103807328D01*
X134046899Y-103781437D01*
X133920699Y-103707151D01*
X133845427Y-103666346D01*
X133783930Y-103639180D01*
X133757669Y-103632433D01*
X133734994Y-103624365D01*
X133750195Y-103602644D01*
X133781030Y-103590136D01*
X133835825Y-103598404D01*
X133922635Y-103628044D01*
X134025075Y-103664116D01*
X134098978Y-103679364D01*
X134161611Y-103674930D01*
X134230241Y-103651959D01*
X134237616Y-103648889D01*
X134318266Y-103614979D01*
X134196083Y-103574256D01*
X134073900Y-103533534D01*
X134165724Y-103531967D01*
X134250262Y-103515886D01*
X134322130Y-103479600D01*
X134380803Y-103443630D01*
X134430508Y-103428800D01*
X134472871Y-103417504D01*
X134532841Y-103390041D01*
X134592869Y-103356044D01*
X134635412Y-103325148D01*
X134645399Y-103310803D01*
X134625811Y-103314524D01*
X134576216Y-103338010D01*
X134546166Y-103354322D01*
X134461954Y-103391246D01*
X134392053Y-103394720D01*
X134374716Y-103390915D01*
X134333387Y-103374655D01*
X134331115Y-103361225D01*
X134332692Y-103360570D01*
X134341884Y-103336440D01*
X134309062Y-103287502D01*
X134259758Y-103238262D01*
X134229146Y-103232058D01*
X134208722Y-103269016D01*
X134203169Y-103289099D01*
X134184257Y-103336628D01*
X134166608Y-103352600D01*
X134137016Y-103329230D01*
X134107893Y-103266899D01*
X134083888Y-103177271D01*
X134074749Y-103122079D01*
X134061616Y-103049968D01*
X134042168Y-103016034D01*
X134008575Y-103007678D01*
X134003708Y-103007779D01*
X133970763Y-103003764D01*
X133954207Y-102980430D01*
X133948591Y-102925284D01*
X133948184Y-102880471D01*
X133947352Y-102805839D01*
X133941660Y-102774458D01*
X133926733Y-102778778D01*
X133904029Y-102804271D01*
X133876294Y-102834619D01*
X133863359Y-102832180D01*
X133859352Y-102789814D01*
X133858845Y-102749350D01*
X133853654Y-102683402D01*
X133841602Y-102645212D01*
X133835710Y-102641400D01*
X133795116Y-102663103D01*
X133771848Y-102714298D01*
X133773160Y-102763507D01*
X133769463Y-102830760D01*
X133729646Y-102880139D01*
X133677887Y-102895399D01*
X133643918Y-102908784D01*
X133645614Y-102933499D01*
X133645767Y-102966187D01*
X133634835Y-102971599D01*
X133604945Y-102951235D01*
X133594017Y-102931422D01*
X133582126Y-102875795D01*
X133578804Y-102806556D01*
X133583301Y-102741740D01*
X133594862Y-102699386D01*
X133604000Y-102692200D01*
X133627563Y-102672121D01*
X133629399Y-102660209D01*
X133648871Y-102623371D01*
X133682673Y-102594949D01*
X133717330Y-102564677D01*
X133720353Y-102546086D01*
X133686945Y-102537514D01*
X133621170Y-102533878D01*
X133541183Y-102534782D01*
X133465136Y-102539826D01*
X133411182Y-102548612D01*
X133399792Y-102553122D01*
X133367772Y-102546705D01*
X133314048Y-102512688D01*
X133274674Y-102480111D01*
X133175863Y-102390842D01*
X133236638Y-102351021D01*
X133314916Y-102317274D01*
X133400725Y-102319360D01*
X133505679Y-102358193D01*
X133538060Y-102374700D01*
X133638610Y-102421700D01*
X133703128Y-102436932D01*
X133730202Y-102420116D01*
X133731000Y-102412800D01*
X133714363Y-102388112D01*
X133709256Y-102387400D01*
X133682337Y-102367955D01*
X133638128Y-102318223D01*
X133586085Y-102251111D01*
X133535660Y-102179521D01*
X133496307Y-102116360D01*
X133477479Y-102074531D01*
X133476999Y-102070352D01*
X133493601Y-102027102D01*
X133503433Y-102018461D01*
X133518474Y-101984218D01*
X133514421Y-101953462D01*
X133516496Y-101914865D01*
X133543244Y-101904332D01*
X133575890Y-101923601D01*
D11*
X139632000Y-83900000D02*
X139252000Y-83900000D01*
X139632000Y-77480000D02*
X139632000Y-83900000D01*
X157872000Y-77480000D02*
X157872000Y-83900000D01*
X139632000Y-77480000D02*
X157872000Y-77480000D01*
X157872000Y-103225000D02*
X156872000Y-103225000D01*
X157872000Y-102445000D02*
X157872000Y-103225000D01*
X139632000Y-103225000D02*
X140632000Y-103225000D01*
X139632000Y-102445000D02*
X139632000Y-103225000D01*
X145390000Y-108555000D02*
X145390000Y-111155000D01*
X139090000Y-113305000D02*
X139090000Y-113055000D01*
X145390000Y-113305000D02*
X139090000Y-113305000D01*
X145390000Y-113055000D02*
X145390000Y-113305000D01*
X139090000Y-111155000D02*
X139090000Y-108555000D01*
X145390000Y-106405000D02*
X145390000Y-106655000D01*
X139090000Y-106405000D02*
X145390000Y-106405000D01*
X139090000Y-106655000D02*
X139090000Y-106405000D01*
X158090000Y-108555000D02*
X158090000Y-111155000D01*
X151790000Y-113305000D02*
X151790000Y-113055000D01*
X158090000Y-113305000D02*
X151790000Y-113305000D01*
X158090000Y-113055000D02*
X158090000Y-113305000D01*
X151790000Y-111155000D02*
X151790000Y-108555000D01*
X158090000Y-106405000D02*
X158090000Y-106655000D01*
X151790000Y-106405000D02*
X158090000Y-106405000D01*
X151790000Y-106655000D02*
X151790000Y-106405000D01*
X160095000Y-125356252D02*
X160095000Y-124833748D01*
X158675000Y-125356252D02*
X158675000Y-124833748D01*
X156285000Y-125356252D02*
X156285000Y-124833748D01*
X154865000Y-125356252D02*
X154865000Y-124833748D01*
X141231252Y-117527000D02*
X140708748Y-117527000D01*
X141231252Y-118947000D02*
X140708748Y-118947000D01*
X154312252Y-117527000D02*
X153789748Y-117527000D01*
X154312252Y-118947000D02*
X153789748Y-118947000D01*
X139521000Y-129674252D02*
X139521000Y-129151748D01*
X138101000Y-129674252D02*
X138101000Y-129151748D01*
X145340000Y-121023748D02*
X145340000Y-121546252D01*
X146760000Y-121023748D02*
X146760000Y-121546252D01*
X147245000Y-121023748D02*
X147245000Y-121546252D01*
X148665000Y-121023748D02*
X148665000Y-121546252D01*
X143410000Y-133545000D02*
X143410000Y-131595000D01*
X143410000Y-129375000D02*
X143410000Y-126145000D01*
X144130000Y-124225000D02*
X145210000Y-124225000D01*
X149430000Y-124225000D02*
X150510000Y-124225000D01*
X151230000Y-129375000D02*
X151230000Y-126145000D01*
X151230000Y-133545000D02*
X151230000Y-131595000D01*
X145210000Y-124225000D02*
X145210000Y-123795000D01*
X151230000Y-133545000D02*
X143410000Y-133545000D01*
X158425000Y-127680000D02*
X158425000Y-130540000D01*
X160345000Y-127680000D02*
X158425000Y-127680000D01*
X160345000Y-130540000D02*
X160345000Y-127680000D01*
X154615000Y-127680000D02*
X154615000Y-130540000D01*
X156535000Y-127680000D02*
X154615000Y-127680000D01*
X156535000Y-130540000D02*
X156535000Y-127680000D01*
X135692000Y-127553000D02*
X135692000Y-130413000D01*
X137612000Y-127553000D02*
X135692000Y-127553000D01*
X137612000Y-130413000D02*
X137612000Y-127553000D01*
X138505000Y-86621252D02*
X138505000Y-86098748D01*
X137085000Y-86621252D02*
X137085000Y-86098748D01*
X135965000Y-86621252D02*
X135965000Y-86098748D01*
X134545000Y-86621252D02*
X134545000Y-86098748D01*
X144855000Y-121546252D02*
X144855000Y-121023748D01*
X143435000Y-121546252D02*
X143435000Y-121023748D01*
D10*
X151034761Y-115863619D02*
X150939523Y-115816000D01*
X150844285Y-115720761D01*
X150701428Y-115577904D01*
X150606190Y-115530285D01*
X150510952Y-115530285D01*
X150558571Y-115768380D02*
X150463333Y-115720761D01*
X150368095Y-115625523D01*
X150320476Y-115435047D01*
X150320476Y-115101714D01*
X150368095Y-114911238D01*
X150463333Y-114816000D01*
X150558571Y-114768380D01*
X150749047Y-114768380D01*
X150844285Y-114816000D01*
X150939523Y-114911238D01*
X150987142Y-115101714D01*
X150987142Y-115435047D01*
X150939523Y-115625523D01*
X150844285Y-115720761D01*
X150749047Y-115768380D01*
X150558571Y-115768380D01*
X151368095Y-114863619D02*
X151415714Y-114816000D01*
X151510952Y-114768380D01*
X151749047Y-114768380D01*
X151844285Y-114816000D01*
X151891904Y-114863619D01*
X151939523Y-114958857D01*
X151939523Y-115054095D01*
X151891904Y-115196952D01*
X151320476Y-115768380D01*
X151939523Y-115768380D01*
X138207761Y-115863619D02*
X138112523Y-115816000D01*
X138017285Y-115720761D01*
X137874428Y-115577904D01*
X137779190Y-115530285D01*
X137683952Y-115530285D01*
X137731571Y-115768380D02*
X137636333Y-115720761D01*
X137541095Y-115625523D01*
X137493476Y-115435047D01*
X137493476Y-115101714D01*
X137541095Y-114911238D01*
X137636333Y-114816000D01*
X137731571Y-114768380D01*
X137922047Y-114768380D01*
X138017285Y-114816000D01*
X138112523Y-114911238D01*
X138160142Y-115101714D01*
X138160142Y-115435047D01*
X138112523Y-115625523D01*
X138017285Y-115720761D01*
X137922047Y-115768380D01*
X137731571Y-115768380D01*
X139112523Y-115768380D02*
X138541095Y-115768380D01*
X138826809Y-115768380D02*
X138826809Y-114768380D01*
X138731571Y-114911238D01*
X138636333Y-115006476D01*
X138541095Y-115054095D01*
X137594380Y-102536904D02*
X138403904Y-102536904D01*
X138499142Y-102489285D01*
X138546761Y-102441666D01*
X138594380Y-102346428D01*
X138594380Y-102155952D01*
X138546761Y-102060714D01*
X138499142Y-102013095D01*
X138403904Y-101965476D01*
X137594380Y-101965476D01*
X137594380Y-101584523D02*
X137594380Y-100965476D01*
X137975333Y-101298809D01*
X137975333Y-101155952D01*
X138022952Y-101060714D01*
X138070571Y-101013095D01*
X138165809Y-100965476D01*
X138403904Y-100965476D01*
X138499142Y-101013095D01*
X138546761Y-101060714D01*
X138594380Y-101155952D01*
X138594380Y-101441666D01*
X138546761Y-101536904D01*
X138499142Y-101584523D01*
X140906666Y-105759761D02*
X141049523Y-105807380D01*
X141287619Y-105807380D01*
X141382857Y-105759761D01*
X141430476Y-105712142D01*
X141478095Y-105616904D01*
X141478095Y-105521666D01*
X141430476Y-105426428D01*
X141382857Y-105378809D01*
X141287619Y-105331190D01*
X141097142Y-105283571D01*
X141001904Y-105235952D01*
X140954285Y-105188333D01*
X140906666Y-105093095D01*
X140906666Y-104997857D01*
X140954285Y-104902619D01*
X141001904Y-104855000D01*
X141097142Y-104807380D01*
X141335238Y-104807380D01*
X141478095Y-104855000D01*
X141811428Y-104807380D02*
X142049523Y-105807380D01*
X142240000Y-105093095D01*
X142430476Y-105807380D01*
X142668571Y-104807380D01*
X143001904Y-104902619D02*
X143049523Y-104855000D01*
X143144761Y-104807380D01*
X143382857Y-104807380D01*
X143478095Y-104855000D01*
X143525714Y-104902619D01*
X143573333Y-104997857D01*
X143573333Y-105093095D01*
X143525714Y-105235952D01*
X142954285Y-105807380D01*
X143573333Y-105807380D01*
X153606666Y-105759761D02*
X153749523Y-105807380D01*
X153987619Y-105807380D01*
X154082857Y-105759761D01*
X154130476Y-105712142D01*
X154178095Y-105616904D01*
X154178095Y-105521666D01*
X154130476Y-105426428D01*
X154082857Y-105378809D01*
X153987619Y-105331190D01*
X153797142Y-105283571D01*
X153701904Y-105235952D01*
X153654285Y-105188333D01*
X153606666Y-105093095D01*
X153606666Y-104997857D01*
X153654285Y-104902619D01*
X153701904Y-104855000D01*
X153797142Y-104807380D01*
X154035238Y-104807380D01*
X154178095Y-104855000D01*
X154511428Y-104807380D02*
X154749523Y-105807380D01*
X154940000Y-105093095D01*
X155130476Y-105807380D01*
X155368571Y-104807380D01*
X156273333Y-105807380D02*
X155701904Y-105807380D01*
X155987619Y-105807380D02*
X155987619Y-104807380D01*
X155892380Y-104950238D01*
X155797142Y-105045476D01*
X155701904Y-105093095D01*
X161615380Y-125134666D02*
X161139190Y-125468000D01*
X161615380Y-125706095D02*
X160615380Y-125706095D01*
X160615380Y-125325142D01*
X160663000Y-125229904D01*
X160710619Y-125182285D01*
X160805857Y-125134666D01*
X160948714Y-125134666D01*
X161043952Y-125182285D01*
X161091571Y-125229904D01*
X161139190Y-125325142D01*
X161139190Y-125706095D01*
X160615380Y-124801333D02*
X160615380Y-124134666D01*
X161615380Y-124563238D01*
X157678380Y-125261666D02*
X157202190Y-125595000D01*
X157678380Y-125833095D02*
X156678380Y-125833095D01*
X156678380Y-125452142D01*
X156726000Y-125356904D01*
X156773619Y-125309285D01*
X156868857Y-125261666D01*
X157011714Y-125261666D01*
X157106952Y-125309285D01*
X157154571Y-125356904D01*
X157202190Y-125452142D01*
X157202190Y-125833095D01*
X156678380Y-124404523D02*
X156678380Y-124595000D01*
X156726000Y-124690238D01*
X156773619Y-124737857D01*
X156916476Y-124833095D01*
X157106952Y-124880714D01*
X157487904Y-124880714D01*
X157583142Y-124833095D01*
X157630761Y-124785476D01*
X157678380Y-124690238D01*
X157678380Y-124499761D01*
X157630761Y-124404523D01*
X157583142Y-124356904D01*
X157487904Y-124309285D01*
X157249809Y-124309285D01*
X157154571Y-124356904D01*
X157106952Y-124404523D01*
X157059333Y-124499761D01*
X157059333Y-124690238D01*
X157106952Y-124785476D01*
X157154571Y-124833095D01*
X157249809Y-124880714D01*
X140803333Y-120339380D02*
X140470000Y-119863190D01*
X140231904Y-120339380D02*
X140231904Y-119339380D01*
X140612857Y-119339380D01*
X140708095Y-119387000D01*
X140755714Y-119434619D01*
X140803333Y-119529857D01*
X140803333Y-119672714D01*
X140755714Y-119767952D01*
X140708095Y-119815571D01*
X140612857Y-119863190D01*
X140231904Y-119863190D01*
X141708095Y-119339380D02*
X141231904Y-119339380D01*
X141184285Y-119815571D01*
X141231904Y-119767952D01*
X141327142Y-119720333D01*
X141565238Y-119720333D01*
X141660476Y-119767952D01*
X141708095Y-119815571D01*
X141755714Y-119910809D01*
X141755714Y-120148904D01*
X141708095Y-120244142D01*
X141660476Y-120291761D01*
X141565238Y-120339380D01*
X141327142Y-120339380D01*
X141231904Y-120291761D01*
X141184285Y-120244142D01*
X153884333Y-120340380D02*
X153551000Y-119864190D01*
X153312904Y-120340380D02*
X153312904Y-119340380D01*
X153693857Y-119340380D01*
X153789095Y-119388000D01*
X153836714Y-119435619D01*
X153884333Y-119530857D01*
X153884333Y-119673714D01*
X153836714Y-119768952D01*
X153789095Y-119816571D01*
X153693857Y-119864190D01*
X153312904Y-119864190D01*
X154741476Y-119673714D02*
X154741476Y-120340380D01*
X154503380Y-119292761D02*
X154265285Y-120007047D01*
X154884333Y-120007047D01*
X139263380Y-126658666D02*
X138787190Y-126992000D01*
X139263380Y-127230095D02*
X138263380Y-127230095D01*
X138263380Y-126849142D01*
X138311000Y-126753904D01*
X138358619Y-126706285D01*
X138453857Y-126658666D01*
X138596714Y-126658666D01*
X138691952Y-126706285D01*
X138739571Y-126753904D01*
X138787190Y-126849142D01*
X138787190Y-127230095D01*
X138263380Y-126325333D02*
X138263380Y-125706285D01*
X138644333Y-126039619D01*
X138644333Y-125896761D01*
X138691952Y-125801523D01*
X138739571Y-125753904D01*
X138834809Y-125706285D01*
X139072904Y-125706285D01*
X139168142Y-125753904D01*
X139215761Y-125801523D01*
X139263380Y-125896761D01*
X139263380Y-126182476D01*
X139215761Y-126277714D01*
X139168142Y-126325333D01*
X146502380Y-118657666D02*
X146026190Y-118991000D01*
X146502380Y-119229095D02*
X145502380Y-119229095D01*
X145502380Y-118848142D01*
X145550000Y-118752904D01*
X145597619Y-118705285D01*
X145692857Y-118657666D01*
X145835714Y-118657666D01*
X145930952Y-118705285D01*
X145978571Y-118752904D01*
X146026190Y-118848142D01*
X146026190Y-119229095D01*
X145597619Y-118276714D02*
X145550000Y-118229095D01*
X145502380Y-118133857D01*
X145502380Y-117895761D01*
X145550000Y-117800523D01*
X145597619Y-117752904D01*
X145692857Y-117705285D01*
X145788095Y-117705285D01*
X145930952Y-117752904D01*
X146502380Y-118324333D01*
X146502380Y-117705285D01*
X150057380Y-121451666D02*
X149581190Y-121785000D01*
X150057380Y-122023095D02*
X149057380Y-122023095D01*
X149057380Y-121642142D01*
X149105000Y-121546904D01*
X149152619Y-121499285D01*
X149247857Y-121451666D01*
X149390714Y-121451666D01*
X149485952Y-121499285D01*
X149533571Y-121546904D01*
X149581190Y-121642142D01*
X149581190Y-122023095D01*
X150057380Y-120499285D02*
X150057380Y-121070714D01*
X150057380Y-120785000D02*
X149057380Y-120785000D01*
X149200238Y-120880238D01*
X149295476Y-120975476D01*
X149343095Y-121070714D01*
X152447666Y-126960380D02*
X152447666Y-127674666D01*
X152400047Y-127817523D01*
X152304809Y-127912761D01*
X152161952Y-127960380D01*
X152066714Y-127960380D01*
X153447666Y-127960380D02*
X152876238Y-127960380D01*
X153161952Y-127960380D02*
X153161952Y-126960380D01*
X153066714Y-127103238D01*
X152971476Y-127198476D01*
X152876238Y-127246095D01*
X161487380Y-130278095D02*
X160487380Y-130278095D01*
X160487380Y-130040000D01*
X160535000Y-129897142D01*
X160630238Y-129801904D01*
X160725476Y-129754285D01*
X160915952Y-129706666D01*
X161058809Y-129706666D01*
X161249285Y-129754285D01*
X161344523Y-129801904D01*
X161439761Y-129897142D01*
X161487380Y-130040000D01*
X161487380Y-130278095D01*
X160487380Y-129373333D02*
X160487380Y-128754285D01*
X160868333Y-129087619D01*
X160868333Y-128944761D01*
X160915952Y-128849523D01*
X160963571Y-128801904D01*
X161058809Y-128754285D01*
X161296904Y-128754285D01*
X161392142Y-128801904D01*
X161439761Y-128849523D01*
X161487380Y-128944761D01*
X161487380Y-129230476D01*
X161439761Y-129325714D01*
X161392142Y-129373333D01*
X157677380Y-130278095D02*
X156677380Y-130278095D01*
X156677380Y-130040000D01*
X156725000Y-129897142D01*
X156820238Y-129801904D01*
X156915476Y-129754285D01*
X157105952Y-129706666D01*
X157248809Y-129706666D01*
X157439285Y-129754285D01*
X157534523Y-129801904D01*
X157629761Y-129897142D01*
X157677380Y-130040000D01*
X157677380Y-130278095D01*
X156772619Y-129325714D02*
X156725000Y-129278095D01*
X156677380Y-129182857D01*
X156677380Y-128944761D01*
X156725000Y-128849523D01*
X156772619Y-128801904D01*
X156867857Y-128754285D01*
X156963095Y-128754285D01*
X157105952Y-128801904D01*
X157677380Y-129373333D01*
X157677380Y-128754285D01*
X137104380Y-127103095D02*
X136104380Y-127103095D01*
X136104380Y-126865000D01*
X136152000Y-126722142D01*
X136247238Y-126626904D01*
X136342476Y-126579285D01*
X136532952Y-126531666D01*
X136675809Y-126531666D01*
X136866285Y-126579285D01*
X136961523Y-126626904D01*
X137056761Y-126722142D01*
X137104380Y-126865000D01*
X137104380Y-127103095D01*
X137104380Y-125579285D02*
X137104380Y-126150714D01*
X137104380Y-125865000D02*
X136104380Y-125865000D01*
X136247238Y-125960238D01*
X136342476Y-126055476D01*
X136390095Y-126150714D01*
X138279142Y-89320666D02*
X138326761Y-89368285D01*
X138374380Y-89511142D01*
X138374380Y-89606380D01*
X138326761Y-89749238D01*
X138231523Y-89844476D01*
X138136285Y-89892095D01*
X137945809Y-89939714D01*
X137802952Y-89939714D01*
X137612476Y-89892095D01*
X137517238Y-89844476D01*
X137422000Y-89749238D01*
X137374380Y-89606380D01*
X137374380Y-89511142D01*
X137422000Y-89368285D01*
X137469619Y-89320666D01*
X138374380Y-88844476D02*
X138374380Y-88654000D01*
X138326761Y-88558761D01*
X138279142Y-88511142D01*
X138136285Y-88415904D01*
X137945809Y-88368285D01*
X137564857Y-88368285D01*
X137469619Y-88415904D01*
X137422000Y-88463523D01*
X137374380Y-88558761D01*
X137374380Y-88749238D01*
X137422000Y-88844476D01*
X137469619Y-88892095D01*
X137564857Y-88939714D01*
X137802952Y-88939714D01*
X137898190Y-88892095D01*
X137945809Y-88844476D01*
X137993428Y-88749238D01*
X137993428Y-88558761D01*
X137945809Y-88463523D01*
X137898190Y-88415904D01*
X137802952Y-88368285D01*
X135612142Y-89320666D02*
X135659761Y-89368285D01*
X135707380Y-89511142D01*
X135707380Y-89606380D01*
X135659761Y-89749238D01*
X135564523Y-89844476D01*
X135469285Y-89892095D01*
X135278809Y-89939714D01*
X135135952Y-89939714D01*
X134945476Y-89892095D01*
X134850238Y-89844476D01*
X134755000Y-89749238D01*
X134707380Y-89606380D01*
X134707380Y-89511142D01*
X134755000Y-89368285D01*
X134802619Y-89320666D01*
X135135952Y-88749238D02*
X135088333Y-88844476D01*
X135040714Y-88892095D01*
X134945476Y-88939714D01*
X134897857Y-88939714D01*
X134802619Y-88892095D01*
X134755000Y-88844476D01*
X134707380Y-88749238D01*
X134707380Y-88558761D01*
X134755000Y-88463523D01*
X134802619Y-88415904D01*
X134897857Y-88368285D01*
X134945476Y-88368285D01*
X135040714Y-88415904D01*
X135088333Y-88463523D01*
X135135952Y-88558761D01*
X135135952Y-88749238D01*
X135183571Y-88844476D01*
X135231190Y-88892095D01*
X135326428Y-88939714D01*
X135516904Y-88939714D01*
X135612142Y-88892095D01*
X135659761Y-88844476D01*
X135707380Y-88749238D01*
X135707380Y-88558761D01*
X135659761Y-88463523D01*
X135612142Y-88415904D01*
X135516904Y-88368285D01*
X135326428Y-88368285D01*
X135231190Y-88415904D01*
X135183571Y-88463523D01*
X135135952Y-88558761D01*
X142852142Y-121451666D02*
X142899761Y-121499285D01*
X142947380Y-121642142D01*
X142947380Y-121737380D01*
X142899761Y-121880238D01*
X142804523Y-121975476D01*
X142709285Y-122023095D01*
X142518809Y-122070714D01*
X142375952Y-122070714D01*
X142185476Y-122023095D01*
X142090238Y-121975476D01*
X141995000Y-121880238D01*
X141947380Y-121737380D01*
X141947380Y-121642142D01*
X141995000Y-121499285D01*
X142042619Y-121451666D01*
X142042619Y-121070714D02*
X141995000Y-121023095D01*
X141947380Y-120927857D01*
X141947380Y-120689761D01*
X141995000Y-120594523D01*
X142042619Y-120546904D01*
X142137857Y-120499285D01*
X142233095Y-120499285D01*
X142375952Y-120546904D01*
X142947380Y-121118333D01*
X142947380Y-120499285D01*
M02*
